<?xml version="1.0" encoding="utf-8" standalone="no"?>
<!DOCTYPE svg PUBLIC "-//W3C//DTD SVG 1.1//EN"
  "http://www.w3.org/Graphics/SVG/1.1/DTD/svg11.dtd">
<svg xmlns:xlink="http://www.w3.org/1999/xlink" width="505.44875pt" height="357.03375pt" viewBox="0 0 505.44875 357.03375" xmlns="http://www.w3.org/2000/svg" version="1.1">
 <metadata>
  <rdf:RDF xmlns:dc="http://purl.org/dc/elements/1.1/" xmlns:cc="http://creativecommons.org/ns#" xmlns:rdf="http://www.w3.org/1999/02/22-rdf-syntax-ns#">
   <cc:Work>
    <dc:type rdf:resource="http://purl.org/dc/dcmitype/StillImage"/>
    <dc:date>2026-06-24T02:40:03.303317</dc:date>
    <dc:format>image/svg+xml</dc:format>
    <dc:creator>
     <cc:Agent>
      <dc:title>Matplotlib v3.10.0, https://matplotlib.org/</dc:title>
     </cc:Agent>
    </dc:creator>
   </cc:Work>
  </rdf:RDF>
 </metadata>
 <defs>
  <style type="text/css">*{stroke-linejoin: round; stroke-linecap: butt}</style>
 </defs>
 <g id="figure_1">
  <g id="patch_1">
   <path d="M 0 357.03375 
L 505.44875 357.03375 
L 505.44875 0 
L 0 0 
z
" style="fill: #ffffff"/>
  </g>
  <g id="axes_1">
   <g id="patch_2">
    <path d="M 44.64875 308.38 
L 491.04875 308.38 
L 491.04875 31.18 
L 44.64875 31.18 
z
" style="fill: #fafafa"/>
   </g>
   <g id="matplotlib.axis_1">
    <g id="xtick_1">
     <g id="line2d_1">
      <path d="M 64.533028 308.38 
L 64.533028 31.18 
" clip-path="url(#p17dbae7bd3)" style="fill: none; stroke: #b0b0b0; stroke-opacity: 0.3; stroke-width: 0.8; stroke-linecap: square"/>
     </g>
     <g id="line2d_2">
      <defs>
       <path id="m875d88a6ac" d="M 0 0 
L 0 3.5 
" style="stroke: #000000; stroke-width: 0.8"/>
      </defs>
      <g>
       <use xlink:href="#m875d88a6ac" x="64.533028" y="308.38" style="stroke: #000000; stroke-width: 0.8"/>
      </g>
     </g>
     <g id="text_1">
      <!-- 0.0 -->
      <g transform="translate(54.991153 324.498125) scale(0.12 -0.12)">
       <defs>
        <path id="DejaVuSans-30" d="M 2034 4250 
Q 1547 4250 1301 3770 
Q 1056 3291 1056 2328 
Q 1056 1369 1301 889 
Q 1547 409 2034 409 
Q 2525 409 2770 889 
Q 3016 1369 3016 2328 
Q 3016 3291 2770 3770 
Q 2525 4250 2034 4250 
z
M 2034 4750 
Q 2819 4750 3233 4129 
Q 3647 3509 3647 2328 
Q 3647 1150 3233 529 
Q 2819 -91 2034 -91 
Q 1250 -91 836 529 
Q 422 1150 422 2328 
Q 422 3509 836 4129 
Q 1250 4750 2034 4750 
z
" transform="scale(0.015625)"/>
        <path id="DejaVuSans-2e" d="M 684 794 
L 1344 794 
L 1344 0 
L 684 0 
L 684 794 
z
" transform="scale(0.015625)"/>
       </defs>
       <use xlink:href="#DejaVuSans-30"/>
       <use xlink:href="#DejaVuSans-2e" transform="translate(63.623047 0)"/>
       <use xlink:href="#DejaVuSans-30" transform="translate(95.410156 0)"/>
      </g>
     </g>
    </g>
    <g id="xtick_2">
     <g id="line2d_3">
      <path d="M 145.859317 308.38 
L 145.859317 31.18 
" clip-path="url(#p17dbae7bd3)" style="fill: none; stroke: #b0b0b0; stroke-opacity: 0.3; stroke-width: 0.8; stroke-linecap: square"/>
     </g>
     <g id="line2d_4">
      <g>
       <use xlink:href="#m875d88a6ac" x="145.859317" y="308.38" style="stroke: #000000; stroke-width: 0.8"/>
      </g>
     </g>
     <g id="text_2">
      <!-- 0.2 -->
      <g transform="translate(136.317442 324.498125) scale(0.12 -0.12)">
       <defs>
        <path id="DejaVuSans-32" d="M 1228 531 
L 3431 531 
L 3431 0 
L 469 0 
L 469 531 
Q 828 903 1448 1529 
Q 2069 2156 2228 2338 
Q 2531 2678 2651 2914 
Q 2772 3150 2772 3378 
Q 2772 3750 2511 3984 
Q 2250 4219 1831 4219 
Q 1534 4219 1204 4116 
Q 875 4013 500 3803 
L 500 4441 
Q 881 4594 1212 4672 
Q 1544 4750 1819 4750 
Q 2544 4750 2975 4387 
Q 3406 4025 3406 3419 
Q 3406 3131 3298 2873 
Q 3191 2616 2906 2266 
Q 2828 2175 2409 1742 
Q 1991 1309 1228 531 
z
" transform="scale(0.015625)"/>
       </defs>
       <use xlink:href="#DejaVuSans-30"/>
       <use xlink:href="#DejaVuSans-2e" transform="translate(63.623047 0)"/>
       <use xlink:href="#DejaVuSans-32" transform="translate(95.410156 0)"/>
      </g>
     </g>
    </g>
    <g id="xtick_3">
     <g id="line2d_5">
      <path d="M 227.185606 308.38 
L 227.185606 31.18 
" clip-path="url(#p17dbae7bd3)" style="fill: none; stroke: #b0b0b0; stroke-opacity: 0.3; stroke-width: 0.8; stroke-linecap: square"/>
     </g>
     <g id="line2d_6">
      <g>
       <use xlink:href="#m875d88a6ac" x="227.185606" y="308.38" style="stroke: #000000; stroke-width: 0.8"/>
      </g>
     </g>
     <g id="text_3">
      <!-- 0.4 -->
      <g transform="translate(217.643731 324.498125) scale(0.12 -0.12)">
       <defs>
        <path id="DejaVuSans-34" d="M 2419 4116 
L 825 1625 
L 2419 1625 
L 2419 4116 
z
M 2253 4666 
L 3047 4666 
L 3047 1625 
L 3713 1625 
L 3713 1100 
L 3047 1100 
L 3047 0 
L 2419 0 
L 2419 1100 
L 313 1100 
L 313 1709 
L 2253 4666 
z
" transform="scale(0.015625)"/>
       </defs>
       <use xlink:href="#DejaVuSans-30"/>
       <use xlink:href="#DejaVuSans-2e" transform="translate(63.623047 0)"/>
       <use xlink:href="#DejaVuSans-34" transform="translate(95.410156 0)"/>
      </g>
     </g>
    </g>
    <g id="xtick_4">
     <g id="line2d_7">
      <path d="M 308.511894 308.38 
L 308.511894 31.18 
" clip-path="url(#p17dbae7bd3)" style="fill: none; stroke: #b0b0b0; stroke-opacity: 0.3; stroke-width: 0.8; stroke-linecap: square"/>
     </g>
     <g id="line2d_8">
      <g>
       <use xlink:href="#m875d88a6ac" x="308.511894" y="308.38" style="stroke: #000000; stroke-width: 0.8"/>
      </g>
     </g>
     <g id="text_4">
      <!-- 0.6 -->
      <g transform="translate(298.970019 324.498125) scale(0.12 -0.12)">
       <defs>
        <path id="DejaVuSans-36" d="M 2113 2584 
Q 1688 2584 1439 2293 
Q 1191 2003 1191 1497 
Q 1191 994 1439 701 
Q 1688 409 2113 409 
Q 2538 409 2786 701 
Q 3034 994 3034 1497 
Q 3034 2003 2786 2293 
Q 2538 2584 2113 2584 
z
M 3366 4563 
L 3366 3988 
Q 3128 4100 2886 4159 
Q 2644 4219 2406 4219 
Q 1781 4219 1451 3797 
Q 1122 3375 1075 2522 
Q 1259 2794 1537 2939 
Q 1816 3084 2150 3084 
Q 2853 3084 3261 2657 
Q 3669 2231 3669 1497 
Q 3669 778 3244 343 
Q 2819 -91 2113 -91 
Q 1303 -91 875 529 
Q 447 1150 447 2328 
Q 447 3434 972 4092 
Q 1497 4750 2381 4750 
Q 2619 4750 2861 4703 
Q 3103 4656 3366 4563 
z
" transform="scale(0.015625)"/>
       </defs>
       <use xlink:href="#DejaVuSans-30"/>
       <use xlink:href="#DejaVuSans-2e" transform="translate(63.623047 0)"/>
       <use xlink:href="#DejaVuSans-36" transform="translate(95.410156 0)"/>
      </g>
     </g>
    </g>
    <g id="xtick_5">
     <g id="line2d_9">
      <path d="M 389.838183 308.38 
L 389.838183 31.18 
" clip-path="url(#p17dbae7bd3)" style="fill: none; stroke: #b0b0b0; stroke-opacity: 0.3; stroke-width: 0.8; stroke-linecap: square"/>
     </g>
     <g id="line2d_10">
      <g>
       <use xlink:href="#m875d88a6ac" x="389.838183" y="308.38" style="stroke: #000000; stroke-width: 0.8"/>
      </g>
     </g>
     <g id="text_5">
      <!-- 0.8 -->
      <g transform="translate(380.296308 324.498125) scale(0.12 -0.12)">
       <defs>
        <path id="DejaVuSans-38" d="M 2034 2216 
Q 1584 2216 1326 1975 
Q 1069 1734 1069 1313 
Q 1069 891 1326 650 
Q 1584 409 2034 409 
Q 2484 409 2743 651 
Q 3003 894 3003 1313 
Q 3003 1734 2745 1975 
Q 2488 2216 2034 2216 
z
M 1403 2484 
Q 997 2584 770 2862 
Q 544 3141 544 3541 
Q 544 4100 942 4425 
Q 1341 4750 2034 4750 
Q 2731 4750 3128 4425 
Q 3525 4100 3525 3541 
Q 3525 3141 3298 2862 
Q 3072 2584 2669 2484 
Q 3125 2378 3379 2068 
Q 3634 1759 3634 1313 
Q 3634 634 3220 271 
Q 2806 -91 2034 -91 
Q 1263 -91 848 271 
Q 434 634 434 1313 
Q 434 1759 690 2068 
Q 947 2378 1403 2484 
z
M 1172 3481 
Q 1172 3119 1398 2916 
Q 1625 2713 2034 2713 
Q 2441 2713 2670 2916 
Q 2900 3119 2900 3481 
Q 2900 3844 2670 4047 
Q 2441 4250 2034 4250 
Q 1625 4250 1398 4047 
Q 1172 3844 1172 3481 
z
" transform="scale(0.015625)"/>
       </defs>
       <use xlink:href="#DejaVuSans-30"/>
       <use xlink:href="#DejaVuSans-2e" transform="translate(63.623047 0)"/>
       <use xlink:href="#DejaVuSans-38" transform="translate(95.410156 0)"/>
      </g>
     </g>
    </g>
    <g id="xtick_6">
     <g id="line2d_11">
      <path d="M 471.164472 308.38 
L 471.164472 31.18 
" clip-path="url(#p17dbae7bd3)" style="fill: none; stroke: #b0b0b0; stroke-opacity: 0.3; stroke-width: 0.8; stroke-linecap: square"/>
     </g>
     <g id="line2d_12">
      <g>
       <use xlink:href="#m875d88a6ac" x="471.164472" y="308.38" style="stroke: #000000; stroke-width: 0.8"/>
      </g>
     </g>
     <g id="text_6">
      <!-- 1.0 -->
      <g transform="translate(461.622597 324.498125) scale(0.12 -0.12)">
       <defs>
        <path id="DejaVuSans-31" d="M 794 531 
L 1825 531 
L 1825 4091 
L 703 3866 
L 703 4441 
L 1819 4666 
L 2450 4666 
L 2450 531 
L 3481 531 
L 3481 0 
L 794 0 
L 794 531 
z
" transform="scale(0.015625)"/>
       </defs>
       <use xlink:href="#DejaVuSans-31"/>
       <use xlink:href="#DejaVuSans-2e" transform="translate(63.623047 0)"/>
       <use xlink:href="#DejaVuSans-30" transform="translate(95.410156 0)"/>
      </g>
     </g>
    </g>
    <g id="text_7">
     <!-- $p_t$ (probability of correct class) -->
     <g transform="translate(175.80875 340.11375) scale(0.12 -0.12)">
      <defs>
       <path id="DejaVuSans-Oblique-70" d="M 3175 2156 
Q 3175 2616 2975 2859 
Q 2775 3103 2400 3103 
Q 2144 3103 1911 2972 
Q 1678 2841 1497 2591 
Q 1319 2344 1212 1994 
Q 1106 1644 1106 1300 
Q 1106 863 1306 627 
Q 1506 391 1875 391 
Q 2147 391 2380 519 
Q 2613 647 2778 891 
Q 2956 1147 3065 1494 
Q 3175 1841 3175 2156 
z
M 1394 2969 
Q 1625 3272 1939 3428 
Q 2253 3584 2638 3584 
Q 3175 3584 3472 3232 
Q 3769 2881 3769 2247 
Q 3769 1728 3584 1258 
Q 3400 788 3053 416 
Q 2822 169 2531 39 
Q 2241 -91 1919 -91 
Q 1547 -91 1294 64 
Q 1041 219 916 525 
L 556 -1331 
L -19 -1331 
L 922 3500 
L 1497 3500 
L 1394 2969 
z
" transform="scale(0.015625)"/>
       <path id="DejaVuSans-Oblique-74" d="M 2706 3500 
L 2619 3053 
L 1472 3053 
L 1100 1153 
Q 1081 1047 1072 975 
Q 1063 903 1063 863 
Q 1063 663 1183 572 
Q 1303 481 1569 481 
L 2150 481 
L 2053 0 
L 1503 0 
Q 991 0 739 200 
Q 488 400 488 806 
Q 488 878 497 964 
Q 506 1050 525 1153 
L 897 3053 
L 409 3053 
L 500 3500 
L 978 3500 
L 1172 4494 
L 1747 4494 
L 1556 3500 
L 2706 3500 
z
" transform="scale(0.015625)"/>
       <path id="DejaVuSans-20" transform="scale(0.015625)"/>
       <path id="DejaVuSans-28" d="M 1984 4856 
Q 1566 4138 1362 3434 
Q 1159 2731 1159 2009 
Q 1159 1288 1364 580 
Q 1569 -128 1984 -844 
L 1484 -844 
Q 1016 -109 783 600 
Q 550 1309 550 2009 
Q 550 2706 781 3412 
Q 1013 4119 1484 4856 
L 1984 4856 
z
" transform="scale(0.015625)"/>
       <path id="DejaVuSans-70" d="M 1159 525 
L 1159 -1331 
L 581 -1331 
L 581 3500 
L 1159 3500 
L 1159 2969 
Q 1341 3281 1617 3432 
Q 1894 3584 2278 3584 
Q 2916 3584 3314 3078 
Q 3713 2572 3713 1747 
Q 3713 922 3314 415 
Q 2916 -91 2278 -91 
Q 1894 -91 1617 61 
Q 1341 213 1159 525 
z
M 3116 1747 
Q 3116 2381 2855 2742 
Q 2594 3103 2138 3103 
Q 1681 3103 1420 2742 
Q 1159 2381 1159 1747 
Q 1159 1113 1420 752 
Q 1681 391 2138 391 
Q 2594 391 2855 752 
Q 3116 1113 3116 1747 
z
" transform="scale(0.015625)"/>
       <path id="DejaVuSans-72" d="M 2631 2963 
Q 2534 3019 2420 3045 
Q 2306 3072 2169 3072 
Q 1681 3072 1420 2755 
Q 1159 2438 1159 1844 
L 1159 0 
L 581 0 
L 581 3500 
L 1159 3500 
L 1159 2956 
Q 1341 3275 1631 3429 
Q 1922 3584 2338 3584 
Q 2397 3584 2469 3576 
Q 2541 3569 2628 3553 
L 2631 2963 
z
" transform="scale(0.015625)"/>
       <path id="DejaVuSans-6f" d="M 1959 3097 
Q 1497 3097 1228 2736 
Q 959 2375 959 1747 
Q 959 1119 1226 758 
Q 1494 397 1959 397 
Q 2419 397 2687 759 
Q 2956 1122 2956 1747 
Q 2956 2369 2687 2733 
Q 2419 3097 1959 3097 
z
M 1959 3584 
Q 2709 3584 3137 3096 
Q 3566 2609 3566 1747 
Q 3566 888 3137 398 
Q 2709 -91 1959 -91 
Q 1206 -91 779 398 
Q 353 888 353 1747 
Q 353 2609 779 3096 
Q 1206 3584 1959 3584 
z
" transform="scale(0.015625)"/>
       <path id="DejaVuSans-62" d="M 3116 1747 
Q 3116 2381 2855 2742 
Q 2594 3103 2138 3103 
Q 1681 3103 1420 2742 
Q 1159 2381 1159 1747 
Q 1159 1113 1420 752 
Q 1681 391 2138 391 
Q 2594 391 2855 752 
Q 3116 1113 3116 1747 
z
M 1159 2969 
Q 1341 3281 1617 3432 
Q 1894 3584 2278 3584 
Q 2916 3584 3314 3078 
Q 3713 2572 3713 1747 
Q 3713 922 3314 415 
Q 2916 -91 2278 -91 
Q 1894 -91 1617 61 
Q 1341 213 1159 525 
L 1159 0 
L 581 0 
L 581 4863 
L 1159 4863 
L 1159 2969 
z
" transform="scale(0.015625)"/>
       <path id="DejaVuSans-61" d="M 2194 1759 
Q 1497 1759 1228 1600 
Q 959 1441 959 1056 
Q 959 750 1161 570 
Q 1363 391 1709 391 
Q 2188 391 2477 730 
Q 2766 1069 2766 1631 
L 2766 1759 
L 2194 1759 
z
M 3341 1997 
L 3341 0 
L 2766 0 
L 2766 531 
Q 2569 213 2275 61 
Q 1981 -91 1556 -91 
Q 1019 -91 701 211 
Q 384 513 384 1019 
Q 384 1609 779 1909 
Q 1175 2209 1959 2209 
L 2766 2209 
L 2766 2266 
Q 2766 2663 2505 2880 
Q 2244 3097 1772 3097 
Q 1472 3097 1187 3025 
Q 903 2953 641 2809 
L 641 3341 
Q 956 3463 1253 3523 
Q 1550 3584 1831 3584 
Q 2591 3584 2966 3190 
Q 3341 2797 3341 1997 
z
" transform="scale(0.015625)"/>
       <path id="DejaVuSans-69" d="M 603 3500 
L 1178 3500 
L 1178 0 
L 603 0 
L 603 3500 
z
M 603 4863 
L 1178 4863 
L 1178 4134 
L 603 4134 
L 603 4863 
z
" transform="scale(0.015625)"/>
       <path id="DejaVuSans-6c" d="M 603 4863 
L 1178 4863 
L 1178 0 
L 603 0 
L 603 4863 
z
" transform="scale(0.015625)"/>
       <path id="DejaVuSans-74" d="M 1172 4494 
L 1172 3500 
L 2356 3500 
L 2356 3053 
L 1172 3053 
L 1172 1153 
Q 1172 725 1289 603 
Q 1406 481 1766 481 
L 2356 481 
L 2356 0 
L 1766 0 
Q 1100 0 847 248 
Q 594 497 594 1153 
L 594 3053 
L 172 3053 
L 172 3500 
L 594 3500 
L 594 4494 
L 1172 4494 
z
" transform="scale(0.015625)"/>
       <path id="DejaVuSans-79" d="M 2059 -325 
Q 1816 -950 1584 -1140 
Q 1353 -1331 966 -1331 
L 506 -1331 
L 506 -850 
L 844 -850 
Q 1081 -850 1212 -737 
Q 1344 -625 1503 -206 
L 1606 56 
L 191 3500 
L 800 3500 
L 1894 763 
L 2988 3500 
L 3597 3500 
L 2059 -325 
z
" transform="scale(0.015625)"/>
       <path id="DejaVuSans-66" d="M 2375 4863 
L 2375 4384 
L 1825 4384 
Q 1516 4384 1395 4259 
Q 1275 4134 1275 3809 
L 1275 3500 
L 2222 3500 
L 2222 3053 
L 1275 3053 
L 1275 0 
L 697 0 
L 697 3053 
L 147 3053 
L 147 3500 
L 697 3500 
L 697 3744 
Q 697 4328 969 4595 
Q 1241 4863 1831 4863 
L 2375 4863 
z
" transform="scale(0.015625)"/>
       <path id="DejaVuSans-63" d="M 3122 3366 
L 3122 2828 
Q 2878 2963 2633 3030 
Q 2388 3097 2138 3097 
Q 1578 3097 1268 2742 
Q 959 2388 959 1747 
Q 959 1106 1268 751 
Q 1578 397 2138 397 
Q 2388 397 2633 464 
Q 2878 531 3122 666 
L 3122 134 
Q 2881 22 2623 -34 
Q 2366 -91 2075 -91 
Q 1284 -91 818 406 
Q 353 903 353 1747 
Q 353 2603 823 3093 
Q 1294 3584 2113 3584 
Q 2378 3584 2631 3529 
Q 2884 3475 3122 3366 
z
" transform="scale(0.015625)"/>
       <path id="DejaVuSans-65" d="M 3597 1894 
L 3597 1613 
L 953 1613 
Q 991 1019 1311 708 
Q 1631 397 2203 397 
Q 2534 397 2845 478 
Q 3156 559 3463 722 
L 3463 178 
Q 3153 47 2828 -22 
Q 2503 -91 2169 -91 
Q 1331 -91 842 396 
Q 353 884 353 1716 
Q 353 2575 817 3079 
Q 1281 3584 2069 3584 
Q 2775 3584 3186 3129 
Q 3597 2675 3597 1894 
z
M 3022 2063 
Q 3016 2534 2758 2815 
Q 2500 3097 2075 3097 
Q 1594 3097 1305 2825 
Q 1016 2553 972 2059 
L 3022 2063 
z
" transform="scale(0.015625)"/>
       <path id="DejaVuSans-73" d="M 2834 3397 
L 2834 2853 
Q 2591 2978 2328 3040 
Q 2066 3103 1784 3103 
Q 1356 3103 1142 2972 
Q 928 2841 928 2578 
Q 928 2378 1081 2264 
Q 1234 2150 1697 2047 
L 1894 2003 
Q 2506 1872 2764 1633 
Q 3022 1394 3022 966 
Q 3022 478 2636 193 
Q 2250 -91 1575 -91 
Q 1294 -91 989 -36 
Q 684 19 347 128 
L 347 722 
Q 666 556 975 473 
Q 1284 391 1588 391 
Q 1994 391 2212 530 
Q 2431 669 2431 922 
Q 2431 1156 2273 1281 
Q 2116 1406 1581 1522 
L 1381 1569 
Q 847 1681 609 1914 
Q 372 2147 372 2553 
Q 372 3047 722 3315 
Q 1072 3584 1716 3584 
Q 2034 3584 2315 3537 
Q 2597 3491 2834 3397 
z
" transform="scale(0.015625)"/>
       <path id="DejaVuSans-29" d="M 513 4856 
L 1013 4856 
Q 1481 4119 1714 3412 
Q 1947 2706 1947 2009 
Q 1947 1309 1714 600 
Q 1481 -109 1013 -844 
L 513 -844 
Q 928 -128 1133 580 
Q 1338 1288 1338 2009 
Q 1338 2731 1133 3434 
Q 928 4138 513 4856 
z
" transform="scale(0.015625)"/>
      </defs>
      <use xlink:href="#DejaVuSans-Oblique-70" transform="translate(0 0.015625)"/>
      <use xlink:href="#DejaVuSans-Oblique-74" transform="translate(63.476562 -16.390625) scale(0.7)"/>
      <use xlink:href="#DejaVuSans-20" transform="translate(93.657227 0.015625)"/>
      <use xlink:href="#DejaVuSans-28" transform="translate(125.444336 0.015625)"/>
      <use xlink:href="#DejaVuSans-70" transform="translate(164.458008 0.015625)"/>
      <use xlink:href="#DejaVuSans-72" transform="translate(227.93457 0.015625)"/>
      <use xlink:href="#DejaVuSans-6f" transform="translate(269.047852 0.015625)"/>
      <use xlink:href="#DejaVuSans-62" transform="translate(330.229492 0.015625)"/>
      <use xlink:href="#DejaVuSans-61" transform="translate(393.706055 0.015625)"/>
      <use xlink:href="#DejaVuSans-62" transform="translate(454.985352 0.015625)"/>
      <use xlink:href="#DejaVuSans-69" transform="translate(518.461914 0.015625)"/>
      <use xlink:href="#DejaVuSans-6c" transform="translate(546.245117 0.015625)"/>
      <use xlink:href="#DejaVuSans-69" transform="translate(574.02832 0.015625)"/>
      <use xlink:href="#DejaVuSans-74" transform="translate(601.811523 0.015625)"/>
      <use xlink:href="#DejaVuSans-79" transform="translate(641.020508 0.015625)"/>
      <use xlink:href="#DejaVuSans-20" transform="translate(700.200195 0.015625)"/>
      <use xlink:href="#DejaVuSans-6f" transform="translate(731.987305 0.015625)"/>
      <use xlink:href="#DejaVuSans-66" transform="translate(793.168945 0.015625)"/>
      <use xlink:href="#DejaVuSans-20" transform="translate(828.374023 0.015625)"/>
      <use xlink:href="#DejaVuSans-63" transform="translate(860.161133 0.015625)"/>
      <use xlink:href="#DejaVuSans-6f" transform="translate(915.141602 0.015625)"/>
      <use xlink:href="#DejaVuSans-72" transform="translate(976.323242 0.015625)"/>
      <use xlink:href="#DejaVuSans-72" transform="translate(1017.436523 0.015625)"/>
      <use xlink:href="#DejaVuSans-65" transform="translate(1058.549805 0.015625)"/>
      <use xlink:href="#DejaVuSans-63" transform="translate(1120.073242 0.015625)"/>
      <use xlink:href="#DejaVuSans-74" transform="translate(1175.053711 0.015625)"/>
      <use xlink:href="#DejaVuSans-20" transform="translate(1214.262695 0.015625)"/>
      <use xlink:href="#DejaVuSans-63" transform="translate(1246.049805 0.015625)"/>
      <use xlink:href="#DejaVuSans-6c" transform="translate(1301.030273 0.015625)"/>
      <use xlink:href="#DejaVuSans-61" transform="translate(1328.813477 0.015625)"/>
      <use xlink:href="#DejaVuSans-73" transform="translate(1390.092773 0.015625)"/>
      <use xlink:href="#DejaVuSans-73" transform="translate(1442.192383 0.015625)"/>
      <use xlink:href="#DejaVuSans-29" transform="translate(1494.291992 0.015625)"/>
     </g>
    </g>
   </g>
   <g id="matplotlib.axis_2">
    <g id="ytick_1">
     <g id="line2d_13">
      <path d="M 44.64875 308.38 
L 491.04875 308.38 
" clip-path="url(#p17dbae7bd3)" style="fill: none; stroke: #b0b0b0; stroke-opacity: 0.3; stroke-width: 0.8; stroke-linecap: square"/>
     </g>
     <g id="line2d_14">
      <defs>
       <path id="m295d10d1c0" d="M 0 0 
L -3.5 0 
" style="stroke: #000000; stroke-width: 0.8"/>
      </defs>
      <g>
       <use xlink:href="#m295d10d1c0" x="44.64875" y="308.38" style="stroke: #000000; stroke-width: 0.8"/>
      </g>
     </g>
     <g id="text_8">
      <!-- 0 -->
      <g transform="translate(30.01375 312.939062) scale(0.12 -0.12)">
       <use xlink:href="#DejaVuSans-30"/>
      </g>
     </g>
    </g>
    <g id="ytick_2">
     <g id="line2d_15">
      <path d="M 44.64875 252.94 
L 491.04875 252.94 
" clip-path="url(#p17dbae7bd3)" style="fill: none; stroke: #b0b0b0; stroke-opacity: 0.3; stroke-width: 0.8; stroke-linecap: square"/>
     </g>
     <g id="line2d_16">
      <g>
       <use xlink:href="#m295d10d1c0" x="44.64875" y="252.94" style="stroke: #000000; stroke-width: 0.8"/>
      </g>
     </g>
     <g id="text_9">
      <!-- 1 -->
      <g transform="translate(30.01375 257.499062) scale(0.12 -0.12)">
       <use xlink:href="#DejaVuSans-31"/>
      </g>
     </g>
    </g>
    <g id="ytick_3">
     <g id="line2d_17">
      <path d="M 44.64875 197.5 
L 491.04875 197.5 
" clip-path="url(#p17dbae7bd3)" style="fill: none; stroke: #b0b0b0; stroke-opacity: 0.3; stroke-width: 0.8; stroke-linecap: square"/>
     </g>
     <g id="line2d_18">
      <g>
       <use xlink:href="#m295d10d1c0" x="44.64875" y="197.5" style="stroke: #000000; stroke-width: 0.8"/>
      </g>
     </g>
     <g id="text_10">
      <!-- 2 -->
      <g transform="translate(30.01375 202.059063) scale(0.12 -0.12)">
       <use xlink:href="#DejaVuSans-32"/>
      </g>
     </g>
    </g>
    <g id="ytick_4">
     <g id="line2d_19">
      <path d="M 44.64875 142.06 
L 491.04875 142.06 
" clip-path="url(#p17dbae7bd3)" style="fill: none; stroke: #b0b0b0; stroke-opacity: 0.3; stroke-width: 0.8; stroke-linecap: square"/>
     </g>
     <g id="line2d_20">
      <g>
       <use xlink:href="#m295d10d1c0" x="44.64875" y="142.06" style="stroke: #000000; stroke-width: 0.8"/>
      </g>
     </g>
     <g id="text_11">
      <!-- 3 -->
      <g transform="translate(30.01375 146.619063) scale(0.12 -0.12)">
       <defs>
        <path id="DejaVuSans-33" d="M 2597 2516 
Q 3050 2419 3304 2112 
Q 3559 1806 3559 1356 
Q 3559 666 3084 287 
Q 2609 -91 1734 -91 
Q 1441 -91 1130 -33 
Q 819 25 488 141 
L 488 750 
Q 750 597 1062 519 
Q 1375 441 1716 441 
Q 2309 441 2620 675 
Q 2931 909 2931 1356 
Q 2931 1769 2642 2001 
Q 2353 2234 1838 2234 
L 1294 2234 
L 1294 2753 
L 1863 2753 
Q 2328 2753 2575 2939 
Q 2822 3125 2822 3475 
Q 2822 3834 2567 4026 
Q 2313 4219 1838 4219 
Q 1578 4219 1281 4162 
Q 984 4106 628 3988 
L 628 4550 
Q 988 4650 1302 4700 
Q 1616 4750 1894 4750 
Q 2613 4750 3031 4423 
Q 3450 4097 3450 3541 
Q 3450 3153 3228 2886 
Q 3006 2619 2597 2516 
z
" transform="scale(0.015625)"/>
       </defs>
       <use xlink:href="#DejaVuSans-33"/>
      </g>
     </g>
    </g>
    <g id="ytick_5">
     <g id="line2d_21">
      <path d="M 44.64875 86.62 
L 491.04875 86.62 
" clip-path="url(#p17dbae7bd3)" style="fill: none; stroke: #b0b0b0; stroke-opacity: 0.3; stroke-width: 0.8; stroke-linecap: square"/>
     </g>
     <g id="line2d_22">
      <g>
       <use xlink:href="#m295d10d1c0" x="44.64875" y="86.62" style="stroke: #000000; stroke-width: 0.8"/>
      </g>
     </g>
     <g id="text_12">
      <!-- 4 -->
      <g transform="translate(30.01375 91.179062) scale(0.12 -0.12)">
       <use xlink:href="#DejaVuSans-34"/>
      </g>
     </g>
    </g>
    <g id="ytick_6">
     <g id="line2d_23">
      <path d="M 44.64875 31.18 
L 491.04875 31.18 
" clip-path="url(#p17dbae7bd3)" style="fill: none; stroke: #b0b0b0; stroke-opacity: 0.3; stroke-width: 0.8; stroke-linecap: square"/>
     </g>
     <g id="line2d_24">
      <g>
       <use xlink:href="#m295d10d1c0" x="44.64875" y="31.18" style="stroke: #000000; stroke-width: 0.8"/>
      </g>
     </g>
     <g id="text_13">
      <!-- 5 -->
      <g transform="translate(30.01375 35.739062) scale(0.12 -0.12)">
       <defs>
        <path id="DejaVuSans-35" d="M 691 4666 
L 3169 4666 
L 3169 4134 
L 1269 4134 
L 1269 2991 
Q 1406 3038 1543 3061 
Q 1681 3084 1819 3084 
Q 2600 3084 3056 2656 
Q 3513 2228 3513 1497 
Q 3513 744 3044 326 
Q 2575 -91 1722 -91 
Q 1428 -91 1123 -41 
Q 819 9 494 109 
L 494 744 
Q 775 591 1075 516 
Q 1375 441 1709 441 
Q 2250 441 2565 725 
Q 2881 1009 2881 1497 
Q 2881 1984 2565 2268 
Q 2250 2553 1709 2553 
Q 1456 2553 1204 2497 
Q 953 2441 691 2322 
L 691 4666 
z
" transform="scale(0.015625)"/>
       </defs>
       <use xlink:href="#DejaVuSans-35"/>
      </g>
     </g>
    </g>
    <g id="text_14">
     <!-- Loss -->
     <g transform="translate(23.518125 182.940625) rotate(-90) scale(0.12 -0.12)">
      <defs>
       <path id="DejaVuSans-4c" d="M 628 4666 
L 1259 4666 
L 1259 531 
L 3531 531 
L 3531 0 
L 628 0 
L 628 4666 
z
" transform="scale(0.015625)"/>
      </defs>
      <use xlink:href="#DejaVuSans-4c"/>
      <use xlink:href="#DejaVuSans-6f" transform="translate(53.962891 0)"/>
      <use xlink:href="#DejaVuSans-73" transform="translate(115.144531 0)"/>
      <use xlink:href="#DejaVuSans-73" transform="translate(167.244141 0)"/>
     </g>
    </g>
   </g>
   <g id="line2d_25">
    <path d="M 66.448219 -1 
L 66.978946 24.888314 
L 69.018234 58.505113 
L 71.057521 79.282854 
L 73.096808 94.361339 
L 75.136096 106.203414 
L 77.175383 115.955826 
L 79.214671 124.246612 
L 81.253958 131.457322 
L 83.293245 137.837208 
L 85.332533 143.558097 
L 87.37182 148.743473 
L 89.411107 153.485067 
L 91.450395 157.852885 
L 93.489682 161.901577 
L 95.528969 165.674615 
L 99.607544 172.528028 
L 103.686119 178.626679 
L 107.764693 184.120443 
L 111.843268 189.118555 
L 115.921843 193.703098 
L 120.000417 197.937313 
L 124.078992 201.870961 
L 128.157567 205.5439 
L 132.236142 208.988551 
L 138.354004 213.784706 
L 144.471866 218.198778 
L 150.589728 222.287177 
L 156.70759 226.094675 
L 162.825452 229.657402 
L 168.943314 233.004938 
L 177.100463 237.175372 
L 185.257612 241.053917 
L 193.414762 244.678773 
L 201.571911 248.081098 
L 211.768348 252.059884 
L 221.964785 255.772144 
L 232.161221 259.251354 
L 244.396946 263.157222 
L 256.63267 266.805931 
L 268.868394 270.229261 
L 283.143405 273.973039 
L 297.418417 277.479918 
L 313.732715 281.233654 
L 330.047014 284.74927 
L 348.4006 288.454897 
L 366.754186 291.928281 
L 387.14706 295.54838 
L 407.539933 298.946515 
L 429.972094 302.458582 
L 454.443542 306.052076 
L 470.757841 308.324532 
L 470.757841 308.324532 
" clip-path="url(#p17dbae7bd3)" style="fill: none; stroke-dasharray: 7.4,3.2; stroke-dashoffset: 0; stroke: #808080; stroke-opacity: 0.5; stroke-width: 2"/>
   </g>
   <g id="line2d_26">
    <path d="M 66.43434 -1 
L 66.978946 25.742212 
L 69.018234 59.887013 
L 71.057521 81.128244 
L 73.096808 96.62698 
L 75.136096 108.85674 
L 77.175383 118.970722 
L 79.214671 127.601288 
L 81.253958 135.13309 
L 83.293245 141.817714 
L 85.332533 147.828809 
L 87.37182 153.291313 
L 89.411107 158.298152 
L 91.450395 162.920327 
L 93.489682 167.213328 
L 95.528969 171.221351 
L 99.607544 178.519177 
L 103.686119 185.031497 
L 107.764693 190.911438 
L 111.843268 196.270863 
L 115.921843 201.194013 
L 120.000417 205.745939 
L 124.078992 209.977936 
L 128.157567 213.931177 
L 132.236142 217.639226 
L 136.314716 221.129805 
L 142.432578 226.007598 
L 148.55044 230.511128 
L 154.668302 234.690828 
L 160.786164 238.5873 
L 166.904026 242.233721 
L 173.021888 245.65756 
L 181.179038 249.915666 
L 189.336187 253.863591 
L 197.493337 257.537918 
L 205.650486 260.968767 
L 213.807635 264.181232 
L 224.004072 267.921586 
L 234.200509 271.387944 
L 244.396946 274.608746 
L 254.593382 277.607723 
L 264.789819 280.404859 
L 277.025543 283.518687 
L 289.261267 286.390828 
L 301.496991 289.041841 
L 313.732715 291.488934 
L 328.007727 294.105259 
L 342.282738 296.482483 
L 356.55775 298.635804 
L 370.832761 300.577128 
L 385.107772 302.315264 
L 399.382784 303.855867 
L 413.657795 305.201013 
L 427.932807 306.348091 
L 442.207818 307.287083 
L 456.482829 307.992613 
L 468.718554 308.354059 
L 470.757841 308.378246 
L 470.757841 308.378246 
" clip-path="url(#p17dbae7bd3)" style="fill: none; stroke: #2563eb; stroke-width: 2; stroke-linecap: square"/>
   </g>
   <g id="line2d_27">
    <path d="M 66.420682 -1 
L 66.978946 26.593538 
L 69.018234 61.261271 
L 71.057521 82.958769 
L 73.096808 98.868637 
L 75.136096 111.475244 
L 77.175383 121.938381 
L 79.214671 130.894845 
L 81.253958 138.732489 
L 83.293245 145.705315 
L 85.332533 151.988861 
L 87.37182 157.709591 
L 89.411107 162.961679 
L 91.450395 167.817175 
L 93.489682 172.33246 
L 95.528969 176.552494 
L 99.607544 184.246114 
L 103.686119 191.120164 
L 107.764693 197.331294 
L 111.843268 202.994235 
L 115.921843 208.195607 
L 120.000417 213.002473 
L 124.078992 217.467845 
L 128.157567 221.634391 
L 132.236142 225.536977 
L 136.314716 229.204481 
L 140.393291 232.661099 
L 146.511153 237.4946 
L 152.629015 241.956169 
L 158.746877 246.091751 
L 164.864739 249.938865 
L 170.982601 253.52857 
L 177.100463 256.886888 
L 183.218325 260.035853 
L 191.375475 263.940981 
L 199.532624 267.54478 
L 207.689773 270.878557 
L 215.846923 273.968634 
L 224.004072 276.837376 
L 232.161221 279.503959 
L 242.357658 282.577953 
L 252.554095 285.38961 
L 262.750532 287.962556 
L 272.946968 290.317062 
L 283.143405 292.470671 
L 295.379129 294.811213 
L 307.614853 296.90732 
L 319.850577 298.778774 
L 332.086301 300.442777 
L 346.361313 302.141915 
L 360.636324 303.600012 
L 374.911336 304.835244 
L 389.186347 305.863535 
L 405.500646 306.803273 
L 421.814945 307.509479 
L 438.129243 307.998368 
L 456.482829 308.306391 
L 470.757841 308.379945 
L 470.757841 308.379945 
" clip-path="url(#p17dbae7bd3)" style="fill: none; stroke: #16a34a; stroke-width: 2; stroke-linecap: square"/>
   </g>
   <g id="line2d_28">
    <path d="M 66.394006 -1 
L 66.978946 28.288505 
L 69.018234 63.987028 
L 71.057521 86.575704 
L 73.096808 103.281009 
L 75.136096 116.60961 
L 77.175383 127.734935 
L 79.214671 137.30304 
L 81.253958 145.708497 
L 83.293245 153.210422 
L 85.332533 159.988386 
L 87.37182 166.17212 
L 89.411107 171.858503 
L 91.450395 177.121869 
L 93.489682 182.020549 
L 95.528969 186.601195 
L 99.607544 194.953441 
L 103.686119 202.410695 
L 107.764693 209.137613 
L 111.843268 215.255524 
L 115.921843 220.856599 
L 120.000417 226.012638 
L 124.078992 230.780765 
L 128.157567 235.207245 
L 132.236142 239.330132 
L 136.314716 243.181148 
L 140.393291 246.78705 
L 144.471866 250.170642 
L 148.55044 253.351544 
L 154.668302 257.779486 
L 160.786164 261.83794 
L 166.904026 265.567339 
L 173.021888 269.001649 
L 179.13975 272.169735 
L 185.257612 275.096378 
L 191.375475 277.803052 
L 197.493337 280.308516 
L 205.650486 283.3644 
L 213.807635 286.125785 
L 221.964785 288.621968 
L 230.121934 290.878393 
L 238.279083 292.917336 
L 246.436233 294.75846 
L 256.63267 296.808118 
L 266.829106 298.605994 
L 277.025543 300.178532 
L 287.22198 301.549121 
L 299.457704 302.956428 
L 311.693428 304.134775 
L 325.968439 305.257677 
L 340.243451 306.146974 
L 356.55775 306.921993 
L 374.911336 307.540926 
L 395.304209 307.981591 
L 419.775657 308.260372 
L 452.404255 308.374426 
L 470.757841 308.38 
L 470.757841 308.38 
" clip-path="url(#p17dbae7bd3)" style="fill: none; stroke: #dc2626; stroke-width: 2; stroke-linecap: square"/>
   </g>
   <g id="line2d_29">
    <path d="M 66.318745 -1 
L 66.978946 33.312478 
L 69.018234 71.985228 
L 71.057521 97.08201 
L 73.096808 115.968358 
L 75.136096 131.223297 
L 77.175383 144.065531 
L 79.214671 155.172512 
L 81.253958 164.962073 
L 83.293245 173.711385 
L 85.332533 181.614519 
L 87.37182 188.81316 
L 89.411107 195.414251 
L 91.450395 201.500741 
L 93.489682 207.138436 
L 95.528969 212.380554 
L 97.568257 217.270839 
L 99.607544 221.845763 
L 103.686119 230.168162 
L 107.764693 237.544935 
L 111.843268 244.124619 
L 115.921843 250.022519 
L 120.000417 255.33036 
L 124.078992 260.122602 
L 128.157567 264.46073 
L 132.236142 268.396244 
L 136.314716 271.972821 
L 140.393291 275.227894 
L 144.471866 278.193841 
L 148.55044 280.898894 
L 152.629015 283.367839 
L 156.70759 285.622575 
L 160.786164 287.682552 
L 164.864739 289.565128 
L 170.982601 292.089967 
L 177.100463 294.296429 
L 183.218325 296.224155 
L 189.336187 297.907424 
L 195.454049 299.376026 
L 201.571911 300.655967 
L 209.729061 302.108046 
L 217.88621 303.311429 
L 226.043359 304.305421 
L 236.239796 305.303699 
L 246.436233 306.080697 
L 258.671957 306.782736 
L 272.946968 307.360112 
L 289.261267 307.79104 
L 309.654141 308.102602 
L 338.204163 308.297946 
L 389.186347 308.375843 
L 470.757841 308.38 
L 470.757841 308.38 
" clip-path="url(#p17dbae7bd3)" style="fill: none; stroke: #9333ea; stroke-width: 2; stroke-linecap: square"/>
   </g>
   <g id="patch_3">
    <path d="M 44.64875 308.38 
L 44.64875 31.18 
" style="fill: none; stroke: #000000; stroke-width: 0.8; stroke-linejoin: miter; stroke-linecap: square"/>
   </g>
   <g id="patch_4">
    <path d="M 491.04875 308.38 
L 491.04875 31.18 
" style="fill: none; stroke: #000000; stroke-width: 0.8; stroke-linejoin: miter; stroke-linecap: square"/>
   </g>
   <g id="patch_5">
    <path d="M 44.64875 308.38 
L 491.04875 308.38 
" style="fill: none; stroke: #000000; stroke-width: 0.8; stroke-linejoin: miter; stroke-linecap: square"/>
   </g>
   <g id="patch_6">
    <path d="M 44.64875 31.18 
L 491.04875 31.18 
" style="fill: none; stroke: #000000; stroke-width: 0.8; stroke-linejoin: miter; stroke-linecap: square"/>
   </g>
   <g id="text_15">
    <!-- Focal Loss: $-(1-p_t)^\gamma \log(p_t)$ -->
    <g transform="translate(170.33875 25.18) scale(0.14 -0.14)">
     <defs>
      <path id="DejaVuSans-46" d="M 628 4666 
L 3309 4666 
L 3309 4134 
L 1259 4134 
L 1259 2759 
L 3109 2759 
L 3109 2228 
L 1259 2228 
L 1259 0 
L 628 0 
L 628 4666 
z
" transform="scale(0.015625)"/>
      <path id="DejaVuSans-3a" d="M 750 794 
L 1409 794 
L 1409 0 
L 750 0 
L 750 794 
z
M 750 3309 
L 1409 3309 
L 1409 2516 
L 750 2516 
L 750 3309 
z
" transform="scale(0.015625)"/>
      <path id="DejaVuSans-2212" d="M 678 2272 
L 4684 2272 
L 4684 1741 
L 678 1741 
L 678 2272 
z
" transform="scale(0.015625)"/>
      <path id="DejaVuSans-Oblique-3b3" d="M 1491 2950 
L 1838 788 
L 3456 3500 
L 4066 3500 
L 1972 0 
L 1713 -1331 
L 1138 -1331 
L 1397 0 
L 988 2613 
Q 925 3006 628 3006 
L 475 3006 
L 569 3500 
L 788 3500 
Q 1403 3500 1491 2950 
z
" transform="scale(0.015625)"/>
      <path id="DejaVuSans-67" d="M 2906 1791 
Q 2906 2416 2648 2759 
Q 2391 3103 1925 3103 
Q 1463 3103 1205 2759 
Q 947 2416 947 1791 
Q 947 1169 1205 825 
Q 1463 481 1925 481 
Q 2391 481 2648 825 
Q 2906 1169 2906 1791 
z
M 3481 434 
Q 3481 -459 3084 -895 
Q 2688 -1331 1869 -1331 
Q 1566 -1331 1297 -1286 
Q 1028 -1241 775 -1147 
L 775 -588 
Q 1028 -725 1275 -790 
Q 1522 -856 1778 -856 
Q 2344 -856 2625 -561 
Q 2906 -266 2906 331 
L 2906 616 
Q 2728 306 2450 153 
Q 2172 0 1784 0 
Q 1141 0 747 490 
Q 353 981 353 1791 
Q 353 2603 747 3093 
Q 1141 3584 1784 3584 
Q 2172 3584 2450 3431 
Q 2728 3278 2906 2969 
L 2906 3500 
L 3481 3500 
L 3481 434 
z
" transform="scale(0.015625)"/>
     </defs>
     <use xlink:href="#DejaVuSans-46" transform="translate(0 0.4375)"/>
     <use xlink:href="#DejaVuSans-6f" transform="translate(57.519531 0.4375)"/>
     <use xlink:href="#DejaVuSans-63" transform="translate(118.701172 0.4375)"/>
     <use xlink:href="#DejaVuSans-61" transform="translate(173.681641 0.4375)"/>
     <use xlink:href="#DejaVuSans-6c" transform="translate(234.960938 0.4375)"/>
     <use xlink:href="#DejaVuSans-20" transform="translate(262.744141 0.4375)"/>
     <use xlink:href="#DejaVuSans-4c" transform="translate(294.53125 0.4375)"/>
     <use xlink:href="#DejaVuSans-6f" transform="translate(350.244141 0.4375)"/>
     <use xlink:href="#DejaVuSans-73" transform="translate(411.425781 0.4375)"/>
     <use xlink:href="#DejaVuSans-73" transform="translate(463.525391 0.4375)"/>
     <use xlink:href="#DejaVuSans-3a" transform="translate(515.625 0.4375)"/>
     <use xlink:href="#DejaVuSans-20" transform="translate(549.316406 0.4375)"/>
     <use xlink:href="#DejaVuSans-2212" transform="translate(581.103516 0.4375)"/>
     <use xlink:href="#DejaVuSans-28" transform="translate(664.892578 0.4375)"/>
     <use xlink:href="#DejaVuSans-31" transform="translate(703.90625 0.4375)"/>
     <use xlink:href="#DejaVuSans-2212" transform="translate(787.011719 0.4375)"/>
     <use xlink:href="#DejaVuSans-Oblique-70" transform="translate(890.283203 0.4375)"/>
     <use xlink:href="#DejaVuSans-Oblique-74" transform="translate(953.759766 -15.96875) scale(0.7)"/>
     <use xlink:href="#DejaVuSans-29" transform="translate(983.94043 0.4375)"/>
     <use xlink:href="#DejaVuSans-Oblique-3b3" transform="translate(1023.911133 38.71875) scale(0.7)"/>
     <use xlink:href="#DejaVuSans-6c" transform="translate(1068.071289 0.4375)"/>
     <use xlink:href="#DejaVuSans-6f" transform="translate(1095.854492 0.4375)"/>
     <use xlink:href="#DejaVuSans-67" transform="translate(1157.036133 0.4375)"/>
     <use xlink:href="#DejaVuSans-28" transform="translate(1220.512695 0.4375)"/>
     <use xlink:href="#DejaVuSans-Oblique-70" transform="translate(1259.526367 0.4375)"/>
     <use xlink:href="#DejaVuSans-Oblique-74" transform="translate(1323.00293 -15.96875) scale(0.7)"/>
     <use xlink:href="#DejaVuSans-29" transform="translate(1353.183594 0.4375)"/>
    </g>
   </g>
   <g id="legend_1">
    <g id="patch_7">
     <path d="M 390.31625 128.84875 
L 482.64875 128.84875 
Q 485.04875 128.84875 485.04875 126.44875 
L 485.04875 39.58 
Q 485.04875 37.18 482.64875 37.18 
L 390.31625 37.18 
Q 387.91625 37.18 387.91625 39.58 
L 387.91625 126.44875 
Q 387.91625 128.84875 390.31625 128.84875 
z
" style="fill: #fafafa; opacity: 0.8; stroke: #cccccc; stroke-linejoin: miter"/>
    </g>
    <g id="line2d_30">
     <path d="M 392.71625 46.898125 
L 404.71625 46.898125 
L 416.71625 46.898125 
" style="fill: none; stroke-dasharray: 7.4,3.2; stroke-dashoffset: 0; stroke: #808080; stroke-opacity: 0.5; stroke-width: 2"/>
    </g>
    <g id="text_16">
     <!-- CE (γ=0) -->
     <g transform="translate(426.31625 51.098125) scale(0.12 -0.12)">
      <defs>
       <path id="DejaVuSans-43" d="M 4122 4306 
L 4122 3641 
Q 3803 3938 3442 4084 
Q 3081 4231 2675 4231 
Q 1875 4231 1450 3742 
Q 1025 3253 1025 2328 
Q 1025 1406 1450 917 
Q 1875 428 2675 428 
Q 3081 428 3442 575 
Q 3803 722 4122 1019 
L 4122 359 
Q 3791 134 3420 21 
Q 3050 -91 2638 -91 
Q 1578 -91 968 557 
Q 359 1206 359 2328 
Q 359 3453 968 4101 
Q 1578 4750 2638 4750 
Q 3056 4750 3426 4639 
Q 3797 4528 4122 4306 
z
" transform="scale(0.015625)"/>
       <path id="DejaVuSans-45" d="M 628 4666 
L 3578 4666 
L 3578 4134 
L 1259 4134 
L 1259 2753 
L 3481 2753 
L 3481 2222 
L 1259 2222 
L 1259 531 
L 3634 531 
L 3634 0 
L 628 0 
L 628 4666 
z
" transform="scale(0.015625)"/>
       <path id="DejaVuSans-3b3" d="M 1128 2950 
L 1894 788 
L 2988 3500 
L 3597 3500 
L 2181 0 
L 2181 -1331 
L 1606 -1331 
L 1606 0 
L 688 2613 
Q 550 3006 253 3006 
L 100 3006 
L 100 3500 
L 319 3500 
Q 934 3500 1128 2950 
z
" transform="scale(0.015625)"/>
       <path id="DejaVuSans-3d" d="M 678 2906 
L 4684 2906 
L 4684 2381 
L 678 2381 
L 678 2906 
z
M 678 1631 
L 4684 1631 
L 4684 1100 
L 678 1100 
L 678 1631 
z
" transform="scale(0.015625)"/>
      </defs>
      <use xlink:href="#DejaVuSans-43"/>
      <use xlink:href="#DejaVuSans-45" transform="translate(69.824219 0)"/>
      <use xlink:href="#DejaVuSans-20" transform="translate(133.007812 0)"/>
      <use xlink:href="#DejaVuSans-28" transform="translate(164.794922 0)"/>
      <use xlink:href="#DejaVuSans-3b3" transform="translate(203.808594 0)"/>
      <use xlink:href="#DejaVuSans-3d" transform="translate(262.988281 0)"/>
      <use xlink:href="#DejaVuSans-30" transform="translate(346.777344 0)"/>
      <use xlink:href="#DejaVuSans-29" transform="translate(410.400391 0)"/>
     </g>
    </g>
    <g id="line2d_31">
     <path d="M 392.71625 64.511875 
L 404.71625 64.511875 
L 416.71625 64.511875 
" style="fill: none; stroke: #2563eb; stroke-width: 2; stroke-linecap: square"/>
    </g>
    <g id="text_17">
     <!-- γ=0.5 -->
     <g transform="translate(426.31625 68.711875) scale(0.12 -0.12)">
      <use xlink:href="#DejaVuSans-3b3"/>
      <use xlink:href="#DejaVuSans-3d" transform="translate(59.179688 0)"/>
      <use xlink:href="#DejaVuSans-30" transform="translate(142.96875 0)"/>
      <use xlink:href="#DejaVuSans-2e" transform="translate(206.591797 0)"/>
      <use xlink:href="#DejaVuSans-35" transform="translate(238.378906 0)"/>
     </g>
    </g>
    <g id="line2d_32">
     <path d="M 392.71625 82.125625 
L 404.71625 82.125625 
L 416.71625 82.125625 
" style="fill: none; stroke: #16a34a; stroke-width: 2; stroke-linecap: square"/>
    </g>
    <g id="text_18">
     <!-- γ=1 -->
     <g transform="translate(426.31625 86.325625) scale(0.12 -0.12)">
      <use xlink:href="#DejaVuSans-3b3"/>
      <use xlink:href="#DejaVuSans-3d" transform="translate(59.179688 0)"/>
      <use xlink:href="#DejaVuSans-31" transform="translate(142.96875 0)"/>
     </g>
    </g>
    <g id="line2d_33">
     <path d="M 392.71625 99.739375 
L 404.71625 99.739375 
L 416.71625 99.739375 
" style="fill: none; stroke: #dc2626; stroke-width: 2; stroke-linecap: square"/>
    </g>
    <g id="text_19">
     <!-- γ=2 -->
     <g transform="translate(426.31625 103.939375) scale(0.12 -0.12)">
      <use xlink:href="#DejaVuSans-3b3"/>
      <use xlink:href="#DejaVuSans-3d" transform="translate(59.179688 0)"/>
      <use xlink:href="#DejaVuSans-32" transform="translate(142.96875 0)"/>
     </g>
    </g>
    <g id="line2d_34">
     <path d="M 392.71625 117.353125 
L 404.71625 117.353125 
L 416.71625 117.353125 
" style="fill: none; stroke: #9333ea; stroke-width: 2; stroke-linecap: square"/>
    </g>
    <g id="text_20">
     <!-- γ=5 -->
     <g transform="translate(426.31625 121.553125) scale(0.12 -0.12)">
      <use xlink:href="#DejaVuSans-3b3"/>
      <use xlink:href="#DejaVuSans-3d" transform="translate(59.179688 0)"/>
      <use xlink:href="#DejaVuSans-35" transform="translate(142.96875 0)"/>
     </g>
    </g>
   </g>
  </g>
 </g>
 <defs>
  <clipPath id="p17dbae7bd3">
   <rect x="44.64875" y="31.18" width="446.4" height="277.2"/>
  </clipPath>
 </defs>
</svg>
