<?xml version="1.0" encoding="utf-8" standalone="no"?>
<!DOCTYPE svg PUBLIC "-//W3C//DTD SVG 1.1//EN"
  "http://www.w3.org/Graphics/SVG/1.1/DTD/svg11.dtd">
<svg xmlns:xlink="http://www.w3.org/1999/xlink" width="516.8975pt" height="357.0075pt" viewBox="0 0 516.8975 357.0075" xmlns="http://www.w3.org/2000/svg" version="1.1">
 <metadata>
  <rdf:RDF xmlns:dc="http://purl.org/dc/elements/1.1/" xmlns:cc="http://creativecommons.org/ns#" xmlns:rdf="http://www.w3.org/1999/02/22-rdf-syntax-ns#">
   <cc:Work>
    <dc:type rdf:resource="http://purl.org/dc/dcmitype/StillImage"/>
    <dc:date>2026-06-24T02:40:04.560118</dc:date>
    <dc:format>image/svg+xml</dc:format>
    <dc:creator>
     <cc:Agent>
      <dc:title>Matplotlib v3.10.0, https://matplotlib.org/</dc:title>
     </cc:Agent>
    </dc:creator>
   </cc:Work>
  </rdf:RDF>
 </metadata>
 <defs>
  <style type="text/css">*{stroke-linejoin: round; stroke-linecap: butt}</style>
 </defs>
 <g id="figure_1">
  <g id="patch_1">
   <path d="M 0 357.0075 
L 516.8975 357.0075 
L 516.8975 0 
L 0 0 
z
" style="fill: #ffffff"/>
  </g>
  <g id="axes_1">
   <g id="patch_2">
    <path d="M 56.0975 308.38 
L 502.4975 308.38 
L 502.4975 31.18 
L 56.0975 31.18 
z
" style="fill: #fafafa"/>
   </g>
   <g id="FillBetweenPolyCollection_1">
    <defs>
     <path id="m1bcc353df2" d="M 76.388409 -61.2275 
L 76.388409 -61.2275 
L 78.427696 -61.2275 
L 80.466984 -61.2275 
L 82.506271 -61.2275 
L 84.545558 -61.2275 
L 86.584846 -61.2275 
L 88.624133 -61.2275 
L 90.663421 -61.2275 
L 92.702708 -61.2275 
L 94.741995 -61.2275 
L 96.781283 -61.2275 
L 98.82057 -61.2275 
L 100.859857 -61.2275 
L 102.899145 -61.2275 
L 104.938432 -61.2275 
L 106.977719 -61.2275 
L 109.017007 -61.2275 
L 111.056294 -61.2275 
L 113.095581 -61.2275 
L 115.134869 -61.2275 
L 117.174156 -61.2275 
L 119.213443 -61.2275 
L 121.252731 -61.2275 
L 123.292018 -61.2275 
L 125.331305 -61.2275 
L 127.370593 -61.2275 
L 129.40988 -61.2275 
L 131.449167 -61.2275 
L 133.488455 -61.2275 
L 135.527742 -61.2275 
L 137.567029 -61.2275 
L 139.606317 -61.2275 
L 141.645604 -61.2275 
L 143.684892 -61.2275 
L 145.724179 -61.2275 
L 147.763466 -61.2275 
L 149.802754 -61.2275 
L 151.842041 -61.2275 
L 153.881328 -61.2275 
L 155.920616 -61.2275 
L 157.959903 -61.2275 
L 159.99919 -61.2275 
L 162.038478 -61.2275 
L 164.077765 -61.2275 
L 166.117052 -61.2275 
L 168.15634 -61.2275 
L 170.195627 -61.2275 
L 172.234914 -61.2275 
L 174.274202 -61.2275 
L 176.313489 -61.2275 
L 178.352776 -61.2275 
L 180.392064 -61.2275 
L 182.431351 -61.2275 
L 184.470638 -61.2275 
L 186.509926 -61.2275 
L 188.549213 -61.2275 
L 190.5885 -61.2275 
L 192.627788 -61.2275 
L 194.667075 -61.2275 
L 196.706362 -61.2275 
L 198.74565 -219.194653 
L 200.784937 -219.194653 
L 202.824225 -219.194653 
L 204.863512 -219.194653 
L 206.902799 -219.194653 
L 208.942087 -219.194653 
L 210.981374 -219.194653 
L 213.020661 -219.194653 
L 215.059949 -219.194653 
L 217.099236 -219.194653 
L 219.138523 -219.194653 
L 221.177811 -219.194653 
L 223.217098 -219.194653 
L 225.256385 -219.194653 
L 227.295673 -219.194653 
L 229.33496 -219.194653 
L 231.374247 -219.194653 
L 233.413535 -219.194653 
L 235.452822 -219.194653 
L 237.492109 -219.194653 
L 239.531397 -219.194653 
L 241.570684 -219.194653 
L 243.609971 -219.194653 
L 245.649259 -219.194653 
L 247.688546 -219.194653 
L 249.727833 -219.194653 
L 251.767121 -219.194653 
L 253.806408 -219.194653 
L 255.845696 -219.194653 
L 257.884983 -219.194653 
L 259.92427 -219.194653 
L 261.963558 -219.194653 
L 264.002845 -219.194653 
L 266.042132 -219.194653 
L 268.08142 -219.194653 
L 270.120707 -219.194653 
L 272.159994 -219.194653 
L 274.199282 -219.194653 
L 276.238569 -219.194653 
L 278.277856 -219.194653 
L 280.317144 -219.194653 
L 282.356431 -219.194653 
L 284.395718 -219.194653 
L 286.435006 -219.194653 
L 288.474293 -219.194653 
L 290.51358 -219.194653 
L 292.552868 -219.194653 
L 294.592155 -219.194653 
L 296.631442 -219.194653 
L 298.67073 -219.194653 
L 300.710017 -219.194653 
L 302.749304 -219.194653 
L 304.788592 -219.194653 
L 306.827879 -219.194653 
L 308.867167 -219.194653 
L 310.906454 -219.194653 
L 312.945741 -219.194653 
L 314.985029 -219.194653 
L 317.024316 -219.194653 
L 319.063603 -219.194653 
L 321.102891 -219.194653 
L 323.142178 -219.194653 
L 325.181465 -219.194653 
L 327.220753 -219.194653 
L 329.26004 -219.194653 
L 331.299327 -219.194653 
L 333.338615 -219.194653 
L 335.377902 -219.194653 
L 337.417189 -219.194653 
L 339.456477 -219.194653 
L 341.495764 -219.194653 
L 343.535051 -219.194653 
L 345.574339 -219.194653 
L 347.613626 -219.194653 
L 349.652913 -219.194653 
L 351.692201 -219.194653 
L 353.731488 -219.194653 
L 355.770775 -219.194653 
L 357.810063 -219.194653 
L 359.84935 -219.194653 
L 361.888638 -61.2275 
L 363.927925 -61.2275 
L 365.967212 -61.2275 
L 368.0065 -61.2275 
L 370.045787 -61.2275 
L 372.085074 -61.2275 
L 374.124362 -61.2275 
L 376.163649 -61.2275 
L 378.202936 -61.2275 
L 380.242224 -61.2275 
L 382.281511 -61.2275 
L 384.320798 -61.2275 
L 386.360086 -61.2275 
L 388.399373 -61.2275 
L 390.43866 -61.2275 
L 392.477948 -61.2275 
L 394.517235 -61.2275 
L 396.556522 -61.2275 
L 398.59581 -61.2275 
L 400.635097 -61.2275 
L 402.674384 -61.2275 
L 404.713672 -61.2275 
L 406.752959 -61.2275 
L 408.792246 -61.2275 
L 410.831534 -61.2275 
L 412.870821 -61.2275 
L 414.910108 -61.2275 
L 416.949396 -61.2275 
L 418.988683 -61.2275 
L 421.027971 -61.2275 
L 423.067258 -61.2275 
L 425.106545 -61.2275 
L 427.145833 -61.2275 
L 429.18512 -61.2275 
L 431.224407 -61.2275 
L 433.263695 -61.2275 
L 435.302982 -61.2275 
L 437.342269 -61.2275 
L 439.381557 -61.2275 
L 441.420844 -61.2275 
L 443.460131 -61.2275 
L 445.499419 -61.2275 
L 447.538706 -61.2275 
L 449.577993 -61.2275 
L 451.617281 -61.2275 
L 453.656568 -61.2275 
L 455.695855 -61.2275 
L 457.735143 -61.2275 
L 459.77443 -61.2275 
L 461.813717 -61.2275 
L 463.853005 -61.2275 
L 465.892292 -61.2275 
L 467.931579 -61.2275 
L 469.970867 -61.2275 
L 472.010154 -61.2275 
L 474.049442 -61.2275 
L 476.088729 -61.2275 
L 478.128016 -61.2275 
L 480.167304 -61.2275 
L 482.206591 -61.2275 
L 482.206591 -61.2275 
L 482.206591 -61.2275 
L 480.167304 -61.2275 
L 478.128016 -61.2275 
L 476.088729 -61.2275 
L 474.049442 -61.2275 
L 472.010154 -61.2275 
L 469.970867 -61.2275 
L 467.931579 -61.2275 
L 465.892292 -61.2275 
L 463.853005 -61.2275 
L 461.813717 -61.2275 
L 459.77443 -61.2275 
L 457.735143 -61.2275 
L 455.695855 -61.2275 
L 453.656568 -61.2275 
L 451.617281 -61.2275 
L 449.577993 -61.2275 
L 447.538706 -61.2275 
L 445.499419 -61.2275 
L 443.460131 -61.2275 
L 441.420844 -61.2275 
L 439.381557 -61.2275 
L 437.342269 -61.2275 
L 435.302982 -61.2275 
L 433.263695 -61.2275 
L 431.224407 -61.2275 
L 429.18512 -61.2275 
L 427.145833 -61.2275 
L 425.106545 -61.2275 
L 423.067258 -61.2275 
L 421.027971 -61.2275 
L 418.988683 -61.2275 
L 416.949396 -61.2275 
L 414.910108 -61.2275 
L 412.870821 -61.2275 
L 410.831534 -61.2275 
L 408.792246 -61.2275 
L 406.752959 -61.2275 
L 404.713672 -61.2275 
L 402.674384 -61.2275 
L 400.635097 -61.2275 
L 398.59581 -61.2275 
L 396.556522 -61.2275 
L 394.517235 -61.2275 
L 392.477948 -61.2275 
L 390.43866 -61.2275 
L 388.399373 -61.2275 
L 386.360086 -61.2275 
L 384.320798 -61.2275 
L 382.281511 -61.2275 
L 380.242224 -61.2275 
L 378.202936 -61.2275 
L 376.163649 -61.2275 
L 374.124362 -61.2275 
L 372.085074 -61.2275 
L 370.045787 -61.2275 
L 368.0065 -61.2275 
L 365.967212 -61.2275 
L 363.927925 -61.2275 
L 361.888638 -61.2275 
L 359.84935 -61.2275 
L 357.810063 -61.2275 
L 355.770775 -61.2275 
L 353.731488 -61.2275 
L 351.692201 -61.2275 
L 349.652913 -61.2275 
L 347.613626 -61.2275 
L 345.574339 -61.2275 
L 343.535051 -61.2275 
L 341.495764 -61.2275 
L 339.456477 -61.2275 
L 337.417189 -61.2275 
L 335.377902 -61.2275 
L 333.338615 -61.2275 
L 331.299327 -61.2275 
L 329.26004 -61.2275 
L 327.220753 -61.2275 
L 325.181465 -61.2275 
L 323.142178 -61.2275 
L 321.102891 -61.2275 
L 319.063603 -61.2275 
L 317.024316 -61.2275 
L 314.985029 -61.2275 
L 312.945741 -61.2275 
L 310.906454 -61.2275 
L 308.867167 -61.2275 
L 306.827879 -61.2275 
L 304.788592 -61.2275 
L 302.749304 -61.2275 
L 300.710017 -61.2275 
L 298.67073 -61.2275 
L 296.631442 -61.2275 
L 294.592155 -61.2275 
L 292.552868 -61.2275 
L 290.51358 -61.2275 
L 288.474293 -61.2275 
L 286.435006 -61.2275 
L 284.395718 -61.2275 
L 282.356431 -61.2275 
L 280.317144 -61.2275 
L 278.277856 -61.2275 
L 276.238569 -61.2275 
L 274.199282 -61.2275 
L 272.159994 -61.2275 
L 270.120707 -61.2275 
L 268.08142 -61.2275 
L 266.042132 -61.2275 
L 264.002845 -61.2275 
L 261.963558 -61.2275 
L 259.92427 -61.2275 
L 257.884983 -61.2275 
L 255.845696 -61.2275 
L 253.806408 -61.2275 
L 251.767121 -61.2275 
L 249.727833 -61.2275 
L 247.688546 -61.2275 
L 245.649259 -61.2275 
L 243.609971 -61.2275 
L 241.570684 -61.2275 
L 239.531397 -61.2275 
L 237.492109 -61.2275 
L 235.452822 -61.2275 
L 233.413535 -61.2275 
L 231.374247 -61.2275 
L 229.33496 -61.2275 
L 227.295673 -61.2275 
L 225.256385 -61.2275 
L 223.217098 -61.2275 
L 221.177811 -61.2275 
L 219.138523 -61.2275 
L 217.099236 -61.2275 
L 215.059949 -61.2275 
L 213.020661 -61.2275 
L 210.981374 -61.2275 
L 208.942087 -61.2275 
L 206.902799 -61.2275 
L 204.863512 -61.2275 
L 202.824225 -61.2275 
L 200.784937 -61.2275 
L 198.74565 -61.2275 
L 196.706362 -61.2275 
L 194.667075 -61.2275 
L 192.627788 -61.2275 
L 190.5885 -61.2275 
L 188.549213 -61.2275 
L 186.509926 -61.2275 
L 184.470638 -61.2275 
L 182.431351 -61.2275 
L 180.392064 -61.2275 
L 178.352776 -61.2275 
L 176.313489 -61.2275 
L 174.274202 -61.2275 
L 172.234914 -61.2275 
L 170.195627 -61.2275 
L 168.15634 -61.2275 
L 166.117052 -61.2275 
L 164.077765 -61.2275 
L 162.038478 -61.2275 
L 159.99919 -61.2275 
L 157.959903 -61.2275 
L 155.920616 -61.2275 
L 153.881328 -61.2275 
L 151.842041 -61.2275 
L 149.802754 -61.2275 
L 147.763466 -61.2275 
L 145.724179 -61.2275 
L 143.684892 -61.2275 
L 141.645604 -61.2275 
L 139.606317 -61.2275 
L 137.567029 -61.2275 
L 135.527742 -61.2275 
L 133.488455 -61.2275 
L 131.449167 -61.2275 
L 129.40988 -61.2275 
L 127.370593 -61.2275 
L 125.331305 -61.2275 
L 123.292018 -61.2275 
L 121.252731 -61.2275 
L 119.213443 -61.2275 
L 117.174156 -61.2275 
L 115.134869 -61.2275 
L 113.095581 -61.2275 
L 111.056294 -61.2275 
L 109.017007 -61.2275 
L 106.977719 -61.2275 
L 104.938432 -61.2275 
L 102.899145 -61.2275 
L 100.859857 -61.2275 
L 98.82057 -61.2275 
L 96.781283 -61.2275 
L 94.741995 -61.2275 
L 92.702708 -61.2275 
L 90.663421 -61.2275 
L 88.624133 -61.2275 
L 86.584846 -61.2275 
L 84.545558 -61.2275 
L 82.506271 -61.2275 
L 80.466984 -61.2275 
L 78.427696 -61.2275 
L 76.388409 -61.2275 
z
" style="stroke: #2563eb; stroke-opacity: 0.2"/>
    </defs>
    <g clip-path="url(#pec7e5852e2)">
     <use xlink:href="#m1bcc353df2" x="0" y="357.0075" style="fill: #2563eb; fill-opacity: 0.2; stroke: #2563eb; stroke-opacity: 0.2"/>
    </g>
   </g>
   <g id="matplotlib.axis_1">
    <g id="xtick_1">
     <g id="line2d_1">
      <path d="M 75.981778 308.38 
L 75.981778 31.18 
" clip-path="url(#pec7e5852e2)" style="fill: none; stroke: #b0b0b0; stroke-opacity: 0.3; stroke-width: 0.8; stroke-linecap: square"/>
     </g>
     <g id="line2d_2">
      <defs>
       <path id="md7e8651a8e" d="M 0 0 
L 0 3.5 
" style="stroke: #000000; stroke-width: 0.8"/>
      </defs>
      <g>
       <use xlink:href="#md7e8651a8e" x="75.981778" y="308.38" style="stroke: #000000; stroke-width: 0.8"/>
      </g>
     </g>
     <g id="text_1">
      <!-- 0.0 -->
      <g transform="translate(66.439903 324.498125) scale(0.12 -0.12)">
       <defs>
        <path id="DejaVuSans-30" d="M 2034 4250 
Q 1547 4250 1301 3770 
Q 1056 3291 1056 2328 
Q 1056 1369 1301 889 
Q 1547 409 2034 409 
Q 2525 409 2770 889 
Q 3016 1369 3016 2328 
Q 3016 3291 2770 3770 
Q 2525 4250 2034 4250 
z
M 2034 4750 
Q 2819 4750 3233 4129 
Q 3647 3509 3647 2328 
Q 3647 1150 3233 529 
Q 2819 -91 2034 -91 
Q 1250 -91 836 529 
Q 422 1150 422 2328 
Q 422 3509 836 4129 
Q 1250 4750 2034 4750 
z
" transform="scale(0.015625)"/>
        <path id="DejaVuSans-2e" d="M 684 794 
L 1344 794 
L 1344 0 
L 684 0 
L 684 794 
z
" transform="scale(0.015625)"/>
       </defs>
       <use xlink:href="#DejaVuSans-30"/>
       <use xlink:href="#DejaVuSans-2e" transform="translate(63.623047 0)"/>
       <use xlink:href="#DejaVuSans-30" transform="translate(95.410156 0)"/>
      </g>
     </g>
    </g>
    <g id="xtick_2">
     <g id="line2d_3">
      <path d="M 157.308067 308.38 
L 157.308067 31.18 
" clip-path="url(#pec7e5852e2)" style="fill: none; stroke: #b0b0b0; stroke-opacity: 0.3; stroke-width: 0.8; stroke-linecap: square"/>
     </g>
     <g id="line2d_4">
      <g>
       <use xlink:href="#md7e8651a8e" x="157.308067" y="308.38" style="stroke: #000000; stroke-width: 0.8"/>
      </g>
     </g>
     <g id="text_2">
      <!-- 0.2 -->
      <g transform="translate(147.766192 324.498125) scale(0.12 -0.12)">
       <defs>
        <path id="DejaVuSans-32" d="M 1228 531 
L 3431 531 
L 3431 0 
L 469 0 
L 469 531 
Q 828 903 1448 1529 
Q 2069 2156 2228 2338 
Q 2531 2678 2651 2914 
Q 2772 3150 2772 3378 
Q 2772 3750 2511 3984 
Q 2250 4219 1831 4219 
Q 1534 4219 1204 4116 
Q 875 4013 500 3803 
L 500 4441 
Q 881 4594 1212 4672 
Q 1544 4750 1819 4750 
Q 2544 4750 2975 4387 
Q 3406 4025 3406 3419 
Q 3406 3131 3298 2873 
Q 3191 2616 2906 2266 
Q 2828 2175 2409 1742 
Q 1991 1309 1228 531 
z
" transform="scale(0.015625)"/>
       </defs>
       <use xlink:href="#DejaVuSans-30"/>
       <use xlink:href="#DejaVuSans-2e" transform="translate(63.623047 0)"/>
       <use xlink:href="#DejaVuSans-32" transform="translate(95.410156 0)"/>
      </g>
     </g>
    </g>
    <g id="xtick_3">
     <g id="line2d_5">
      <path d="M 238.634356 308.38 
L 238.634356 31.18 
" clip-path="url(#pec7e5852e2)" style="fill: none; stroke: #b0b0b0; stroke-opacity: 0.3; stroke-width: 0.8; stroke-linecap: square"/>
     </g>
     <g id="line2d_6">
      <g>
       <use xlink:href="#md7e8651a8e" x="238.634356" y="308.38" style="stroke: #000000; stroke-width: 0.8"/>
      </g>
     </g>
     <g id="text_3">
      <!-- 0.4 -->
      <g transform="translate(229.092481 324.498125) scale(0.12 -0.12)">
       <defs>
        <path id="DejaVuSans-34" d="M 2419 4116 
L 825 1625 
L 2419 1625 
L 2419 4116 
z
M 2253 4666 
L 3047 4666 
L 3047 1625 
L 3713 1625 
L 3713 1100 
L 3047 1100 
L 3047 0 
L 2419 0 
L 2419 1100 
L 313 1100 
L 313 1709 
L 2253 4666 
z
" transform="scale(0.015625)"/>
       </defs>
       <use xlink:href="#DejaVuSans-30"/>
       <use xlink:href="#DejaVuSans-2e" transform="translate(63.623047 0)"/>
       <use xlink:href="#DejaVuSans-34" transform="translate(95.410156 0)"/>
      </g>
     </g>
    </g>
    <g id="xtick_4">
     <g id="line2d_7">
      <path d="M 319.960644 308.38 
L 319.960644 31.18 
" clip-path="url(#pec7e5852e2)" style="fill: none; stroke: #b0b0b0; stroke-opacity: 0.3; stroke-width: 0.8; stroke-linecap: square"/>
     </g>
     <g id="line2d_8">
      <g>
       <use xlink:href="#md7e8651a8e" x="319.960644" y="308.38" style="stroke: #000000; stroke-width: 0.8"/>
      </g>
     </g>
     <g id="text_4">
      <!-- 0.6 -->
      <g transform="translate(310.418769 324.498125) scale(0.12 -0.12)">
       <defs>
        <path id="DejaVuSans-36" d="M 2113 2584 
Q 1688 2584 1439 2293 
Q 1191 2003 1191 1497 
Q 1191 994 1439 701 
Q 1688 409 2113 409 
Q 2538 409 2786 701 
Q 3034 994 3034 1497 
Q 3034 2003 2786 2293 
Q 2538 2584 2113 2584 
z
M 3366 4563 
L 3366 3988 
Q 3128 4100 2886 4159 
Q 2644 4219 2406 4219 
Q 1781 4219 1451 3797 
Q 1122 3375 1075 2522 
Q 1259 2794 1537 2939 
Q 1816 3084 2150 3084 
Q 2853 3084 3261 2657 
Q 3669 2231 3669 1497 
Q 3669 778 3244 343 
Q 2819 -91 2113 -91 
Q 1303 -91 875 529 
Q 447 1150 447 2328 
Q 447 3434 972 4092 
Q 1497 4750 2381 4750 
Q 2619 4750 2861 4703 
Q 3103 4656 3366 4563 
z
" transform="scale(0.015625)"/>
       </defs>
       <use xlink:href="#DejaVuSans-30"/>
       <use xlink:href="#DejaVuSans-2e" transform="translate(63.623047 0)"/>
       <use xlink:href="#DejaVuSans-36" transform="translate(95.410156 0)"/>
      </g>
     </g>
    </g>
    <g id="xtick_5">
     <g id="line2d_9">
      <path d="M 401.286933 308.38 
L 401.286933 31.18 
" clip-path="url(#pec7e5852e2)" style="fill: none; stroke: #b0b0b0; stroke-opacity: 0.3; stroke-width: 0.8; stroke-linecap: square"/>
     </g>
     <g id="line2d_10">
      <g>
       <use xlink:href="#md7e8651a8e" x="401.286933" y="308.38" style="stroke: #000000; stroke-width: 0.8"/>
      </g>
     </g>
     <g id="text_5">
      <!-- 0.8 -->
      <g transform="translate(391.745058 324.498125) scale(0.12 -0.12)">
       <defs>
        <path id="DejaVuSans-38" d="M 2034 2216 
Q 1584 2216 1326 1975 
Q 1069 1734 1069 1313 
Q 1069 891 1326 650 
Q 1584 409 2034 409 
Q 2484 409 2743 651 
Q 3003 894 3003 1313 
Q 3003 1734 2745 1975 
Q 2488 2216 2034 2216 
z
M 1403 2484 
Q 997 2584 770 2862 
Q 544 3141 544 3541 
Q 544 4100 942 4425 
Q 1341 4750 2034 4750 
Q 2731 4750 3128 4425 
Q 3525 4100 3525 3541 
Q 3525 3141 3298 2862 
Q 3072 2584 2669 2484 
Q 3125 2378 3379 2068 
Q 3634 1759 3634 1313 
Q 3634 634 3220 271 
Q 2806 -91 2034 -91 
Q 1263 -91 848 271 
Q 434 634 434 1313 
Q 434 1759 690 2068 
Q 947 2378 1403 2484 
z
M 1172 3481 
Q 1172 3119 1398 2916 
Q 1625 2713 2034 2713 
Q 2441 2713 2670 2916 
Q 2900 3119 2900 3481 
Q 2900 3844 2670 4047 
Q 2441 4250 2034 4250 
Q 1625 4250 1398 4047 
Q 1172 3844 1172 3481 
z
" transform="scale(0.015625)"/>
       </defs>
       <use xlink:href="#DejaVuSans-30"/>
       <use xlink:href="#DejaVuSans-2e" transform="translate(63.623047 0)"/>
       <use xlink:href="#DejaVuSans-38" transform="translate(95.410156 0)"/>
      </g>
     </g>
    </g>
    <g id="xtick_6">
     <g id="line2d_11">
      <path d="M 482.613222 308.38 
L 482.613222 31.18 
" clip-path="url(#pec7e5852e2)" style="fill: none; stroke: #b0b0b0; stroke-opacity: 0.3; stroke-width: 0.8; stroke-linecap: square"/>
     </g>
     <g id="line2d_12">
      <g>
       <use xlink:href="#md7e8651a8e" x="482.613222" y="308.38" style="stroke: #000000; stroke-width: 0.8"/>
      </g>
     </g>
     <g id="text_6">
      <!-- 1.0 -->
      <g transform="translate(473.071347 324.498125) scale(0.12 -0.12)">
       <defs>
        <path id="DejaVuSans-31" d="M 794 531 
L 1825 531 
L 1825 4091 
L 703 3866 
L 703 4441 
L 1819 4666 
L 2450 4666 
L 2450 531 
L 3481 531 
L 3481 0 
L 794 0 
L 794 531 
z
" transform="scale(0.015625)"/>
       </defs>
       <use xlink:href="#DejaVuSans-31"/>
       <use xlink:href="#DejaVuSans-2e" transform="translate(63.623047 0)"/>
       <use xlink:href="#DejaVuSans-30" transform="translate(95.410156 0)"/>
      </g>
     </g>
    </g>
    <g id="text_7">
     <!-- $x$ -->
     <g transform="translate(275.6975 340.111875) scale(0.12 -0.12)">
      <defs>
       <path id="DejaVuSans-Oblique-78" d="M 3841 3500 
L 2234 1784 
L 3219 0 
L 2559 0 
L 1819 1388 
L 531 0 
L -166 0 
L 1556 1844 
L 641 3500 
L 1300 3500 
L 1972 2234 
L 3144 3500 
L 3841 3500 
z
" transform="scale(0.015625)"/>
      </defs>
      <use xlink:href="#DejaVuSans-Oblique-78" transform="translate(0 0.3125)"/>
     </g>
    </g>
   </g>
   <g id="matplotlib.axis_2">
    <g id="ytick_1">
     <g id="line2d_13">
      <path d="M 56.0975 295.78 
L 502.4975 295.78 
" clip-path="url(#pec7e5852e2)" style="fill: none; stroke: #b0b0b0; stroke-opacity: 0.3; stroke-width: 0.8; stroke-linecap: square"/>
     </g>
     <g id="line2d_14">
      <defs>
       <path id="m9c08bf4ead" d="M 0 0 
L -3.5 0 
" style="stroke: #000000; stroke-width: 0.8"/>
      </defs>
      <g>
       <use xlink:href="#m9c08bf4ead" x="56.0975" y="295.78" style="stroke: #000000; stroke-width: 0.8"/>
      </g>
     </g>
     <g id="text_8">
      <!-- 0.0 -->
      <g transform="translate(30.01375 300.339063) scale(0.12 -0.12)">
       <use xlink:href="#DejaVuSans-30"/>
       <use xlink:href="#DejaVuSans-2e" transform="translate(63.623047 0)"/>
       <use xlink:href="#DejaVuSans-30" transform="translate(95.410156 0)"/>
      </g>
     </g>
    </g>
    <g id="ytick_2">
     <g id="line2d_15">
      <path d="M 56.0975 264.186569 
L 502.4975 264.186569 
" clip-path="url(#pec7e5852e2)" style="fill: none; stroke: #b0b0b0; stroke-opacity: 0.3; stroke-width: 0.8; stroke-linecap: square"/>
     </g>
     <g id="line2d_16">
      <g>
       <use xlink:href="#m9c08bf4ead" x="56.0975" y="264.186569" style="stroke: #000000; stroke-width: 0.8"/>
      </g>
     </g>
     <g id="text_9">
      <!-- 0.5 -->
      <g transform="translate(30.01375 268.745632) scale(0.12 -0.12)">
       <defs>
        <path id="DejaVuSans-35" d="M 691 4666 
L 3169 4666 
L 3169 4134 
L 1269 4134 
L 1269 2991 
Q 1406 3038 1543 3061 
Q 1681 3084 1819 3084 
Q 2600 3084 3056 2656 
Q 3513 2228 3513 1497 
Q 3513 744 3044 326 
Q 2575 -91 1722 -91 
Q 1428 -91 1123 -41 
Q 819 9 494 109 
L 494 744 
Q 775 591 1075 516 
Q 1375 441 1709 441 
Q 2250 441 2565 725 
Q 2881 1009 2881 1497 
Q 2881 1984 2565 2268 
Q 2250 2553 1709 2553 
Q 1456 2553 1204 2497 
Q 953 2441 691 2322 
L 691 4666 
z
" transform="scale(0.015625)"/>
       </defs>
       <use xlink:href="#DejaVuSans-30"/>
       <use xlink:href="#DejaVuSans-2e" transform="translate(63.623047 0)"/>
       <use xlink:href="#DejaVuSans-35" transform="translate(95.410156 0)"/>
      </g>
     </g>
    </g>
    <g id="ytick_3">
     <g id="line2d_17">
      <path d="M 56.0975 232.593139 
L 502.4975 232.593139 
" clip-path="url(#pec7e5852e2)" style="fill: none; stroke: #b0b0b0; stroke-opacity: 0.3; stroke-width: 0.8; stroke-linecap: square"/>
     </g>
     <g id="line2d_18">
      <g>
       <use xlink:href="#m9c08bf4ead" x="56.0975" y="232.593139" style="stroke: #000000; stroke-width: 0.8"/>
      </g>
     </g>
     <g id="text_10">
      <!-- 1.0 -->
      <g transform="translate(30.01375 237.152201) scale(0.12 -0.12)">
       <use xlink:href="#DejaVuSans-31"/>
       <use xlink:href="#DejaVuSans-2e" transform="translate(63.623047 0)"/>
       <use xlink:href="#DejaVuSans-30" transform="translate(95.410156 0)"/>
      </g>
     </g>
    </g>
    <g id="ytick_4">
     <g id="line2d_19">
      <path d="M 56.0975 200.999708 
L 502.4975 200.999708 
" clip-path="url(#pec7e5852e2)" style="fill: none; stroke: #b0b0b0; stroke-opacity: 0.3; stroke-width: 0.8; stroke-linecap: square"/>
     </g>
     <g id="line2d_20">
      <g>
       <use xlink:href="#m9c08bf4ead" x="56.0975" y="200.999708" style="stroke: #000000; stroke-width: 0.8"/>
      </g>
     </g>
     <g id="text_11">
      <!-- 1.5 -->
      <g transform="translate(30.01375 205.558771) scale(0.12 -0.12)">
       <use xlink:href="#DejaVuSans-31"/>
       <use xlink:href="#DejaVuSans-2e" transform="translate(63.623047 0)"/>
       <use xlink:href="#DejaVuSans-35" transform="translate(95.410156 0)"/>
      </g>
     </g>
    </g>
    <g id="ytick_5">
     <g id="line2d_21">
      <path d="M 56.0975 169.406278 
L 502.4975 169.406278 
" clip-path="url(#pec7e5852e2)" style="fill: none; stroke: #b0b0b0; stroke-opacity: 0.3; stroke-width: 0.8; stroke-linecap: square"/>
     </g>
     <g id="line2d_22">
      <g>
       <use xlink:href="#m9c08bf4ead" x="56.0975" y="169.406278" style="stroke: #000000; stroke-width: 0.8"/>
      </g>
     </g>
     <g id="text_12">
      <!-- 2.0 -->
      <g transform="translate(30.01375 173.96534) scale(0.12 -0.12)">
       <use xlink:href="#DejaVuSans-32"/>
       <use xlink:href="#DejaVuSans-2e" transform="translate(63.623047 0)"/>
       <use xlink:href="#DejaVuSans-30" transform="translate(95.410156 0)"/>
      </g>
     </g>
    </g>
    <g id="ytick_6">
     <g id="line2d_23">
      <path d="M 56.0975 137.812847 
L 502.4975 137.812847 
" clip-path="url(#pec7e5852e2)" style="fill: none; stroke: #b0b0b0; stroke-opacity: 0.3; stroke-width: 0.8; stroke-linecap: square"/>
     </g>
     <g id="line2d_24">
      <g>
       <use xlink:href="#m9c08bf4ead" x="56.0975" y="137.812847" style="stroke: #000000; stroke-width: 0.8"/>
      </g>
     </g>
     <g id="text_13">
      <!-- 2.5 -->
      <g transform="translate(30.01375 142.37191) scale(0.12 -0.12)">
       <use xlink:href="#DejaVuSans-32"/>
       <use xlink:href="#DejaVuSans-2e" transform="translate(63.623047 0)"/>
       <use xlink:href="#DejaVuSans-35" transform="translate(95.410156 0)"/>
      </g>
     </g>
    </g>
    <g id="ytick_7">
     <g id="line2d_25">
      <path d="M 56.0975 106.219417 
L 502.4975 106.219417 
" clip-path="url(#pec7e5852e2)" style="fill: none; stroke: #b0b0b0; stroke-opacity: 0.3; stroke-width: 0.8; stroke-linecap: square"/>
     </g>
     <g id="line2d_26">
      <g>
       <use xlink:href="#m9c08bf4ead" x="56.0975" y="106.219417" style="stroke: #000000; stroke-width: 0.8"/>
      </g>
     </g>
     <g id="text_14">
      <!-- 3.0 -->
      <g transform="translate(30.01375 110.778479) scale(0.12 -0.12)">
       <defs>
        <path id="DejaVuSans-33" d="M 2597 2516 
Q 3050 2419 3304 2112 
Q 3559 1806 3559 1356 
Q 3559 666 3084 287 
Q 2609 -91 1734 -91 
Q 1441 -91 1130 -33 
Q 819 25 488 141 
L 488 750 
Q 750 597 1062 519 
Q 1375 441 1716 441 
Q 2309 441 2620 675 
Q 2931 909 2931 1356 
Q 2931 1769 2642 2001 
Q 2353 2234 1838 2234 
L 1294 2234 
L 1294 2753 
L 1863 2753 
Q 2328 2753 2575 2939 
Q 2822 3125 2822 3475 
Q 2822 3834 2567 4026 
Q 2313 4219 1838 4219 
Q 1578 4219 1281 4162 
Q 984 4106 628 3988 
L 628 4550 
Q 988 4650 1302 4700 
Q 1616 4750 1894 4750 
Q 2613 4750 3031 4423 
Q 3450 4097 3450 3541 
Q 3450 3153 3228 2886 
Q 3006 2619 2597 2516 
z
" transform="scale(0.015625)"/>
       </defs>
       <use xlink:href="#DejaVuSans-33"/>
       <use xlink:href="#DejaVuSans-2e" transform="translate(63.623047 0)"/>
       <use xlink:href="#DejaVuSans-30" transform="translate(95.410156 0)"/>
      </g>
     </g>
    </g>
    <g id="ytick_8">
     <g id="line2d_27">
      <path d="M 56.0975 74.625986 
L 502.4975 74.625986 
" clip-path="url(#pec7e5852e2)" style="fill: none; stroke: #b0b0b0; stroke-opacity: 0.3; stroke-width: 0.8; stroke-linecap: square"/>
     </g>
     <g id="line2d_28">
      <g>
       <use xlink:href="#m9c08bf4ead" x="56.0975" y="74.625986" style="stroke: #000000; stroke-width: 0.8"/>
      </g>
     </g>
     <g id="text_15">
      <!-- 3.5 -->
      <g transform="translate(30.01375 79.185048) scale(0.12 -0.12)">
       <use xlink:href="#DejaVuSans-33"/>
       <use xlink:href="#DejaVuSans-2e" transform="translate(63.623047 0)"/>
       <use xlink:href="#DejaVuSans-35" transform="translate(95.410156 0)"/>
      </g>
     </g>
    </g>
    <g id="ytick_9">
     <g id="line2d_29">
      <path d="M 56.0975 43.032555 
L 502.4975 43.032555 
" clip-path="url(#pec7e5852e2)" style="fill: none; stroke: #b0b0b0; stroke-opacity: 0.3; stroke-width: 0.8; stroke-linecap: square"/>
     </g>
     <g id="line2d_30">
      <g>
       <use xlink:href="#m9c08bf4ead" x="56.0975" y="43.032555" style="stroke: #000000; stroke-width: 0.8"/>
      </g>
     </g>
     <g id="text_16">
      <!-- 4.0 -->
      <g transform="translate(30.01375 47.591618) scale(0.12 -0.12)">
       <use xlink:href="#DejaVuSans-34"/>
       <use xlink:href="#DejaVuSans-2e" transform="translate(63.623047 0)"/>
       <use xlink:href="#DejaVuSans-30" transform="translate(95.410156 0)"/>
      </g>
     </g>
    </g>
    <g id="text_17">
     <!-- Probability density -->
     <g transform="translate(23.518125 225.400938) rotate(-90) scale(0.12 -0.12)">
      <defs>
       <path id="DejaVuSans-50" d="M 1259 4147 
L 1259 2394 
L 2053 2394 
Q 2494 2394 2734 2622 
Q 2975 2850 2975 3272 
Q 2975 3691 2734 3919 
Q 2494 4147 2053 4147 
L 1259 4147 
z
M 628 4666 
L 2053 4666 
Q 2838 4666 3239 4311 
Q 3641 3956 3641 3272 
Q 3641 2581 3239 2228 
Q 2838 1875 2053 1875 
L 1259 1875 
L 1259 0 
L 628 0 
L 628 4666 
z
" transform="scale(0.015625)"/>
       <path id="DejaVuSans-72" d="M 2631 2963 
Q 2534 3019 2420 3045 
Q 2306 3072 2169 3072 
Q 1681 3072 1420 2755 
Q 1159 2438 1159 1844 
L 1159 0 
L 581 0 
L 581 3500 
L 1159 3500 
L 1159 2956 
Q 1341 3275 1631 3429 
Q 1922 3584 2338 3584 
Q 2397 3584 2469 3576 
Q 2541 3569 2628 3553 
L 2631 2963 
z
" transform="scale(0.015625)"/>
       <path id="DejaVuSans-6f" d="M 1959 3097 
Q 1497 3097 1228 2736 
Q 959 2375 959 1747 
Q 959 1119 1226 758 
Q 1494 397 1959 397 
Q 2419 397 2687 759 
Q 2956 1122 2956 1747 
Q 2956 2369 2687 2733 
Q 2419 3097 1959 3097 
z
M 1959 3584 
Q 2709 3584 3137 3096 
Q 3566 2609 3566 1747 
Q 3566 888 3137 398 
Q 2709 -91 1959 -91 
Q 1206 -91 779 398 
Q 353 888 353 1747 
Q 353 2609 779 3096 
Q 1206 3584 1959 3584 
z
" transform="scale(0.015625)"/>
       <path id="DejaVuSans-62" d="M 3116 1747 
Q 3116 2381 2855 2742 
Q 2594 3103 2138 3103 
Q 1681 3103 1420 2742 
Q 1159 2381 1159 1747 
Q 1159 1113 1420 752 
Q 1681 391 2138 391 
Q 2594 391 2855 752 
Q 3116 1113 3116 1747 
z
M 1159 2969 
Q 1341 3281 1617 3432 
Q 1894 3584 2278 3584 
Q 2916 3584 3314 3078 
Q 3713 2572 3713 1747 
Q 3713 922 3314 415 
Q 2916 -91 2278 -91 
Q 1894 -91 1617 61 
Q 1341 213 1159 525 
L 1159 0 
L 581 0 
L 581 4863 
L 1159 4863 
L 1159 2969 
z
" transform="scale(0.015625)"/>
       <path id="DejaVuSans-61" d="M 2194 1759 
Q 1497 1759 1228 1600 
Q 959 1441 959 1056 
Q 959 750 1161 570 
Q 1363 391 1709 391 
Q 2188 391 2477 730 
Q 2766 1069 2766 1631 
L 2766 1759 
L 2194 1759 
z
M 3341 1997 
L 3341 0 
L 2766 0 
L 2766 531 
Q 2569 213 2275 61 
Q 1981 -91 1556 -91 
Q 1019 -91 701 211 
Q 384 513 384 1019 
Q 384 1609 779 1909 
Q 1175 2209 1959 2209 
L 2766 2209 
L 2766 2266 
Q 2766 2663 2505 2880 
Q 2244 3097 1772 3097 
Q 1472 3097 1187 3025 
Q 903 2953 641 2809 
L 641 3341 
Q 956 3463 1253 3523 
Q 1550 3584 1831 3584 
Q 2591 3584 2966 3190 
Q 3341 2797 3341 1997 
z
" transform="scale(0.015625)"/>
       <path id="DejaVuSans-69" d="M 603 3500 
L 1178 3500 
L 1178 0 
L 603 0 
L 603 3500 
z
M 603 4863 
L 1178 4863 
L 1178 4134 
L 603 4134 
L 603 4863 
z
" transform="scale(0.015625)"/>
       <path id="DejaVuSans-6c" d="M 603 4863 
L 1178 4863 
L 1178 0 
L 603 0 
L 603 4863 
z
" transform="scale(0.015625)"/>
       <path id="DejaVuSans-74" d="M 1172 4494 
L 1172 3500 
L 2356 3500 
L 2356 3053 
L 1172 3053 
L 1172 1153 
Q 1172 725 1289 603 
Q 1406 481 1766 481 
L 2356 481 
L 2356 0 
L 1766 0 
Q 1100 0 847 248 
Q 594 497 594 1153 
L 594 3053 
L 172 3053 
L 172 3500 
L 594 3500 
L 594 4494 
L 1172 4494 
z
" transform="scale(0.015625)"/>
       <path id="DejaVuSans-79" d="M 2059 -325 
Q 1816 -950 1584 -1140 
Q 1353 -1331 966 -1331 
L 506 -1331 
L 506 -850 
L 844 -850 
Q 1081 -850 1212 -737 
Q 1344 -625 1503 -206 
L 1606 56 
L 191 3500 
L 800 3500 
L 1894 763 
L 2988 3500 
L 3597 3500 
L 2059 -325 
z
" transform="scale(0.015625)"/>
       <path id="DejaVuSans-20" transform="scale(0.015625)"/>
       <path id="DejaVuSans-64" d="M 2906 2969 
L 2906 4863 
L 3481 4863 
L 3481 0 
L 2906 0 
L 2906 525 
Q 2725 213 2448 61 
Q 2172 -91 1784 -91 
Q 1150 -91 751 415 
Q 353 922 353 1747 
Q 353 2572 751 3078 
Q 1150 3584 1784 3584 
Q 2172 3584 2448 3432 
Q 2725 3281 2906 2969 
z
M 947 1747 
Q 947 1113 1208 752 
Q 1469 391 1925 391 
Q 2381 391 2643 752 
Q 2906 1113 2906 1747 
Q 2906 2381 2643 2742 
Q 2381 3103 1925 3103 
Q 1469 3103 1208 2742 
Q 947 2381 947 1747 
z
" transform="scale(0.015625)"/>
       <path id="DejaVuSans-65" d="M 3597 1894 
L 3597 1613 
L 953 1613 
Q 991 1019 1311 708 
Q 1631 397 2203 397 
Q 2534 397 2845 478 
Q 3156 559 3463 722 
L 3463 178 
Q 3153 47 2828 -22 
Q 2503 -91 2169 -91 
Q 1331 -91 842 396 
Q 353 884 353 1716 
Q 353 2575 817 3079 
Q 1281 3584 2069 3584 
Q 2775 3584 3186 3129 
Q 3597 2675 3597 1894 
z
M 3022 2063 
Q 3016 2534 2758 2815 
Q 2500 3097 2075 3097 
Q 1594 3097 1305 2825 
Q 1016 2553 972 2059 
L 3022 2063 
z
" transform="scale(0.015625)"/>
       <path id="DejaVuSans-6e" d="M 3513 2113 
L 3513 0 
L 2938 0 
L 2938 2094 
Q 2938 2591 2744 2837 
Q 2550 3084 2163 3084 
Q 1697 3084 1428 2787 
Q 1159 2491 1159 1978 
L 1159 0 
L 581 0 
L 581 3500 
L 1159 3500 
L 1159 2956 
Q 1366 3272 1645 3428 
Q 1925 3584 2291 3584 
Q 2894 3584 3203 3211 
Q 3513 2838 3513 2113 
z
" transform="scale(0.015625)"/>
       <path id="DejaVuSans-73" d="M 2834 3397 
L 2834 2853 
Q 2591 2978 2328 3040 
Q 2066 3103 1784 3103 
Q 1356 3103 1142 2972 
Q 928 2841 928 2578 
Q 928 2378 1081 2264 
Q 1234 2150 1697 2047 
L 1894 2003 
Q 2506 1872 2764 1633 
Q 3022 1394 3022 966 
Q 3022 478 2636 193 
Q 2250 -91 1575 -91 
Q 1294 -91 989 -36 
Q 684 19 347 128 
L 347 722 
Q 666 556 975 473 
Q 1284 391 1588 391 
Q 1994 391 2212 530 
Q 2431 669 2431 922 
Q 2431 1156 2273 1281 
Q 2116 1406 1581 1522 
L 1381 1569 
Q 847 1681 609 1914 
Q 372 2147 372 2553 
Q 372 3047 722 3315 
Q 1072 3584 1716 3584 
Q 2034 3584 2315 3537 
Q 2597 3491 2834 3397 
z
" transform="scale(0.015625)"/>
      </defs>
      <use xlink:href="#DejaVuSans-50"/>
      <use xlink:href="#DejaVuSans-72" transform="translate(58.552734 0)"/>
      <use xlink:href="#DejaVuSans-6f" transform="translate(97.416016 0)"/>
      <use xlink:href="#DejaVuSans-62" transform="translate(158.597656 0)"/>
      <use xlink:href="#DejaVuSans-61" transform="translate(222.074219 0)"/>
      <use xlink:href="#DejaVuSans-62" transform="translate(283.353516 0)"/>
      <use xlink:href="#DejaVuSans-69" transform="translate(346.830078 0)"/>
      <use xlink:href="#DejaVuSans-6c" transform="translate(374.613281 0)"/>
      <use xlink:href="#DejaVuSans-69" transform="translate(402.396484 0)"/>
      <use xlink:href="#DejaVuSans-74" transform="translate(430.179688 0)"/>
      <use xlink:href="#DejaVuSans-79" transform="translate(469.388672 0)"/>
      <use xlink:href="#DejaVuSans-20" transform="translate(528.568359 0)"/>
      <use xlink:href="#DejaVuSans-64" transform="translate(560.355469 0)"/>
      <use xlink:href="#DejaVuSans-65" transform="translate(623.832031 0)"/>
      <use xlink:href="#DejaVuSans-6e" transform="translate(685.355469 0)"/>
      <use xlink:href="#DejaVuSans-73" transform="translate(748.734375 0)"/>
      <use xlink:href="#DejaVuSans-69" transform="translate(800.833984 0)"/>
      <use xlink:href="#DejaVuSans-74" transform="translate(828.617188 0)"/>
      <use xlink:href="#DejaVuSans-79" transform="translate(867.826172 0)"/>
     </g>
    </g>
   </g>
   <g id="line2d_31">
    <path d="M 76.388409 295.78 
L 196.706362 295.78 
L 198.74565 137.812847 
L 359.84935 137.812847 
L 361.888638 295.78 
L 482.206591 295.78 
L 482.206591 295.78 
" clip-path="url(#pec7e5852e2)" style="fill: none; stroke: #2563eb; stroke-width: 2; stroke-linecap: square"/>
   </g>
   <g id="line2d_32">
    <path d="M 76.388409 295.779012 
L 119.213443 295.671346 
L 131.449167 295.440489 
L 139.606317 295.08995 
L 145.724179 294.635985 
L 151.842041 293.92582 
L 155.920616 293.253589 
L 159.99919 292.3721 
L 164.077765 291.229066 
L 168.15634 289.763484 
L 172.234914 287.905546 
L 174.274202 286.805305 
L 176.313489 285.577028 
L 178.352776 284.209787 
L 180.392064 282.692289 
L 182.431351 281.012949 
L 184.470638 279.159979 
L 186.509926 277.121486 
L 188.549213 274.885584 
L 190.5885 272.440522 
L 192.627788 269.774826 
L 194.667075 266.877456 
L 196.706362 263.737965 
L 198.74565 260.346682 
L 200.784937 256.694897 
L 202.824225 252.775055 
L 204.863512 248.580951 
L 206.902799 244.107936 
L 208.942087 239.353116 
L 213.020661 228.996417 
L 217.099236 217.530028 
L 221.177811 205.012685 
L 225.256385 191.546909 
L 229.33496 177.281577 
L 235.452822 154.824896 
L 245.649259 116.781801 
L 249.727833 102.267176 
L 253.806408 88.669714 
L 257.884983 76.335645 
L 259.92427 70.746412 
L 261.963558 65.594488 
L 264.002845 60.916066 
L 266.042132 56.744512 
L 268.08142 53.109971 
L 270.120707 50.039007 
L 272.159994 47.554279 
L 274.199282 45.674259 
L 276.238569 44.413008 
L 278.277856 43.78 
L 280.317144 43.78 
L 282.356431 44.413008 
L 284.395718 45.674259 
L 286.435006 47.554279 
L 288.474293 50.039007 
L 290.51358 53.109971 
L 292.552868 56.744512 
L 294.592155 60.916066 
L 296.631442 65.594488 
L 298.67073 70.746412 
L 300.710017 76.335645 
L 302.749304 82.323597 
L 306.827879 95.33194 
L 310.906454 109.431735 
L 317.024316 131.865113 
L 327.220753 169.908441 
L 331.299327 184.503043 
L 335.377902 198.390149 
L 339.456477 211.397384 
L 343.535051 223.399247 
L 347.613626 234.315544 
L 351.692201 244.107936 
L 353.731488 248.580951 
L 355.770775 252.775055 
L 357.810063 256.694897 
L 359.84935 260.346682 
L 361.888638 263.737965 
L 363.927925 266.877456 
L 365.967212 269.774826 
L 368.0065 272.440522 
L 370.045787 274.885584 
L 372.085074 277.121486 
L 374.124362 279.159979 
L 376.163649 281.012949 
L 378.202936 282.692289 
L 380.242224 284.209787 
L 382.281511 285.577028 
L 386.360086 287.905546 
L 390.43866 289.763484 
L 394.517235 291.229066 
L 398.59581 292.3721 
L 402.674384 293.253589 
L 406.752959 293.92582 
L 412.870821 294.635985 
L 418.988683 295.08995 
L 427.145833 295.440489 
L 439.381557 295.671346 
L 459.77443 295.766696 
L 482.206591 295.779012 
L 482.206591 295.779012 
" clip-path="url(#pec7e5852e2)" style="fill: none; stroke: #16a34a; stroke-width: 2; stroke-linecap: square"/>
   </g>
   <g id="line2d_33">
    <path d="M 76.388409 272.510359 
L 86.584846 269.132766 
L 96.781283 265.47736 
L 106.977719 261.560423 
L 117.174156 257.406213 
L 129.40988 252.15438 
L 143.684892 245.752257 
L 186.509926 226.287613 
L 196.706362 221.984327 
L 204.863512 218.739117 
L 213.020661 215.710015 
L 221.177811 212.933076 
L 229.33496 210.442253 
L 235.452822 208.780767 
L 241.570684 207.309725 
L 247.688546 206.039799 
L 253.806408 204.980301 
L 259.92427 204.139071 
L 266.042132 203.522376 
L 272.159994 203.134836 
L 278.277856 202.979365 
L 284.395718 203.057133 
L 290.51358 203.367555 
L 296.631442 203.908295 
L 302.749304 204.675296 
L 308.867167 205.662833 
L 314.985029 206.863581 
L 321.102891 208.268706 
L 327.220753 209.867975 
L 333.338615 211.649879 
L 341.495764 214.287846 
L 349.652913 217.195258 
L 357.810063 220.337025 
L 368.0065 224.537558 
L 380.242224 229.88117 
L 396.556522 237.31 
L 425.106545 250.350321 
L 437.342269 255.685102 
L 447.538706 259.925577 
L 457.735143 263.940794 
L 467.931579 267.703203 
L 478.128016 271.193384 
L 482.206591 272.510359 
L 482.206591 272.510359 
" clip-path="url(#pec7e5852e2)" style="fill: none; stroke-dasharray: 7.4,3.2; stroke-dashoffset: 0; stroke: #dc2626; stroke-width: 2"/>
   </g>
   <g id="patch_3">
    <path d="M 56.0975 308.38 
L 56.0975 31.18 
" style="fill: none; stroke: #000000; stroke-width: 0.8; stroke-linejoin: miter; stroke-linecap: square"/>
   </g>
   <g id="patch_4">
    <path d="M 502.4975 308.38 
L 502.4975 31.18 
" style="fill: none; stroke: #000000; stroke-width: 0.8; stroke-linejoin: miter; stroke-linecap: square"/>
   </g>
   <g id="patch_5">
    <path d="M 56.0975 308.38 
L 502.4975 308.38 
" style="fill: none; stroke: #000000; stroke-width: 0.8; stroke-linejoin: miter; stroke-linecap: square"/>
   </g>
   <g id="patch_6">
    <path d="M 56.0975 31.18 
L 502.4975 31.18 
" style="fill: none; stroke: #000000; stroke-width: 0.8; stroke-linejoin: miter; stroke-linecap: square"/>
   </g>
   <g id="text_18">
    <!-- KL Divergence: $D_{KL}(P \| Q)$ -->
    <g transform="translate(193.7575 25.18) scale(0.14 -0.14)">
     <defs>
      <path id="DejaVuSans-4b" d="M 628 4666 
L 1259 4666 
L 1259 2694 
L 3353 4666 
L 4166 4666 
L 1850 2491 
L 4331 0 
L 3500 0 
L 1259 2247 
L 1259 0 
L 628 0 
L 628 4666 
z
" transform="scale(0.015625)"/>
      <path id="DejaVuSans-4c" d="M 628 4666 
L 1259 4666 
L 1259 531 
L 3531 531 
L 3531 0 
L 628 0 
L 628 4666 
z
" transform="scale(0.015625)"/>
      <path id="DejaVuSans-44" d="M 1259 4147 
L 1259 519 
L 2022 519 
Q 2988 519 3436 956 
Q 3884 1394 3884 2338 
Q 3884 3275 3436 3711 
Q 2988 4147 2022 4147 
L 1259 4147 
z
M 628 4666 
L 1925 4666 
Q 3281 4666 3915 4102 
Q 4550 3538 4550 2338 
Q 4550 1131 3912 565 
Q 3275 0 1925 0 
L 628 0 
L 628 4666 
z
" transform="scale(0.015625)"/>
      <path id="DejaVuSans-76" d="M 191 3500 
L 800 3500 
L 1894 563 
L 2988 3500 
L 3597 3500 
L 2284 0 
L 1503 0 
L 191 3500 
z
" transform="scale(0.015625)"/>
      <path id="DejaVuSans-67" d="M 2906 1791 
Q 2906 2416 2648 2759 
Q 2391 3103 1925 3103 
Q 1463 3103 1205 2759 
Q 947 2416 947 1791 
Q 947 1169 1205 825 
Q 1463 481 1925 481 
Q 2391 481 2648 825 
Q 2906 1169 2906 1791 
z
M 3481 434 
Q 3481 -459 3084 -895 
Q 2688 -1331 1869 -1331 
Q 1566 -1331 1297 -1286 
Q 1028 -1241 775 -1147 
L 775 -588 
Q 1028 -725 1275 -790 
Q 1522 -856 1778 -856 
Q 2344 -856 2625 -561 
Q 2906 -266 2906 331 
L 2906 616 
Q 2728 306 2450 153 
Q 2172 0 1784 0 
Q 1141 0 747 490 
Q 353 981 353 1791 
Q 353 2603 747 3093 
Q 1141 3584 1784 3584 
Q 2172 3584 2450 3431 
Q 2728 3278 2906 2969 
L 2906 3500 
L 3481 3500 
L 3481 434 
z
" transform="scale(0.015625)"/>
      <path id="DejaVuSans-63" d="M 3122 3366 
L 3122 2828 
Q 2878 2963 2633 3030 
Q 2388 3097 2138 3097 
Q 1578 3097 1268 2742 
Q 959 2388 959 1747 
Q 959 1106 1268 751 
Q 1578 397 2138 397 
Q 2388 397 2633 464 
Q 2878 531 3122 666 
L 3122 134 
Q 2881 22 2623 -34 
Q 2366 -91 2075 -91 
Q 1284 -91 818 406 
Q 353 903 353 1747 
Q 353 2603 823 3093 
Q 1294 3584 2113 3584 
Q 2378 3584 2631 3529 
Q 2884 3475 3122 3366 
z
" transform="scale(0.015625)"/>
      <path id="DejaVuSans-3a" d="M 750 794 
L 1409 794 
L 1409 0 
L 750 0 
L 750 794 
z
M 750 3309 
L 1409 3309 
L 1409 2516 
L 750 2516 
L 750 3309 
z
" transform="scale(0.015625)"/>
      <path id="DejaVuSans-Oblique-44" d="M 1081 4666 
L 2438 4666 
Q 3519 4666 4070 4208 
Q 4622 3750 4622 2847 
Q 4622 2250 4412 1698 
Q 4203 1147 3834 769 
Q 3463 381 2891 190 
Q 2319 0 1538 0 
L 172 0 
L 1081 4666 
z
M 1613 4147 
L 909 519 
L 1734 519 
Q 2794 519 3375 1128 
Q 3956 1738 3956 2847 
Q 3956 3519 3581 3833 
Q 3206 4147 2406 4147 
L 1613 4147 
z
" transform="scale(0.015625)"/>
      <path id="DejaVuSans-Oblique-4b" d="M 1081 4666 
L 1716 4666 
L 1331 2700 
L 3781 4666 
L 4622 4666 
L 1850 2438 
L 3878 0 
L 3109 0 
L 1247 2272 
L 806 0 
L 172 0 
L 1081 4666 
z
" transform="scale(0.015625)"/>
      <path id="DejaVuSans-Oblique-4c" d="M 1075 4666 
L 1709 4666 
L 909 525 
L 3181 525 
L 3078 0 
L 172 0 
L 1075 4666 
z
" transform="scale(0.015625)"/>
      <path id="DejaVuSans-28" d="M 1984 4856 
Q 1566 4138 1362 3434 
Q 1159 2731 1159 2009 
Q 1159 1288 1364 580 
Q 1569 -128 1984 -844 
L 1484 -844 
Q 1016 -109 783 600 
Q 550 1309 550 2009 
Q 550 2706 781 3412 
Q 1013 4119 1484 4856 
L 1984 4856 
z
" transform="scale(0.015625)"/>
      <path id="DejaVuSans-Oblique-50" d="M 1081 4666 
L 2541 4666 
Q 3178 4666 3512 4369 
Q 3847 4072 3847 3500 
Q 3847 2731 3353 2303 
Q 2859 1875 1966 1875 
L 1172 1875 
L 806 0 
L 172 0 
L 1081 4666 
z
M 1613 4147 
L 1275 2394 
L 2069 2394 
Q 2606 2394 2893 2669 
Q 3181 2944 3181 3456 
Q 3181 3784 2986 3965 
Q 2791 4147 2438 4147 
L 1613 4147 
z
" transform="scale(0.015625)"/>
      <path id="DejaVuSans-2016" d="M 1344 4891 
L 1344 -1509 
L 813 -1509 
L 813 4891 
L 1344 4891 
z
M 2375 4891 
L 2375 -1509 
L 1844 -1509 
L 1844 4891 
L 2375 4891 
z
" transform="scale(0.015625)"/>
      <path id="DejaVuSans-Oblique-51" d="M 2309 -84 
Q 2275 -88 2237 -89 
Q 2200 -91 2125 -91 
Q 1250 -91 756 411 
Q 263 913 263 1797 
Q 263 2319 452 2844 
Q 641 3369 978 3788 
Q 1369 4269 1858 4509 
Q 2347 4750 2938 4750 
Q 3794 4750 4287 4245 
Q 4781 3741 4781 2869 
Q 4781 1928 4265 1147 
Q 3750 366 2919 44 
L 3553 -825 
L 2847 -825 
L 2309 -84 
z
M 2919 4238 
Q 2400 4238 2003 3986 
Q 1606 3734 1313 3219 
Q 1125 2891 1026 2522 
Q 928 2153 928 1778 
Q 928 1128 1239 775 
Q 1550 422 2119 422 
Q 2631 422 3032 676 
Q 3434 931 3719 1434 
Q 3909 1772 4009 2142 
Q 4109 2513 4109 2881 
Q 4109 3528 3796 3883 
Q 3484 4238 2919 4238 
z
" transform="scale(0.015625)"/>
      <path id="DejaVuSans-29" d="M 513 4856 
L 1013 4856 
Q 1481 4119 1714 3412 
Q 1947 2706 1947 2009 
Q 1947 1309 1714 600 
Q 1481 -109 1013 -844 
L 513 -844 
Q 928 -128 1133 580 
Q 1338 1288 1338 2009 
Q 1338 2731 1133 3434 
Q 928 4138 513 4856 
z
" transform="scale(0.015625)"/>
     </defs>
     <use xlink:href="#DejaVuSans-4b" transform="translate(0 0.578125)"/>
     <use xlink:href="#DejaVuSans-4c" transform="translate(65.576172 0.578125)"/>
     <use xlink:href="#DejaVuSans-20" transform="translate(121.289062 0.578125)"/>
     <use xlink:href="#DejaVuSans-44" transform="translate(153.076172 0.578125)"/>
     <use xlink:href="#DejaVuSans-69" transform="translate(230.078125 0.578125)"/>
     <use xlink:href="#DejaVuSans-76" transform="translate(257.861328 0.578125)"/>
     <use xlink:href="#DejaVuSans-65" transform="translate(317.041016 0.578125)"/>
     <use xlink:href="#DejaVuSans-72" transform="translate(378.564453 0.578125)"/>
     <use xlink:href="#DejaVuSans-67" transform="translate(419.677734 0.578125)"/>
     <use xlink:href="#DejaVuSans-65" transform="translate(483.154297 0.578125)"/>
     <use xlink:href="#DejaVuSans-6e" transform="translate(544.677734 0.578125)"/>
     <use xlink:href="#DejaVuSans-63" transform="translate(608.056641 0.578125)"/>
     <use xlink:href="#DejaVuSans-65" transform="translate(663.037109 0.578125)"/>
     <use xlink:href="#DejaVuSans-3a" transform="translate(724.560547 0.578125)"/>
     <use xlink:href="#DejaVuSans-20" transform="translate(758.251953 0.578125)"/>
     <use xlink:href="#DejaVuSans-Oblique-44" transform="translate(790.039062 0.578125)"/>
     <use xlink:href="#DejaVuSans-Oblique-4b" transform="translate(867.041016 -15.828125) scale(0.7)"/>
     <use xlink:href="#DejaVuSans-Oblique-4c" transform="translate(912.944336 -15.828125) scale(0.7)"/>
     <use xlink:href="#DejaVuSans-28" transform="translate(954.677734 0.578125)"/>
     <use xlink:href="#DejaVuSans-Oblique-50" transform="translate(993.691406 0.578125)"/>
     <use xlink:href="#DejaVuSans-2016" transform="translate(1053.994141 0.578125)"/>
     <use xlink:href="#DejaVuSans-Oblique-51" transform="translate(1103.994141 0.578125)"/>
     <use xlink:href="#DejaVuSans-29" transform="translate(1182.705078 0.578125)"/>
    </g>
   </g>
   <g id="legend_1">
    <g id="patch_7">
     <path d="M 396.4175 93.62125 
L 494.0975 93.62125 
Q 496.4975 93.62125 496.4975 91.22125 
L 496.4975 39.58 
Q 496.4975 37.18 494.0975 37.18 
L 396.4175 37.18 
Q 394.0175 37.18 394.0175 39.58 
L 394.0175 91.22125 
Q 394.0175 93.62125 396.4175 93.62125 
z
" style="fill: #fafafa; opacity: 0.8; stroke: #cccccc; stroke-linejoin: miter"/>
    </g>
    <g id="patch_8">
     <path d="M 398.8175 51.098125 
L 422.8175 51.098125 
L 422.8175 42.698125 
L 398.8175 42.698125 
z
" style="fill: #2563eb; fill-opacity: 0.2; stroke: #2563eb; stroke-opacity: 0.2; stroke-linejoin: miter"/>
    </g>
    <g id="text_19">
     <!-- $P$ (true) -->
     <g transform="translate(432.4175 51.098125) scale(0.12 -0.12)">
      <defs>
       <path id="DejaVuSans-75" d="M 544 1381 
L 544 3500 
L 1119 3500 
L 1119 1403 
Q 1119 906 1312 657 
Q 1506 409 1894 409 
Q 2359 409 2629 706 
Q 2900 1003 2900 1516 
L 2900 3500 
L 3475 3500 
L 3475 0 
L 2900 0 
L 2900 538 
Q 2691 219 2414 64 
Q 2138 -91 1772 -91 
Q 1169 -91 856 284 
Q 544 659 544 1381 
z
M 1991 3584 
L 1991 3584 
z
" transform="scale(0.015625)"/>
      </defs>
      <use xlink:href="#DejaVuSans-Oblique-50" transform="translate(0 0.125)"/>
      <use xlink:href="#DejaVuSans-20" transform="translate(60.302734 0.125)"/>
      <use xlink:href="#DejaVuSans-28" transform="translate(92.089844 0.125)"/>
      <use xlink:href="#DejaVuSans-74" transform="translate(131.103516 0.125)"/>
      <use xlink:href="#DejaVuSans-72" transform="translate(170.3125 0.125)"/>
      <use xlink:href="#DejaVuSans-75" transform="translate(211.425781 0.125)"/>
      <use xlink:href="#DejaVuSans-65" transform="translate(274.804688 0.125)"/>
      <use xlink:href="#DejaVuSans-29" transform="translate(336.328125 0.125)"/>
     </g>
    </g>
    <g id="line2d_34">
     <path d="M 398.8175 64.511875 
L 410.8175 64.511875 
L 422.8175 64.511875 
" style="fill: none; stroke: #16a34a; stroke-width: 2; stroke-linecap: square"/>
    </g>
    <g id="text_20">
     <!-- $Q_1$ (close) -->
     <g transform="translate(432.4175 68.711875) scale(0.12 -0.12)">
      <use xlink:href="#DejaVuSans-Oblique-51" transform="translate(0 0.015625)"/>
      <use xlink:href="#DejaVuSans-31" transform="translate(78.710938 -16.390625) scale(0.7)"/>
      <use xlink:href="#DejaVuSans-20" transform="translate(125.981445 0.015625)"/>
      <use xlink:href="#DejaVuSans-28" transform="translate(157.768555 0.015625)"/>
      <use xlink:href="#DejaVuSans-63" transform="translate(196.782227 0.015625)"/>
      <use xlink:href="#DejaVuSans-6c" transform="translate(251.762695 0.015625)"/>
      <use xlink:href="#DejaVuSans-6f" transform="translate(279.545898 0.015625)"/>
      <use xlink:href="#DejaVuSans-73" transform="translate(340.727539 0.015625)"/>
      <use xlink:href="#DejaVuSans-65" transform="translate(392.827148 0.015625)"/>
      <use xlink:href="#DejaVuSans-29" transform="translate(454.350586 0.015625)"/>
     </g>
    </g>
    <g id="line2d_35">
     <path d="M 398.8175 82.125625 
L 410.8175 82.125625 
L 422.8175 82.125625 
" style="fill: none; stroke-dasharray: 7.4,3.2; stroke-dashoffset: 0; stroke: #dc2626; stroke-width: 2"/>
    </g>
    <g id="text_21">
     <!-- $Q_2$ (far) -->
     <g transform="translate(432.4175 86.325625) scale(0.12 -0.12)">
      <defs>
       <path id="DejaVuSans-66" d="M 2375 4863 
L 2375 4384 
L 1825 4384 
Q 1516 4384 1395 4259 
Q 1275 4134 1275 3809 
L 1275 3500 
L 2222 3500 
L 2222 3053 
L 1275 3053 
L 1275 0 
L 697 0 
L 697 3053 
L 147 3053 
L 147 3500 
L 697 3500 
L 697 3744 
Q 697 4328 969 4595 
Q 1241 4863 1831 4863 
L 2375 4863 
z
" transform="scale(0.015625)"/>
      </defs>
      <use xlink:href="#DejaVuSans-Oblique-51" transform="translate(0 0.015625)"/>
      <use xlink:href="#DejaVuSans-32" transform="translate(78.710938 -16.390625) scale(0.7)"/>
      <use xlink:href="#DejaVuSans-20" transform="translate(125.981445 0.015625)"/>
      <use xlink:href="#DejaVuSans-28" transform="translate(157.768555 0.015625)"/>
      <use xlink:href="#DejaVuSans-66" transform="translate(196.782227 0.015625)"/>
      <use xlink:href="#DejaVuSans-61" transform="translate(231.987305 0.015625)"/>
      <use xlink:href="#DejaVuSans-72" transform="translate(293.266602 0.015625)"/>
      <use xlink:href="#DejaVuSans-29" transform="translate(334.379883 0.015625)"/>
     </g>
    </g>
   </g>
  </g>
 </g>
 <defs>
  <clipPath id="pec7e5852e2">
   <rect x="56.0975" y="31.18" width="446.4" height="277.2"/>
  </clipPath>
 </defs>
</svg>
