<?xml version="1.0" encoding="utf-8" standalone="no"?>
<!DOCTYPE svg PUBLIC "-//W3C//DTD SVG 1.1//EN"
  "http://www.w3.org/Graphics/SVG/1.1/DTD/svg11.dtd">
<svg xmlns:xlink="http://www.w3.org/1999/xlink" width="699.744489pt" height="375.01375pt" viewBox="0 0 699.744489 375.01375" xmlns="http://www.w3.org/2000/svg" version="1.1">
 <metadata>
  <rdf:RDF xmlns:dc="http://purl.org/dc/elements/1.1/" xmlns:cc="http://creativecommons.org/ns#" xmlns:rdf="http://www.w3.org/1999/02/22-rdf-syntax-ns#">
   <cc:Work>
    <dc:type rdf:resource="http://purl.org/dc/dcmitype/StillImage"/>
    <dc:date>2026-06-24T02:40:05.205634</dc:date>
    <dc:format>image/svg+xml</dc:format>
    <dc:creator>
     <cc:Agent>
      <dc:title>Matplotlib v3.10.0, https://matplotlib.org/</dc:title>
     </cc:Agent>
    </dc:creator>
   </cc:Work>
  </rdf:RDF>
 </metadata>
 <defs>
  <style type="text/css">*{stroke-linejoin: round; stroke-linecap: butt}</style>
 </defs>
 <g id="figure_1">
  <g id="patch_1">
   <path d="M 0 375.01375 
L 699.744489 375.01375 
L 699.744489 0 
L 0 0 
z
" style="fill: #ffffff"/>
  </g>
  <g id="axes_1">
   <g id="patch_2">
    <path d="M 39.090625 342 
L 316.290625 342 
L 316.290625 64.8 
L 39.090625 64.8 
z
" style="fill: #fafafa"/>
   </g>
   <g id="matplotlib.axis_1">
    <g id="xtick_1">
     <g id="line2d_1">
      <path d="M 39.090625 342 
L 39.090625 64.8 
" clip-path="url(#p68257571ce)" style="fill: none; stroke: #b0b0b0; stroke-opacity: 0.3; stroke-width: 0.8; stroke-linecap: square"/>
     </g>
     <g id="line2d_2">
      <defs>
       <path id="me6120ada33" d="M 0 0 
L 0 3.5 
" style="stroke: #000000; stroke-width: 0.8"/>
      </defs>
      <g>
       <use xlink:href="#me6120ada33" x="39.090625" y="342" style="stroke: #000000; stroke-width: 0.8"/>
      </g>
     </g>
     <g id="text_1">
      <!-- −3 -->
      <g transform="translate(30.245312 358.118125) scale(0.12 -0.12)">
       <defs>
        <path id="DejaVuSans-2212" d="M 678 2272 
L 4684 2272 
L 4684 1741 
L 678 1741 
L 678 2272 
z
" transform="scale(0.015625)"/>
        <path id="DejaVuSans-33" d="M 2597 2516 
Q 3050 2419 3304 2112 
Q 3559 1806 3559 1356 
Q 3559 666 3084 287 
Q 2609 -91 1734 -91 
Q 1441 -91 1130 -33 
Q 819 25 488 141 
L 488 750 
Q 750 597 1062 519 
Q 1375 441 1716 441 
Q 2309 441 2620 675 
Q 2931 909 2931 1356 
Q 2931 1769 2642 2001 
Q 2353 2234 1838 2234 
L 1294 2234 
L 1294 2753 
L 1863 2753 
Q 2328 2753 2575 2939 
Q 2822 3125 2822 3475 
Q 2822 3834 2567 4026 
Q 2313 4219 1838 4219 
Q 1578 4219 1281 4162 
Q 984 4106 628 3988 
L 628 4550 
Q 988 4650 1302 4700 
Q 1616 4750 1894 4750 
Q 2613 4750 3031 4423 
Q 3450 4097 3450 3541 
Q 3450 3153 3228 2886 
Q 3006 2619 2597 2516 
z
" transform="scale(0.015625)"/>
       </defs>
       <use xlink:href="#DejaVuSans-2212"/>
       <use xlink:href="#DejaVuSans-33" transform="translate(83.789062 0)"/>
      </g>
     </g>
    </g>
    <g id="xtick_2">
     <g id="line2d_3">
      <path d="M 85.290625 342 
L 85.290625 64.8 
" clip-path="url(#p68257571ce)" style="fill: none; stroke: #b0b0b0; stroke-opacity: 0.3; stroke-width: 0.8; stroke-linecap: square"/>
     </g>
     <g id="line2d_4">
      <g>
       <use xlink:href="#me6120ada33" x="85.290625" y="342" style="stroke: #000000; stroke-width: 0.8"/>
      </g>
     </g>
     <g id="text_2">
      <!-- −2 -->
      <g transform="translate(76.445312 358.118125) scale(0.12 -0.12)">
       <defs>
        <path id="DejaVuSans-32" d="M 1228 531 
L 3431 531 
L 3431 0 
L 469 0 
L 469 531 
Q 828 903 1448 1529 
Q 2069 2156 2228 2338 
Q 2531 2678 2651 2914 
Q 2772 3150 2772 3378 
Q 2772 3750 2511 3984 
Q 2250 4219 1831 4219 
Q 1534 4219 1204 4116 
Q 875 4013 500 3803 
L 500 4441 
Q 881 4594 1212 4672 
Q 1544 4750 1819 4750 
Q 2544 4750 2975 4387 
Q 3406 4025 3406 3419 
Q 3406 3131 3298 2873 
Q 3191 2616 2906 2266 
Q 2828 2175 2409 1742 
Q 1991 1309 1228 531 
z
" transform="scale(0.015625)"/>
       </defs>
       <use xlink:href="#DejaVuSans-2212"/>
       <use xlink:href="#DejaVuSans-32" transform="translate(83.789062 0)"/>
      </g>
     </g>
    </g>
    <g id="xtick_3">
     <g id="line2d_5">
      <path d="M 131.490625 342 
L 131.490625 64.8 
" clip-path="url(#p68257571ce)" style="fill: none; stroke: #b0b0b0; stroke-opacity: 0.3; stroke-width: 0.8; stroke-linecap: square"/>
     </g>
     <g id="line2d_6">
      <g>
       <use xlink:href="#me6120ada33" x="131.490625" y="342" style="stroke: #000000; stroke-width: 0.8"/>
      </g>
     </g>
     <g id="text_3">
      <!-- −1 -->
      <g transform="translate(122.645312 358.118125) scale(0.12 -0.12)">
       <defs>
        <path id="DejaVuSans-31" d="M 794 531 
L 1825 531 
L 1825 4091 
L 703 3866 
L 703 4441 
L 1819 4666 
L 2450 4666 
L 2450 531 
L 3481 531 
L 3481 0 
L 794 0 
L 794 531 
z
" transform="scale(0.015625)"/>
       </defs>
       <use xlink:href="#DejaVuSans-2212"/>
       <use xlink:href="#DejaVuSans-31" transform="translate(83.789062 0)"/>
      </g>
     </g>
    </g>
    <g id="xtick_4">
     <g id="line2d_7">
      <path d="M 177.690625 342 
L 177.690625 64.8 
" clip-path="url(#p68257571ce)" style="fill: none; stroke: #b0b0b0; stroke-opacity: 0.3; stroke-width: 0.8; stroke-linecap: square"/>
     </g>
     <g id="line2d_8">
      <g>
       <use xlink:href="#me6120ada33" x="177.690625" y="342" style="stroke: #000000; stroke-width: 0.8"/>
      </g>
     </g>
     <g id="text_4">
      <!-- 0 -->
      <g transform="translate(173.873125 358.118125) scale(0.12 -0.12)">
       <defs>
        <path id="DejaVuSans-30" d="M 2034 4250 
Q 1547 4250 1301 3770 
Q 1056 3291 1056 2328 
Q 1056 1369 1301 889 
Q 1547 409 2034 409 
Q 2525 409 2770 889 
Q 3016 1369 3016 2328 
Q 3016 3291 2770 3770 
Q 2525 4250 2034 4250 
z
M 2034 4750 
Q 2819 4750 3233 4129 
Q 3647 3509 3647 2328 
Q 3647 1150 3233 529 
Q 2819 -91 2034 -91 
Q 1250 -91 836 529 
Q 422 1150 422 2328 
Q 422 3509 836 4129 
Q 1250 4750 2034 4750 
z
" transform="scale(0.015625)"/>
       </defs>
       <use xlink:href="#DejaVuSans-30"/>
      </g>
     </g>
    </g>
    <g id="xtick_5">
     <g id="line2d_9">
      <path d="M 223.890625 342 
L 223.890625 64.8 
" clip-path="url(#p68257571ce)" style="fill: none; stroke: #b0b0b0; stroke-opacity: 0.3; stroke-width: 0.8; stroke-linecap: square"/>
     </g>
     <g id="line2d_10">
      <g>
       <use xlink:href="#me6120ada33" x="223.890625" y="342" style="stroke: #000000; stroke-width: 0.8"/>
      </g>
     </g>
     <g id="text_5">
      <!-- 1 -->
      <g transform="translate(220.073125 358.118125) scale(0.12 -0.12)">
       <use xlink:href="#DejaVuSans-31"/>
      </g>
     </g>
    </g>
    <g id="xtick_6">
     <g id="line2d_11">
      <path d="M 270.090625 342 
L 270.090625 64.8 
" clip-path="url(#p68257571ce)" style="fill: none; stroke: #b0b0b0; stroke-opacity: 0.3; stroke-width: 0.8; stroke-linecap: square"/>
     </g>
     <g id="line2d_12">
      <g>
       <use xlink:href="#me6120ada33" x="270.090625" y="342" style="stroke: #000000; stroke-width: 0.8"/>
      </g>
     </g>
     <g id="text_6">
      <!-- 2 -->
      <g transform="translate(266.273125 358.118125) scale(0.12 -0.12)">
       <use xlink:href="#DejaVuSans-32"/>
      </g>
     </g>
    </g>
    <g id="xtick_7">
     <g id="line2d_13">
      <path d="M 316.290625 342 
L 316.290625 64.8 
" clip-path="url(#p68257571ce)" style="fill: none; stroke: #b0b0b0; stroke-opacity: 0.3; stroke-width: 0.8; stroke-linecap: square"/>
     </g>
     <g id="line2d_14">
      <g>
       <use xlink:href="#me6120ada33" x="316.290625" y="342" style="stroke: #000000; stroke-width: 0.8"/>
      </g>
     </g>
     <g id="text_7">
      <!-- 3 -->
      <g transform="translate(312.473125 358.118125) scale(0.12 -0.12)">
       <use xlink:href="#DejaVuSans-33"/>
      </g>
     </g>
    </g>
   </g>
   <g id="matplotlib.axis_2">
    <g id="ytick_1">
     <g id="line2d_15">
      <path d="M 39.090625 342 
L 316.290625 342 
" clip-path="url(#p68257571ce)" style="fill: none; stroke: #b0b0b0; stroke-opacity: 0.3; stroke-width: 0.8; stroke-linecap: square"/>
     </g>
     <g id="line2d_16">
      <defs>
       <path id="ma32a9b52f7" d="M 0 0 
L -3.5 0 
" style="stroke: #000000; stroke-width: 0.8"/>
      </defs>
      <g>
       <use xlink:href="#ma32a9b52f7" x="39.090625" y="342" style="stroke: #000000; stroke-width: 0.8"/>
      </g>
     </g>
     <g id="text_8">
      <!-- −3 -->
      <g transform="translate(14.4 346.559063) scale(0.12 -0.12)">
       <use xlink:href="#DejaVuSans-2212"/>
       <use xlink:href="#DejaVuSans-33" transform="translate(83.789062 0)"/>
      </g>
     </g>
    </g>
    <g id="ytick_2">
     <g id="line2d_17">
      <path d="M 39.090625 295.8 
L 316.290625 295.8 
" clip-path="url(#p68257571ce)" style="fill: none; stroke: #b0b0b0; stroke-opacity: 0.3; stroke-width: 0.8; stroke-linecap: square"/>
     </g>
     <g id="line2d_18">
      <g>
       <use xlink:href="#ma32a9b52f7" x="39.090625" y="295.8" style="stroke: #000000; stroke-width: 0.8"/>
      </g>
     </g>
     <g id="text_9">
      <!-- −2 -->
      <g transform="translate(14.4 300.359063) scale(0.12 -0.12)">
       <use xlink:href="#DejaVuSans-2212"/>
       <use xlink:href="#DejaVuSans-32" transform="translate(83.789062 0)"/>
      </g>
     </g>
    </g>
    <g id="ytick_3">
     <g id="line2d_19">
      <path d="M 39.090625 249.6 
L 316.290625 249.6 
" clip-path="url(#p68257571ce)" style="fill: none; stroke: #b0b0b0; stroke-opacity: 0.3; stroke-width: 0.8; stroke-linecap: square"/>
     </g>
     <g id="line2d_20">
      <g>
       <use xlink:href="#ma32a9b52f7" x="39.090625" y="249.6" style="stroke: #000000; stroke-width: 0.8"/>
      </g>
     </g>
     <g id="text_10">
      <!-- −1 -->
      <g transform="translate(14.4 254.159063) scale(0.12 -0.12)">
       <use xlink:href="#DejaVuSans-2212"/>
       <use xlink:href="#DejaVuSans-31" transform="translate(83.789062 0)"/>
      </g>
     </g>
    </g>
    <g id="ytick_4">
     <g id="line2d_21">
      <path d="M 39.090625 203.4 
L 316.290625 203.4 
" clip-path="url(#p68257571ce)" style="fill: none; stroke: #b0b0b0; stroke-opacity: 0.3; stroke-width: 0.8; stroke-linecap: square"/>
     </g>
     <g id="line2d_22">
      <g>
       <use xlink:href="#ma32a9b52f7" x="39.090625" y="203.4" style="stroke: #000000; stroke-width: 0.8"/>
      </g>
     </g>
     <g id="text_11">
      <!-- 0 -->
      <g transform="translate(24.455625 207.959063) scale(0.12 -0.12)">
       <use xlink:href="#DejaVuSans-30"/>
      </g>
     </g>
    </g>
    <g id="ytick_5">
     <g id="line2d_23">
      <path d="M 39.090625 157.2 
L 316.290625 157.2 
" clip-path="url(#p68257571ce)" style="fill: none; stroke: #b0b0b0; stroke-opacity: 0.3; stroke-width: 0.8; stroke-linecap: square"/>
     </g>
     <g id="line2d_24">
      <g>
       <use xlink:href="#ma32a9b52f7" x="39.090625" y="157.2" style="stroke: #000000; stroke-width: 0.8"/>
      </g>
     </g>
     <g id="text_12">
      <!-- 1 -->
      <g transform="translate(24.455625 161.759063) scale(0.12 -0.12)">
       <use xlink:href="#DejaVuSans-31"/>
      </g>
     </g>
    </g>
    <g id="ytick_6">
     <g id="line2d_25">
      <path d="M 39.090625 111 
L 316.290625 111 
" clip-path="url(#p68257571ce)" style="fill: none; stroke: #b0b0b0; stroke-opacity: 0.3; stroke-width: 0.8; stroke-linecap: square"/>
     </g>
     <g id="line2d_26">
      <g>
       <use xlink:href="#ma32a9b52f7" x="39.090625" y="111" style="stroke: #000000; stroke-width: 0.8"/>
      </g>
     </g>
     <g id="text_13">
      <!-- 2 -->
      <g transform="translate(24.455625 115.559063) scale(0.12 -0.12)">
       <use xlink:href="#DejaVuSans-32"/>
      </g>
     </g>
    </g>
    <g id="ytick_7">
     <g id="line2d_27">
      <path d="M 39.090625 64.8 
L 316.290625 64.8 
" clip-path="url(#p68257571ce)" style="fill: none; stroke: #b0b0b0; stroke-opacity: 0.3; stroke-width: 0.8; stroke-linecap: square"/>
     </g>
     <g id="line2d_28">
      <g>
       <use xlink:href="#ma32a9b52f7" x="39.090625" y="64.8" style="stroke: #000000; stroke-width: 0.8"/>
      </g>
     </g>
     <g id="text_14">
      <!-- 3 -->
      <g transform="translate(24.455625 69.359062) scale(0.12 -0.12)">
       <use xlink:href="#DejaVuSans-33"/>
      </g>
     </g>
    </g>
   </g>
   <g id="line2d_29">
    <path d="M 246.990625 203.4 
L 246.851102 199.004722 
L 246.433094 194.627143 
L 245.738284 190.284889 
L 244.76947 185.995444 
L 243.530553 181.776082 
L 242.026523 177.643792 
L 240.263434 173.615213 
L 238.248387 169.706566 
L 235.989495 165.933591 
L 233.495854 162.311481 
L 230.777505 158.854819 
L 227.845394 155.577525 
L 224.711327 152.492795 
L 221.387925 149.61305 
L 217.888569 146.949887 
L 214.22735 144.514028 
L 210.41901 142.315282 
L 206.478885 140.362503 
L 202.42284 138.663553 
L 198.267207 137.225275 
L 194.028719 136.053458 
L 189.724444 135.152823 
L 185.371712 134.526994 
L 180.988052 134.178493 
L 176.591114 134.108723 
L 172.198603 134.317964 
L 167.828207 134.805374 
L 163.497523 135.56899 
L 159.22399 136.605738 
L 155.024815 137.911443 
L 150.916908 139.480847 
L 146.916809 141.307631 
L 143.040625 143.38444 
L 139.303965 145.702909 
L 135.721874 148.253704 
L 132.308776 151.026554 
L 129.078415 154.010294 
L 126.043799 157.192908 
L 123.217146 160.561582 
L 120.609838 164.102751 
L 118.232374 167.802157 
L 116.094328 171.644902 
L 114.204309 175.615514 
L 112.569926 179.698004 
L 111.197762 183.875934 
L 110.093341 188.13248 
L 109.26111 192.450503 
L 108.704421 196.812616 
L 108.425515 201.201254 
L 108.425515 205.598746 
L 108.704421 209.987384 
L 109.26111 214.349497 
L 110.093341 218.66752 
L 111.197762 222.924066 
L 112.569926 227.101996 
L 114.204309 231.184486 
L 116.094328 235.155098 
L 118.232374 238.997843 
L 120.609838 242.697249 
L 123.217146 246.238418 
L 126.043799 249.607092 
L 129.078415 252.789706 
L 132.308776 255.773446 
L 135.721874 258.546296 
L 139.303965 261.097091 
L 143.040625 263.41556 
L 146.916809 265.492369 
L 150.916908 267.319153 
L 155.024815 268.888557 
L 159.22399 270.194262 
L 163.497523 271.23101 
L 167.828207 271.994626 
L 172.198603 272.482036 
L 176.591114 272.691277 
L 180.988052 272.621507 
L 185.371712 272.273006 
L 189.724444 271.647177 
L 194.028719 270.746542 
L 198.267207 269.574725 
L 202.42284 268.136447 
L 206.478885 266.437497 
L 210.41901 264.484718 
L 214.22735 262.285972 
L 217.888569 259.850113 
L 221.387925 257.18695 
L 224.711327 254.307205 
L 227.845394 251.222475 
L 230.777505 247.945181 
L 233.495854 244.488519 
L 235.989495 240.866409 
L 238.248387 237.093434 
L 240.263434 233.184787 
L 242.026523 229.156208 
L 243.530553 225.023918 
L 244.76947 220.804556 
L 245.738284 216.515111 
L 246.433094 212.172857 
L 246.851102 207.795278 
L 246.990625 203.4 
" clip-path="url(#p68257571ce)" style="fill: none; stroke: #2563eb; stroke-width: 2; stroke-linecap: square"/>
   </g>
   <g id="line2d_30">
    <path d="M 293.190625 166.44 
L 293.004594 162.296093 
L 292.44725 158.168871 
L 291.520837 154.074955 
L 290.229085 150.030828 
L 288.577196 146.052775 
L 286.571822 142.156814 
L 284.221037 138.358633 
L 281.534307 134.673526 
L 278.522451 131.116331 
L 275.197597 127.701372 
L 271.573132 124.4424 
L 267.66365 121.352538 
L 263.484895 118.444226 
L 259.053691 115.729177 
L 254.387883 113.218323 
L 249.506258 110.921773 
L 244.428472 108.848775 
L 239.174972 107.007678 
L 233.766912 105.405893 
L 228.226068 104.049871 
L 222.574751 102.945072 
L 216.835717 102.095944 
L 211.032075 101.505908 
L 205.187194 101.177338 
L 199.32461 101.111557 
L 193.467929 101.308832 
L 187.640734 101.768366 
L 181.866489 102.488311 
L 176.168445 103.465766 
L 170.569545 104.696797 
L 165.092335 106.176445 
L 159.75887 107.898754 
L 154.590625 109.856787 
L 149.608411 112.042661 
L 144.83229 114.447574 
L 140.281493 117.061842 
L 135.974345 119.874939 
L 131.92819 122.875536 
L 128.159319 126.051552 
L 124.682909 129.390199 
L 121.512958 132.878032 
L 118.66223 136.501007 
L 116.142204 140.244535 
L 113.963027 144.093544 
L 112.133474 148.032534 
L 110.660913 152.045644 
L 109.551272 156.116715 
L 108.809019 160.229355 
L 108.437144 164.367003 
L 108.437144 168.512997 
L 108.809019 172.650645 
L 109.551272 176.763285 
L 110.660913 180.834356 
L 112.133474 184.847466 
L 113.963027 188.786456 
L 116.142204 192.635465 
L 118.66223 196.378993 
L 121.512958 200.001968 
L 124.682909 203.489801 
L 128.159319 206.828448 
L 131.92819 210.004464 
L 135.974345 213.005061 
L 140.281493 215.818158 
L 144.83229 218.432426 
L 149.608411 220.837339 
L 154.590625 223.023213 
L 159.75887 224.981246 
L 165.092335 226.703555 
L 170.569545 228.183203 
L 176.168445 229.414234 
L 181.866489 230.391689 
L 187.640734 231.111634 
L 193.467929 231.571168 
L 199.32461 231.768443 
L 205.187194 231.702662 
L 211.032075 231.374092 
L 216.835717 230.784056 
L 222.574751 229.934928 
L 228.226068 228.830129 
L 233.766912 227.474107 
L 239.174972 225.872322 
L 244.428472 224.031225 
L 249.506258 221.958227 
L 254.387883 219.661677 
L 259.053691 217.150823 
L 263.484895 214.435774 
L 267.66365 211.527462 
L 271.573132 208.4376 
L 275.197597 205.178628 
L 278.522451 201.763669 
L 281.534307 198.206474 
L 284.221037 194.521367 
L 286.571822 190.723186 
L 288.577196 186.827225 
L 290.229085 182.849172 
L 291.520837 178.805045 
L 292.44725 174.711129 
L 293.004594 170.583907 
L 293.190625 166.44 
" clip-path="url(#p68257571ce)" style="fill: none; stroke: #dc2626; stroke-opacity: 0.3; stroke-linecap: square"/>
   </g>
   <g id="line2d_31">
    <path d="M 346.887853 166.44 
L 346.593712 159.887907 
L 345.712473 153.362197 
L 344.247686 146.889146 
L 342.205247 140.494821 
L 339.593382 134.204967 
L 336.422606 128.044912 
L 332.705689 122.03946 
L 328.457597 116.212794 
L 323.695434 110.588376 
L 318.438377 105.188852 
L 312.707595 100.035964 
L 306.526162 95.150463 
L 299.918969 90.552019 
L 292.912622 86.259149 
L 285.535332 82.289139 
L 277.816804 78.657975 
L 269.78812 75.380279 
L 261.481607 72.469247 
L 252.930713 69.936603 
L 244.169869 67.792544 
L 235.234352 66.045703 
L 226.160142 64.703115 
L 216.983779 63.770185 
L 207.742211 63.25067 
L 198.472652 63.146663 
L 189.212426 63.458581 
L 179.998822 64.185169 
L 170.868939 65.323501 
L 161.85954 66.868994 
L 153.006902 68.815424 
L 144.346673 71.154953 
L 135.913724 73.878162 
L 127.742011 76.974085 
L 119.864439 80.430255 
L 112.312729 84.232756 
L 105.117287 88.366277 
L 98.307088 92.814173 
L 91.909555 97.558535 
L 85.950447 102.580257 
L 80.45376 107.859121 
L 75.441627 113.373868 
L 70.93423 119.102295 
L 66.949719 125.021334 
L 63.504138 131.107151 
L 60.611361 137.335241 
L 58.283037 143.680525 
L 56.528541 150.117454 
L 55.354937 156.620108 
L 54.766951 163.162303 
L 54.766951 169.717697 
L 55.354937 176.259892 
L 56.528541 182.762546 
L 58.283037 189.199475 
L 60.611361 195.544759 
L 63.504138 201.772849 
L 66.949719 207.858666 
L 70.93423 213.777705 
L 75.441627 219.506132 
L 80.45376 225.020879 
L 85.950447 230.299743 
L 91.909555 235.321465 
L 98.307088 240.065827 
L 105.117287 244.513723 
L 112.312729 248.647244 
L 119.864439 252.449745 
L 127.742011 255.905915 
L 135.913724 259.001838 
L 144.346673 261.725047 
L 153.006902 264.064576 
L 161.85954 266.011006 
L 170.868939 267.556499 
L 179.998822 268.694831 
L 189.212426 269.421419 
L 198.472652 269.733337 
L 207.742211 269.62933 
L 216.983779 269.109815 
L 226.160142 268.176885 
L 235.234352 266.834297 
L 244.169869 265.087456 
L 252.930713 262.943397 
L 261.481607 260.410753 
L 269.78812 257.499721 
L 277.816804 254.222025 
L 285.535332 250.590861 
L 292.912622 246.620851 
L 299.918969 242.327981 
L 306.526162 237.729537 
L 312.707595 232.844036 
L 318.438377 227.691148 
L 323.695434 222.291624 
L 328.457597 216.667206 
L 332.705689 210.84054 
L 336.422606 204.835088 
L 339.593382 198.675033 
L 342.205247 192.385179 
L 344.247686 185.990854 
L 345.712473 179.517803 
L 346.593712 172.992093 
L 346.887853 166.44 
" clip-path="url(#p68257571ce)" style="fill: none; stroke: #dc2626; stroke-opacity: 0.3; stroke-linecap: square"/>
   </g>
   <g id="line2d_32">
    <path d="M 407.403306 166.44 
L 406.987328 157.173941 
L 405.741068 147.945193 
L 403.669546 138.790918 
L 400.781101 129.747975 
L 397.087366 120.852779 
L 392.603213 112.141146 
L 387.346698 103.648155 
L 381.338988 95.408005 
L 374.604273 87.453875 
L 367.169672 79.817795 
L 359.065121 72.530512 
L 350.323255 65.621369 
L 340.979274 59.118188 
L 331.070802 53.047153 
L 320.637738 47.432711 
L 309.722092 42.29747 
L 298.367818 37.662107 
L 286.620635 33.545287 
L 274.527844 29.963587 
L 262.13814 26.93143 
L 249.501411 24.461024 
L 236.668541 22.562317 
L 223.691203 21.242955 
L 210.621652 20.508251 
L 197.512516 20.361162 
L 184.416579 20.802281 
L 171.386575 21.829831 
L 158.47497 23.439676 
L 145.733756 25.625333 
L 133.214236 28.378 
L 120.966823 31.686594 
L 109.040832 35.537793 
L 97.484284 39.916089 
L 86.343715 44.803852 
L 75.663984 50.181401 
L 65.488093 56.027082 
L 55.857018 62.317357 
L 46.809539 69.026897 
L 38.382088 76.128686 
L 30.608598 83.594126 
L 23.520372 91.393157 
L 17.14595 99.494375 
L 11.511 107.86516 
L 6.638213 116.471805 
L 2.547209 125.279654 
L -0.745539 134.253242 
L -1 135.186815 
M -1 197.693185 
L -0.745539 198.626758 
L 2.547209 207.600346 
L 6.638213 216.408195 
L 11.511 225.01484 
L 17.14595 233.385625 
L 23.520372 241.486843 
L 30.608598 249.285874 
L 38.382088 256.751314 
L 46.809539 263.853103 
L 55.857018 270.562643 
L 65.488093 276.852918 
L 75.663984 282.698599 
L 86.343715 288.076148 
L 97.484284 292.963911 
L 109.040832 297.342207 
L 120.966823 301.193406 
L 133.214236 304.502 
L 145.733756 307.254667 
L 158.47497 309.440324 
L 171.386575 311.050169 
L 184.416579 312.077719 
L 197.512516 312.518838 
L 210.621652 312.371749 
L 223.691203 311.637045 
L 236.668541 310.317683 
L 249.501411 308.418976 
L 262.13814 305.94857 
L 274.527844 302.916413 
L 286.620635 299.334713 
L 298.367818 295.217893 
L 309.722092 290.58253 
L 320.637738 285.447289 
L 331.070802 279.832847 
L 340.979274 273.761812 
L 350.323255 267.258631 
L 359.065121 260.349488 
L 367.169672 253.062205 
L 374.604273 245.426125 
L 381.338988 237.471995 
L 387.346698 229.231845 
L 392.603213 220.738854 
L 397.087366 212.027221 
L 400.781101 203.132025 
L 403.669546 194.089082 
L 405.741068 184.934807 
L 406.987328 175.706059 
L 407.403306 166.44 
" clip-path="url(#p68257571ce)" style="fill: none; stroke: #dc2626; stroke-opacity: 0.3; stroke-linecap: square"/>
   </g>
   <g id="line2d_33">
    <path d="M 39.090625 203.4 
L 316.290625 203.4 
" clip-path="url(#p68257571ce)" style="fill: none; stroke: #808080; stroke-width: 0.5; stroke-linecap: square"/>
   </g>
   <g id="line2d_34">
    <path d="M 177.690625 342 
L 177.690625 64.8 
" clip-path="url(#p68257571ce)" style="fill: none; stroke: #808080; stroke-width: 0.5; stroke-linecap: square"/>
   </g>
   <g id="line2d_35">
    <defs>
     <path id="me0420568c7" d="M 0 3 
C 0.795609 3 1.55874 2.683901 2.12132 2.12132 
C 2.683901 1.55874 3 0.795609 3 0 
C 3 -0.795609 2.683901 -1.55874 2.12132 -2.12132 
C 1.55874 -2.683901 0.795609 -3 0 -3 
C -0.795609 -3 -1.55874 -2.683901 -2.12132 -2.12132 
C -2.683901 -1.55874 -3 -0.795609 -3 0 
C -3 0.795609 -2.683901 1.55874 -2.12132 2.12132 
C -1.55874 2.683901 -0.795609 3 0 3 
z
" style="stroke: #000000"/>
    </defs>
    <g clip-path="url(#p68257571ce)">
     <use xlink:href="#me0420568c7" x="200.790625" y="166.44" style="stroke: #000000"/>
    </g>
   </g>
   <g id="patch_3">
    <path d="M 39.090625 342 
L 39.090625 64.8 
" style="fill: none; stroke: #000000; stroke-width: 0.8; stroke-linejoin: miter; stroke-linecap: square"/>
   </g>
   <g id="patch_4">
    <path d="M 316.290625 342 
L 316.290625 64.8 
" style="fill: none; stroke: #000000; stroke-width: 0.8; stroke-linejoin: miter; stroke-linecap: square"/>
   </g>
   <g id="patch_5">
    <path d="M 39.090625 342 
L 316.290625 342 
" style="fill: none; stroke: #000000; stroke-width: 0.8; stroke-linejoin: miter; stroke-linecap: square"/>
   </g>
   <g id="patch_6">
    <path d="M 39.090625 64.8 
L 316.290625 64.8 
" style="fill: none; stroke: #000000; stroke-width: 0.8; stroke-linejoin: miter; stroke-linecap: square"/>
   </g>
   <g id="text_15">
    <!-- L2: Circle → No sparsity -->
    <g transform="translate(95.303906 58.8) scale(0.14 -0.14)">
     <defs>
      <path id="DejaVuSans-4c" d="M 628 4666 
L 1259 4666 
L 1259 531 
L 3531 531 
L 3531 0 
L 628 0 
L 628 4666 
z
" transform="scale(0.015625)"/>
      <path id="DejaVuSans-3a" d="M 750 794 
L 1409 794 
L 1409 0 
L 750 0 
L 750 794 
z
M 750 3309 
L 1409 3309 
L 1409 2516 
L 750 2516 
L 750 3309 
z
" transform="scale(0.015625)"/>
      <path id="DejaVuSans-20" transform="scale(0.015625)"/>
      <path id="DejaVuSans-43" d="M 4122 4306 
L 4122 3641 
Q 3803 3938 3442 4084 
Q 3081 4231 2675 4231 
Q 1875 4231 1450 3742 
Q 1025 3253 1025 2328 
Q 1025 1406 1450 917 
Q 1875 428 2675 428 
Q 3081 428 3442 575 
Q 3803 722 4122 1019 
L 4122 359 
Q 3791 134 3420 21 
Q 3050 -91 2638 -91 
Q 1578 -91 968 557 
Q 359 1206 359 2328 
Q 359 3453 968 4101 
Q 1578 4750 2638 4750 
Q 3056 4750 3426 4639 
Q 3797 4528 4122 4306 
z
" transform="scale(0.015625)"/>
      <path id="DejaVuSans-69" d="M 603 3500 
L 1178 3500 
L 1178 0 
L 603 0 
L 603 3500 
z
M 603 4863 
L 1178 4863 
L 1178 4134 
L 603 4134 
L 603 4863 
z
" transform="scale(0.015625)"/>
      <path id="DejaVuSans-72" d="M 2631 2963 
Q 2534 3019 2420 3045 
Q 2306 3072 2169 3072 
Q 1681 3072 1420 2755 
Q 1159 2438 1159 1844 
L 1159 0 
L 581 0 
L 581 3500 
L 1159 3500 
L 1159 2956 
Q 1341 3275 1631 3429 
Q 1922 3584 2338 3584 
Q 2397 3584 2469 3576 
Q 2541 3569 2628 3553 
L 2631 2963 
z
" transform="scale(0.015625)"/>
      <path id="DejaVuSans-63" d="M 3122 3366 
L 3122 2828 
Q 2878 2963 2633 3030 
Q 2388 3097 2138 3097 
Q 1578 3097 1268 2742 
Q 959 2388 959 1747 
Q 959 1106 1268 751 
Q 1578 397 2138 397 
Q 2388 397 2633 464 
Q 2878 531 3122 666 
L 3122 134 
Q 2881 22 2623 -34 
Q 2366 -91 2075 -91 
Q 1284 -91 818 406 
Q 353 903 353 1747 
Q 353 2603 823 3093 
Q 1294 3584 2113 3584 
Q 2378 3584 2631 3529 
Q 2884 3475 3122 3366 
z
" transform="scale(0.015625)"/>
      <path id="DejaVuSans-6c" d="M 603 4863 
L 1178 4863 
L 1178 0 
L 603 0 
L 603 4863 
z
" transform="scale(0.015625)"/>
      <path id="DejaVuSans-65" d="M 3597 1894 
L 3597 1613 
L 953 1613 
Q 991 1019 1311 708 
Q 1631 397 2203 397 
Q 2534 397 2845 478 
Q 3156 559 3463 722 
L 3463 178 
Q 3153 47 2828 -22 
Q 2503 -91 2169 -91 
Q 1331 -91 842 396 
Q 353 884 353 1716 
Q 353 2575 817 3079 
Q 1281 3584 2069 3584 
Q 2775 3584 3186 3129 
Q 3597 2675 3597 1894 
z
M 3022 2063 
Q 3016 2534 2758 2815 
Q 2500 3097 2075 3097 
Q 1594 3097 1305 2825 
Q 1016 2553 972 2059 
L 3022 2063 
z
" transform="scale(0.015625)"/>
      <path id="DejaVuSans-2192" d="M 5050 2147 
L 5050 1866 
L 3822 638 
L 3447 1013 
L 4175 1741 
L 366 1741 
L 366 2272 
L 4175 2272 
L 3447 3000 
L 3822 3375 
L 5050 2147 
z
" transform="scale(0.015625)"/>
      <path id="DejaVuSans-4e" d="M 628 4666 
L 1478 4666 
L 3547 763 
L 3547 4666 
L 4159 4666 
L 4159 0 
L 3309 0 
L 1241 3903 
L 1241 0 
L 628 0 
L 628 4666 
z
" transform="scale(0.015625)"/>
      <path id="DejaVuSans-6f" d="M 1959 3097 
Q 1497 3097 1228 2736 
Q 959 2375 959 1747 
Q 959 1119 1226 758 
Q 1494 397 1959 397 
Q 2419 397 2687 759 
Q 2956 1122 2956 1747 
Q 2956 2369 2687 2733 
Q 2419 3097 1959 3097 
z
M 1959 3584 
Q 2709 3584 3137 3096 
Q 3566 2609 3566 1747 
Q 3566 888 3137 398 
Q 2709 -91 1959 -91 
Q 1206 -91 779 398 
Q 353 888 353 1747 
Q 353 2609 779 3096 
Q 1206 3584 1959 3584 
z
" transform="scale(0.015625)"/>
      <path id="DejaVuSans-73" d="M 2834 3397 
L 2834 2853 
Q 2591 2978 2328 3040 
Q 2066 3103 1784 3103 
Q 1356 3103 1142 2972 
Q 928 2841 928 2578 
Q 928 2378 1081 2264 
Q 1234 2150 1697 2047 
L 1894 2003 
Q 2506 1872 2764 1633 
Q 3022 1394 3022 966 
Q 3022 478 2636 193 
Q 2250 -91 1575 -91 
Q 1294 -91 989 -36 
Q 684 19 347 128 
L 347 722 
Q 666 556 975 473 
Q 1284 391 1588 391 
Q 1994 391 2212 530 
Q 2431 669 2431 922 
Q 2431 1156 2273 1281 
Q 2116 1406 1581 1522 
L 1381 1569 
Q 847 1681 609 1914 
Q 372 2147 372 2553 
Q 372 3047 722 3315 
Q 1072 3584 1716 3584 
Q 2034 3584 2315 3537 
Q 2597 3491 2834 3397 
z
" transform="scale(0.015625)"/>
      <path id="DejaVuSans-70" d="M 1159 525 
L 1159 -1331 
L 581 -1331 
L 581 3500 
L 1159 3500 
L 1159 2969 
Q 1341 3281 1617 3432 
Q 1894 3584 2278 3584 
Q 2916 3584 3314 3078 
Q 3713 2572 3713 1747 
Q 3713 922 3314 415 
Q 2916 -91 2278 -91 
Q 1894 -91 1617 61 
Q 1341 213 1159 525 
z
M 3116 1747 
Q 3116 2381 2855 2742 
Q 2594 3103 2138 3103 
Q 1681 3103 1420 2742 
Q 1159 2381 1159 1747 
Q 1159 1113 1420 752 
Q 1681 391 2138 391 
Q 2594 391 2855 752 
Q 3116 1113 3116 1747 
z
" transform="scale(0.015625)"/>
      <path id="DejaVuSans-61" d="M 2194 1759 
Q 1497 1759 1228 1600 
Q 959 1441 959 1056 
Q 959 750 1161 570 
Q 1363 391 1709 391 
Q 2188 391 2477 730 
Q 2766 1069 2766 1631 
L 2766 1759 
L 2194 1759 
z
M 3341 1997 
L 3341 0 
L 2766 0 
L 2766 531 
Q 2569 213 2275 61 
Q 1981 -91 1556 -91 
Q 1019 -91 701 211 
Q 384 513 384 1019 
Q 384 1609 779 1909 
Q 1175 2209 1959 2209 
L 2766 2209 
L 2766 2266 
Q 2766 2663 2505 2880 
Q 2244 3097 1772 3097 
Q 1472 3097 1187 3025 
Q 903 2953 641 2809 
L 641 3341 
Q 956 3463 1253 3523 
Q 1550 3584 1831 3584 
Q 2591 3584 2966 3190 
Q 3341 2797 3341 1997 
z
" transform="scale(0.015625)"/>
      <path id="DejaVuSans-74" d="M 1172 4494 
L 1172 3500 
L 2356 3500 
L 2356 3053 
L 1172 3053 
L 1172 1153 
Q 1172 725 1289 603 
Q 1406 481 1766 481 
L 2356 481 
L 2356 0 
L 1766 0 
Q 1100 0 847 248 
Q 594 497 594 1153 
L 594 3053 
L 172 3053 
L 172 3500 
L 594 3500 
L 594 4494 
L 1172 4494 
z
" transform="scale(0.015625)"/>
      <path id="DejaVuSans-79" d="M 2059 -325 
Q 1816 -950 1584 -1140 
Q 1353 -1331 966 -1331 
L 506 -1331 
L 506 -850 
L 844 -850 
Q 1081 -850 1212 -737 
Q 1344 -625 1503 -206 
L 1606 56 
L 191 3500 
L 800 3500 
L 1894 763 
L 2988 3500 
L 3597 3500 
L 2059 -325 
z
" transform="scale(0.015625)"/>
     </defs>
     <use xlink:href="#DejaVuSans-4c"/>
     <use xlink:href="#DejaVuSans-32" transform="translate(55.712891 0)"/>
     <use xlink:href="#DejaVuSans-3a" transform="translate(119.335938 0)"/>
     <use xlink:href="#DejaVuSans-20" transform="translate(153.027344 0)"/>
     <use xlink:href="#DejaVuSans-43" transform="translate(184.814453 0)"/>
     <use xlink:href="#DejaVuSans-69" transform="translate(254.638672 0)"/>
     <use xlink:href="#DejaVuSans-72" transform="translate(282.421875 0)"/>
     <use xlink:href="#DejaVuSans-63" transform="translate(321.285156 0)"/>
     <use xlink:href="#DejaVuSans-6c" transform="translate(376.265625 0)"/>
     <use xlink:href="#DejaVuSans-65" transform="translate(404.048828 0)"/>
     <use xlink:href="#DejaVuSans-20" transform="translate(465.572266 0)"/>
     <use xlink:href="#DejaVuSans-2192" transform="translate(497.359375 0)"/>
     <use xlink:href="#DejaVuSans-20" transform="translate(581.148438 0)"/>
     <use xlink:href="#DejaVuSans-4e" transform="translate(612.935547 0)"/>
     <use xlink:href="#DejaVuSans-6f" transform="translate(687.740234 0)"/>
     <use xlink:href="#DejaVuSans-20" transform="translate(748.921875 0)"/>
     <use xlink:href="#DejaVuSans-73" transform="translate(780.708984 0)"/>
     <use xlink:href="#DejaVuSans-70" transform="translate(832.808594 0)"/>
     <use xlink:href="#DejaVuSans-61" transform="translate(896.285156 0)"/>
     <use xlink:href="#DejaVuSans-72" transform="translate(957.564453 0)"/>
     <use xlink:href="#DejaVuSans-73" transform="translate(998.677734 0)"/>
     <use xlink:href="#DejaVuSans-69" transform="translate(1050.777344 0)"/>
     <use xlink:href="#DejaVuSans-74" transform="translate(1078.560547 0)"/>
     <use xlink:href="#DejaVuSans-79" transform="translate(1117.769531 0)"/>
    </g>
   </g>
  </g>
  <g id="axes_2">
   <g id="patch_7">
    <path d="M 404.326989 342 
L 681.526989 342 
L 681.526989 64.8 
L 404.326989 64.8 
z
" style="fill: #fafafa"/>
   </g>
   <g id="matplotlib.axis_3">
    <g id="xtick_8">
     <g id="line2d_36">
      <path d="M 404.326989 342 
L 404.326989 64.8 
" clip-path="url(#pef1c0a9e18)" style="fill: none; stroke: #b0b0b0; stroke-opacity: 0.3; stroke-width: 0.8; stroke-linecap: square"/>
     </g>
     <g id="line2d_37">
      <g>
       <use xlink:href="#me6120ada33" x="404.326989" y="342" style="stroke: #000000; stroke-width: 0.8"/>
      </g>
     </g>
     <g id="text_16">
      <!-- −3 -->
      <g transform="translate(395.481676 358.118125) scale(0.12 -0.12)">
       <use xlink:href="#DejaVuSans-2212"/>
       <use xlink:href="#DejaVuSans-33" transform="translate(83.789062 0)"/>
      </g>
     </g>
    </g>
    <g id="xtick_9">
     <g id="line2d_38">
      <path d="M 450.526989 342 
L 450.526989 64.8 
" clip-path="url(#pef1c0a9e18)" style="fill: none; stroke: #b0b0b0; stroke-opacity: 0.3; stroke-width: 0.8; stroke-linecap: square"/>
     </g>
     <g id="line2d_39">
      <g>
       <use xlink:href="#me6120ada33" x="450.526989" y="342" style="stroke: #000000; stroke-width: 0.8"/>
      </g>
     </g>
     <g id="text_17">
      <!-- −2 -->
      <g transform="translate(441.681676 358.118125) scale(0.12 -0.12)">
       <use xlink:href="#DejaVuSans-2212"/>
       <use xlink:href="#DejaVuSans-32" transform="translate(83.789062 0)"/>
      </g>
     </g>
    </g>
    <g id="xtick_10">
     <g id="line2d_40">
      <path d="M 496.726989 342 
L 496.726989 64.8 
" clip-path="url(#pef1c0a9e18)" style="fill: none; stroke: #b0b0b0; stroke-opacity: 0.3; stroke-width: 0.8; stroke-linecap: square"/>
     </g>
     <g id="line2d_41">
      <g>
       <use xlink:href="#me6120ada33" x="496.726989" y="342" style="stroke: #000000; stroke-width: 0.8"/>
      </g>
     </g>
     <g id="text_18">
      <!-- −1 -->
      <g transform="translate(487.881676 358.118125) scale(0.12 -0.12)">
       <use xlink:href="#DejaVuSans-2212"/>
       <use xlink:href="#DejaVuSans-31" transform="translate(83.789062 0)"/>
      </g>
     </g>
    </g>
    <g id="xtick_11">
     <g id="line2d_42">
      <path d="M 542.926989 342 
L 542.926989 64.8 
" clip-path="url(#pef1c0a9e18)" style="fill: none; stroke: #b0b0b0; stroke-opacity: 0.3; stroke-width: 0.8; stroke-linecap: square"/>
     </g>
     <g id="line2d_43">
      <g>
       <use xlink:href="#me6120ada33" x="542.926989" y="342" style="stroke: #000000; stroke-width: 0.8"/>
      </g>
     </g>
     <g id="text_19">
      <!-- 0 -->
      <g transform="translate(539.109489 358.118125) scale(0.12 -0.12)">
       <use xlink:href="#DejaVuSans-30"/>
      </g>
     </g>
    </g>
    <g id="xtick_12">
     <g id="line2d_44">
      <path d="M 589.126989 342 
L 589.126989 64.8 
" clip-path="url(#pef1c0a9e18)" style="fill: none; stroke: #b0b0b0; stroke-opacity: 0.3; stroke-width: 0.8; stroke-linecap: square"/>
     </g>
     <g id="line2d_45">
      <g>
       <use xlink:href="#me6120ada33" x="589.126989" y="342" style="stroke: #000000; stroke-width: 0.8"/>
      </g>
     </g>
     <g id="text_20">
      <!-- 1 -->
      <g transform="translate(585.309489 358.118125) scale(0.12 -0.12)">
       <use xlink:href="#DejaVuSans-31"/>
      </g>
     </g>
    </g>
    <g id="xtick_13">
     <g id="line2d_46">
      <path d="M 635.326989 342 
L 635.326989 64.8 
" clip-path="url(#pef1c0a9e18)" style="fill: none; stroke: #b0b0b0; stroke-opacity: 0.3; stroke-width: 0.8; stroke-linecap: square"/>
     </g>
     <g id="line2d_47">
      <g>
       <use xlink:href="#me6120ada33" x="635.326989" y="342" style="stroke: #000000; stroke-width: 0.8"/>
      </g>
     </g>
     <g id="text_21">
      <!-- 2 -->
      <g transform="translate(631.509489 358.118125) scale(0.12 -0.12)">
       <use xlink:href="#DejaVuSans-32"/>
      </g>
     </g>
    </g>
    <g id="xtick_14">
     <g id="line2d_48">
      <path d="M 681.526989 342 
L 681.526989 64.8 
" clip-path="url(#pef1c0a9e18)" style="fill: none; stroke: #b0b0b0; stroke-opacity: 0.3; stroke-width: 0.8; stroke-linecap: square"/>
     </g>
     <g id="line2d_49">
      <g>
       <use xlink:href="#me6120ada33" x="681.526989" y="342" style="stroke: #000000; stroke-width: 0.8"/>
      </g>
     </g>
     <g id="text_22">
      <!-- 3 -->
      <g transform="translate(677.709489 358.118125) scale(0.12 -0.12)">
       <use xlink:href="#DejaVuSans-33"/>
      </g>
     </g>
    </g>
   </g>
   <g id="matplotlib.axis_4">
    <g id="ytick_8">
     <g id="line2d_50">
      <path d="M 404.326989 342 
L 681.526989 342 
" clip-path="url(#pef1c0a9e18)" style="fill: none; stroke: #b0b0b0; stroke-opacity: 0.3; stroke-width: 0.8; stroke-linecap: square"/>
     </g>
     <g id="line2d_51">
      <g>
       <use xlink:href="#ma32a9b52f7" x="404.326989" y="342" style="stroke: #000000; stroke-width: 0.8"/>
      </g>
     </g>
     <g id="text_23">
      <!-- −3 -->
      <g transform="translate(379.636364 346.559063) scale(0.12 -0.12)">
       <use xlink:href="#DejaVuSans-2212"/>
       <use xlink:href="#DejaVuSans-33" transform="translate(83.789062 0)"/>
      </g>
     </g>
    </g>
    <g id="ytick_9">
     <g id="line2d_52">
      <path d="M 404.326989 295.8 
L 681.526989 295.8 
" clip-path="url(#pef1c0a9e18)" style="fill: none; stroke: #b0b0b0; stroke-opacity: 0.3; stroke-width: 0.8; stroke-linecap: square"/>
     </g>
     <g id="line2d_53">
      <g>
       <use xlink:href="#ma32a9b52f7" x="404.326989" y="295.8" style="stroke: #000000; stroke-width: 0.8"/>
      </g>
     </g>
     <g id="text_24">
      <!-- −2 -->
      <g transform="translate(379.636364 300.359063) scale(0.12 -0.12)">
       <use xlink:href="#DejaVuSans-2212"/>
       <use xlink:href="#DejaVuSans-32" transform="translate(83.789062 0)"/>
      </g>
     </g>
    </g>
    <g id="ytick_10">
     <g id="line2d_54">
      <path d="M 404.326989 249.6 
L 681.526989 249.6 
" clip-path="url(#pef1c0a9e18)" style="fill: none; stroke: #b0b0b0; stroke-opacity: 0.3; stroke-width: 0.8; stroke-linecap: square"/>
     </g>
     <g id="line2d_55">
      <g>
       <use xlink:href="#ma32a9b52f7" x="404.326989" y="249.6" style="stroke: #000000; stroke-width: 0.8"/>
      </g>
     </g>
     <g id="text_25">
      <!-- −1 -->
      <g transform="translate(379.636364 254.159063) scale(0.12 -0.12)">
       <use xlink:href="#DejaVuSans-2212"/>
       <use xlink:href="#DejaVuSans-31" transform="translate(83.789062 0)"/>
      </g>
     </g>
    </g>
    <g id="ytick_11">
     <g id="line2d_56">
      <path d="M 404.326989 203.4 
L 681.526989 203.4 
" clip-path="url(#pef1c0a9e18)" style="fill: none; stroke: #b0b0b0; stroke-opacity: 0.3; stroke-width: 0.8; stroke-linecap: square"/>
     </g>
     <g id="line2d_57">
      <g>
       <use xlink:href="#ma32a9b52f7" x="404.326989" y="203.4" style="stroke: #000000; stroke-width: 0.8"/>
      </g>
     </g>
     <g id="text_26">
      <!-- 0 -->
      <g transform="translate(389.691989 207.959063) scale(0.12 -0.12)">
       <use xlink:href="#DejaVuSans-30"/>
      </g>
     </g>
    </g>
    <g id="ytick_12">
     <g id="line2d_58">
      <path d="M 404.326989 157.2 
L 681.526989 157.2 
" clip-path="url(#pef1c0a9e18)" style="fill: none; stroke: #b0b0b0; stroke-opacity: 0.3; stroke-width: 0.8; stroke-linecap: square"/>
     </g>
     <g id="line2d_59">
      <g>
       <use xlink:href="#ma32a9b52f7" x="404.326989" y="157.2" style="stroke: #000000; stroke-width: 0.8"/>
      </g>
     </g>
     <g id="text_27">
      <!-- 1 -->
      <g transform="translate(389.691989 161.759063) scale(0.12 -0.12)">
       <use xlink:href="#DejaVuSans-31"/>
      </g>
     </g>
    </g>
    <g id="ytick_13">
     <g id="line2d_60">
      <path d="M 404.326989 111 
L 681.526989 111 
" clip-path="url(#pef1c0a9e18)" style="fill: none; stroke: #b0b0b0; stroke-opacity: 0.3; stroke-width: 0.8; stroke-linecap: square"/>
     </g>
     <g id="line2d_61">
      <g>
       <use xlink:href="#ma32a9b52f7" x="404.326989" y="111" style="stroke: #000000; stroke-width: 0.8"/>
      </g>
     </g>
     <g id="text_28">
      <!-- 2 -->
      <g transform="translate(389.691989 115.559063) scale(0.12 -0.12)">
       <use xlink:href="#DejaVuSans-32"/>
      </g>
     </g>
    </g>
    <g id="ytick_14">
     <g id="line2d_62">
      <path d="M 404.326989 64.8 
L 681.526989 64.8 
" clip-path="url(#pef1c0a9e18)" style="fill: none; stroke: #b0b0b0; stroke-opacity: 0.3; stroke-width: 0.8; stroke-linecap: square"/>
     </g>
     <g id="line2d_63">
      <g>
       <use xlink:href="#ma32a9b52f7" x="404.326989" y="64.8" style="stroke: #000000; stroke-width: 0.8"/>
      </g>
     </g>
     <g id="text_29">
      <!-- 3 -->
      <g transform="translate(389.691989 69.359062) scale(0.12 -0.12)">
       <use xlink:href="#DejaVuSans-33"/>
      </g>
     </g>
    </g>
   </g>
   <g id="line2d_64">
    <path d="M 612.226989 203.4 
L 542.926989 134.1 
L 473.626989 203.4 
L 542.926989 272.7 
L 612.226989 203.4 
" clip-path="url(#pef1c0a9e18)" style="fill: none; stroke: #16a34a; stroke-width: 2; stroke-linecap: square"/>
   </g>
   <g id="line2d_65">
    <path d="M 658.426989 166.44 
L 658.240958 162.296093 
L 657.683613 158.168871 
L 656.7572 154.074955 
L 655.465449 150.030828 
L 653.81356 146.052775 
L 651.808186 142.156814 
L 649.457401 138.358633 
L 646.770671 134.673526 
L 643.758815 131.116331 
L 640.43396 127.701372 
L 636.809495 124.4424 
L 632.900014 121.352538 
L 628.721258 118.444226 
L 624.290055 115.729177 
L 619.624247 113.218323 
L 614.742622 110.921773 
L 609.664836 108.848775 
L 604.411336 107.007678 
L 599.003276 105.405893 
L 593.462431 104.049871 
L 587.811114 102.945072 
L 582.07208 102.095944 
L 576.268438 101.505908 
L 570.423558 101.177338 
L 564.560974 101.111557 
L 558.704293 101.308832 
L 552.877098 101.768366 
L 547.102853 102.488311 
L 541.404808 103.465766 
L 535.805909 104.696797 
L 530.328699 106.176445 
L 524.995234 107.898754 
L 519.826989 109.856787 
L 514.844775 112.042661 
L 510.068654 114.447574 
L 505.517857 117.061842 
L 501.210709 119.874939 
L 497.164553 122.875536 
L 493.395683 126.051552 
L 489.919273 129.390199 
L 486.749321 132.878032 
L 483.898593 136.501007 
L 481.378567 140.244535 
L 479.19939 144.093544 
L 477.369838 148.032534 
L 475.897276 152.045644 
L 474.787635 156.116715 
L 474.045383 160.229355 
L 473.673508 164.367003 
L 473.673508 168.512997 
L 474.045383 172.650645 
L 474.787635 176.763285 
L 475.897276 180.834356 
L 477.369838 184.847466 
L 479.19939 188.786456 
L 481.378567 192.635465 
L 483.898593 196.378993 
L 486.749321 200.001968 
L 489.919273 203.489801 
L 493.395683 206.828448 
L 497.164553 210.004464 
L 501.210709 213.005061 
L 505.517857 215.818158 
L 510.068654 218.432426 
L 514.844775 220.837339 
L 519.826989 223.023213 
L 524.995234 224.981246 
L 530.328699 226.703555 
L 535.805909 228.183203 
L 541.404808 229.414234 
L 547.102853 230.391689 
L 552.877098 231.111634 
L 558.704293 231.571168 
L 564.560974 231.768443 
L 570.423558 231.702662 
L 576.268438 231.374092 
L 582.07208 230.784056 
L 587.811114 229.934928 
L 593.462431 228.830129 
L 599.003276 227.474107 
L 604.411336 225.872322 
L 609.664836 224.031225 
L 614.742622 221.958227 
L 619.624247 219.661677 
L 624.290055 217.150823 
L 628.721258 214.435774 
L 632.900014 211.527462 
L 636.809495 208.4376 
L 640.43396 205.178628 
L 643.758815 201.763669 
L 646.770671 198.206474 
L 649.457401 194.521367 
L 651.808186 190.723186 
L 653.81356 186.827225 
L 655.465449 182.849172 
L 656.7572 178.805045 
L 657.683613 174.711129 
L 658.240958 170.583907 
L 658.426989 166.44 
" clip-path="url(#pef1c0a9e18)" style="fill: none; stroke: #dc2626; stroke-opacity: 0.3; stroke-linecap: square"/>
   </g>
   <g id="line2d_66">
    <path d="M 700.744489 126.567377 
L 697.942053 122.03946 
L 693.69396 116.212794 
L 688.931798 110.588376 
L 683.674741 105.188852 
L 677.943958 100.035964 
L 671.762525 95.150463 
L 665.155333 90.552019 
L 658.148985 86.259149 
L 650.771695 82.289139 
L 643.053168 78.657975 
L 635.024483 75.380279 
L 626.71797 72.469247 
L 618.167076 69.936603 
L 609.406232 67.792544 
L 600.470716 66.045703 
L 591.396506 64.703115 
L 582.220142 63.770185 
L 572.978575 63.25067 
L 563.709015 63.146663 
L 554.44879 63.458581 
L 545.235185 64.185169 
L 536.105302 65.323501 
L 527.095903 66.868994 
L 518.243266 68.815424 
L 509.583037 71.154953 
L 501.150088 73.878162 
L 492.978375 76.974085 
L 485.100803 80.430255 
L 477.549092 84.232756 
L 470.353651 88.366277 
L 463.543452 92.814173 
L 457.145918 97.558535 
L 451.186811 102.580257 
L 445.690123 107.859121 
L 440.67799 113.373868 
L 436.170594 119.102295 
L 432.186083 125.021334 
L 428.740502 131.107151 
L 425.847725 137.335241 
L 423.519401 143.680525 
L 421.764904 150.117454 
L 420.5913 156.620108 
L 420.003314 163.162303 
L 420.003314 169.717697 
L 420.5913 176.259892 
L 421.764904 182.762546 
L 423.519401 189.199475 
L 425.847725 195.544759 
L 428.740502 201.772849 
L 432.186083 207.858666 
L 436.170594 213.777705 
L 440.67799 219.506132 
L 445.690123 225.020879 
L 451.186811 230.299743 
L 457.145918 235.321465 
L 463.543452 240.065827 
L 470.353651 244.513723 
L 477.549092 248.647244 
L 485.100803 252.449745 
L 492.978375 255.905915 
L 501.150088 259.001838 
L 509.583037 261.725047 
L 518.243266 264.064576 
L 527.095903 266.011006 
L 536.105302 267.556499 
L 545.235185 268.694831 
L 554.44879 269.421419 
L 563.709015 269.733337 
L 572.978575 269.62933 
L 582.220142 269.109815 
L 591.396506 268.176885 
L 600.470716 266.834297 
L 609.406232 265.087456 
L 618.167076 262.943397 
L 626.71797 260.410753 
L 635.024483 257.499721 
L 643.053168 254.222025 
L 650.771695 250.590861 
L 658.148985 246.620851 
L 665.155333 242.327981 
L 671.762525 237.729537 
L 677.943958 232.844036 
L 683.674741 227.691148 
L 688.931798 222.291624 
L 693.69396 216.667206 
L 697.942053 210.84054 
L 700.744489 206.312623 
" clip-path="url(#pef1c0a9e18)" style="fill: none; stroke: #dc2626; stroke-opacity: 0.3; stroke-linecap: square"/>
   </g>
   <g id="line2d_67">
    <path d="M 700.744489 55.765952 
L 696.307166 53.047153 
L 685.874102 47.432711 
L 674.958456 42.29747 
L 663.604182 37.662107 
L 651.856998 33.545287 
L 639.764208 29.963587 
L 627.374503 26.93143 
L 614.737774 24.461024 
L 601.904904 22.562317 
L 588.927566 21.242955 
L 575.858016 20.508251 
L 562.748879 20.361162 
L 549.652943 20.802281 
L 536.622938 21.829831 
L 523.711334 23.439676 
L 510.97012 25.625333 
L 498.4506 28.378 
L 486.203186 31.686594 
L 474.277195 35.537793 
L 462.720648 39.916089 
L 451.580079 44.803852 
L 440.900347 50.181401 
L 430.724457 56.027082 
L 421.093381 62.317357 
L 412.045903 69.026897 
L 403.618451 76.128686 
L 395.844962 83.594126 
L 388.756735 91.393157 
L 382.382314 99.494375 
L 376.747364 107.86516 
L 371.874577 116.471805 
L 367.783573 125.279654 
L 364.490825 134.253242 
L 362.009592 143.356434 
L 360.349866 152.552576 
L 359.518328 161.804637 
L 359.518328 171.075363 
L 360.349866 180.327424 
L 362.009592 189.523566 
L 364.490825 198.626758 
L 367.783573 207.600346 
L 371.874577 216.408195 
L 376.747364 225.01484 
L 382.382314 233.385625 
L 388.756735 241.486843 
L 395.844962 249.285874 
L 403.618451 256.751314 
L 412.045903 263.853103 
L 421.093381 270.562643 
L 430.724457 276.852918 
L 440.900347 282.698599 
L 451.580079 288.076148 
L 462.720648 292.963911 
L 474.277195 297.342207 
L 486.203186 301.193406 
L 498.4506 304.502 
L 510.97012 307.254667 
L 523.711334 309.440324 
L 536.622938 311.050169 
L 549.652943 312.077719 
L 562.748879 312.518838 
L 575.858016 312.371749 
L 588.927566 311.637045 
L 601.904904 310.317683 
L 614.737774 308.418976 
L 627.374503 305.94857 
L 639.764208 302.916413 
L 651.856998 299.334713 
L 663.604182 295.217893 
L 674.958456 290.58253 
L 685.874102 285.447289 
L 696.307166 279.832847 
L 700.744489 277.114048 
" clip-path="url(#pef1c0a9e18)" style="fill: none; stroke: #dc2626; stroke-opacity: 0.3; stroke-linecap: square"/>
   </g>
   <g id="line2d_68">
    <path d="M 404.326989 203.4 
L 681.526989 203.4 
" clip-path="url(#pef1c0a9e18)" style="fill: none; stroke: #808080; stroke-width: 0.5; stroke-linecap: square"/>
   </g>
   <g id="line2d_69">
    <path d="M 542.926989 342 
L 542.926989 64.8 
" clip-path="url(#pef1c0a9e18)" style="fill: none; stroke: #808080; stroke-width: 0.5; stroke-linecap: square"/>
   </g>
   <g id="line2d_70">
    <g clip-path="url(#pef1c0a9e18)">
     <use xlink:href="#me0420568c7" x="542.926989" y="166.44" style="stroke: #000000"/>
    </g>
   </g>
   <g id="line2d_71">
    <defs>
     <path id="m5f2c57fd63" d="M -4 4 
L 4 -4 
M -4 -4 
L 4 4 
" style="stroke: #000000; stroke-width: 2"/>
    </defs>
    <g clip-path="url(#pef1c0a9e18)">
     <use xlink:href="#m5f2c57fd63" x="542.926989" y="203.4" style="stroke: #000000; stroke-width: 2"/>
    </g>
   </g>
   <g id="patch_8">
    <path d="M 404.326989 342 
L 404.326989 64.8 
" style="fill: none; stroke: #000000; stroke-width: 0.8; stroke-linejoin: miter; stroke-linecap: square"/>
   </g>
   <g id="patch_9">
    <path d="M 681.526989 342 
L 681.526989 64.8 
" style="fill: none; stroke: #000000; stroke-width: 0.8; stroke-linejoin: miter; stroke-linecap: square"/>
   </g>
   <g id="patch_10">
    <path d="M 404.326989 342 
L 681.526989 342 
" style="fill: none; stroke: #000000; stroke-width: 0.8; stroke-linejoin: miter; stroke-linecap: square"/>
   </g>
   <g id="patch_11">
    <path d="M 404.326989 64.8 
L 681.526989 64.8 
" style="fill: none; stroke: #000000; stroke-width: 0.8; stroke-linejoin: miter; stroke-linecap: square"/>
   </g>
   <g id="text_30">
    <!-- Sparse -->
    <g style="fill: #16a34a" transform="translate(549.856989 215.302188) scale(0.1 -0.1)">
     <defs>
      <path id="DejaVuSans-53" d="M 3425 4513 
L 3425 3897 
Q 3066 4069 2747 4153 
Q 2428 4238 2131 4238 
Q 1616 4238 1336 4038 
Q 1056 3838 1056 3469 
Q 1056 3159 1242 3001 
Q 1428 2844 1947 2747 
L 2328 2669 
Q 3034 2534 3370 2195 
Q 3706 1856 3706 1288 
Q 3706 609 3251 259 
Q 2797 -91 1919 -91 
Q 1588 -91 1214 -16 
Q 841 59 441 206 
L 441 856 
Q 825 641 1194 531 
Q 1563 422 1919 422 
Q 2459 422 2753 634 
Q 3047 847 3047 1241 
Q 3047 1584 2836 1778 
Q 2625 1972 2144 2069 
L 1759 2144 
Q 1053 2284 737 2584 
Q 422 2884 422 3419 
Q 422 4038 858 4394 
Q 1294 4750 2059 4750 
Q 2388 4750 2728 4690 
Q 3069 4631 3425 4513 
z
" transform="scale(0.015625)"/>
     </defs>
     <use xlink:href="#DejaVuSans-53"/>
     <use xlink:href="#DejaVuSans-70" transform="translate(63.476562 0)"/>
     <use xlink:href="#DejaVuSans-61" transform="translate(126.953125 0)"/>
     <use xlink:href="#DejaVuSans-72" transform="translate(188.232422 0)"/>
     <use xlink:href="#DejaVuSans-73" transform="translate(229.345703 0)"/>
     <use xlink:href="#DejaVuSans-65" transform="translate(281.445312 0)"/>
    </g>
    <!-- solution -->
    <g style="fill: #16a34a" transform="translate(549.856989 226.5) scale(0.1 -0.1)">
     <defs>
      <path id="DejaVuSans-75" d="M 544 1381 
L 544 3500 
L 1119 3500 
L 1119 1403 
Q 1119 906 1312 657 
Q 1506 409 1894 409 
Q 2359 409 2629 706 
Q 2900 1003 2900 1516 
L 2900 3500 
L 3475 3500 
L 3475 0 
L 2900 0 
L 2900 538 
Q 2691 219 2414 64 
Q 2138 -91 1772 -91 
Q 1169 -91 856 284 
Q 544 659 544 1381 
z
M 1991 3584 
L 1991 3584 
z
" transform="scale(0.015625)"/>
      <path id="DejaVuSans-6e" d="M 3513 2113 
L 3513 0 
L 2938 0 
L 2938 2094 
Q 2938 2591 2744 2837 
Q 2550 3084 2163 3084 
Q 1697 3084 1428 2787 
Q 1159 2491 1159 1978 
L 1159 0 
L 581 0 
L 581 3500 
L 1159 3500 
L 1159 2956 
Q 1366 3272 1645 3428 
Q 1925 3584 2291 3584 
Q 2894 3584 3203 3211 
Q 3513 2838 3513 2113 
z
" transform="scale(0.015625)"/>
     </defs>
     <use xlink:href="#DejaVuSans-73"/>
     <use xlink:href="#DejaVuSans-6f" transform="translate(52.099609 0)"/>
     <use xlink:href="#DejaVuSans-6c" transform="translate(113.28125 0)"/>
     <use xlink:href="#DejaVuSans-75" transform="translate(141.064453 0)"/>
     <use xlink:href="#DejaVuSans-74" transform="translate(204.443359 0)"/>
     <use xlink:href="#DejaVuSans-69" transform="translate(243.652344 0)"/>
     <use xlink:href="#DejaVuSans-6f" transform="translate(271.435547 0)"/>
     <use xlink:href="#DejaVuSans-6e" transform="translate(332.617188 0)"/>
    </g>
   </g>
   <g id="text_31">
    <!-- L1: Diamond corners → Sparsity -->
    <g transform="translate(431.155582 58.8) scale(0.14 -0.14)">
     <defs>
      <path id="DejaVuSans-44" d="M 1259 4147 
L 1259 519 
L 2022 519 
Q 2988 519 3436 956 
Q 3884 1394 3884 2338 
Q 3884 3275 3436 3711 
Q 2988 4147 2022 4147 
L 1259 4147 
z
M 628 4666 
L 1925 4666 
Q 3281 4666 3915 4102 
Q 4550 3538 4550 2338 
Q 4550 1131 3912 565 
Q 3275 0 1925 0 
L 628 0 
L 628 4666 
z
" transform="scale(0.015625)"/>
      <path id="DejaVuSans-6d" d="M 3328 2828 
Q 3544 3216 3844 3400 
Q 4144 3584 4550 3584 
Q 5097 3584 5394 3201 
Q 5691 2819 5691 2113 
L 5691 0 
L 5113 0 
L 5113 2094 
Q 5113 2597 4934 2840 
Q 4756 3084 4391 3084 
Q 3944 3084 3684 2787 
Q 3425 2491 3425 1978 
L 3425 0 
L 2847 0 
L 2847 2094 
Q 2847 2600 2669 2842 
Q 2491 3084 2119 3084 
Q 1678 3084 1418 2786 
Q 1159 2488 1159 1978 
L 1159 0 
L 581 0 
L 581 3500 
L 1159 3500 
L 1159 2956 
Q 1356 3278 1631 3431 
Q 1906 3584 2284 3584 
Q 2666 3584 2933 3390 
Q 3200 3197 3328 2828 
z
" transform="scale(0.015625)"/>
      <path id="DejaVuSans-64" d="M 2906 2969 
L 2906 4863 
L 3481 4863 
L 3481 0 
L 2906 0 
L 2906 525 
Q 2725 213 2448 61 
Q 2172 -91 1784 -91 
Q 1150 -91 751 415 
Q 353 922 353 1747 
Q 353 2572 751 3078 
Q 1150 3584 1784 3584 
Q 2172 3584 2448 3432 
Q 2725 3281 2906 2969 
z
M 947 1747 
Q 947 1113 1208 752 
Q 1469 391 1925 391 
Q 2381 391 2643 752 
Q 2906 1113 2906 1747 
Q 2906 2381 2643 2742 
Q 2381 3103 1925 3103 
Q 1469 3103 1208 2742 
Q 947 2381 947 1747 
z
" transform="scale(0.015625)"/>
     </defs>
     <use xlink:href="#DejaVuSans-4c"/>
     <use xlink:href="#DejaVuSans-31" transform="translate(55.712891 0)"/>
     <use xlink:href="#DejaVuSans-3a" transform="translate(119.335938 0)"/>
     <use xlink:href="#DejaVuSans-20" transform="translate(153.027344 0)"/>
     <use xlink:href="#DejaVuSans-44" transform="translate(184.814453 0)"/>
     <use xlink:href="#DejaVuSans-69" transform="translate(261.816406 0)"/>
     <use xlink:href="#DejaVuSans-61" transform="translate(289.599609 0)"/>
     <use xlink:href="#DejaVuSans-6d" transform="translate(350.878906 0)"/>
     <use xlink:href="#DejaVuSans-6f" transform="translate(448.291016 0)"/>
     <use xlink:href="#DejaVuSans-6e" transform="translate(509.472656 0)"/>
     <use xlink:href="#DejaVuSans-64" transform="translate(572.851562 0)"/>
     <use xlink:href="#DejaVuSans-20" transform="translate(636.328125 0)"/>
     <use xlink:href="#DejaVuSans-63" transform="translate(668.115234 0)"/>
     <use xlink:href="#DejaVuSans-6f" transform="translate(723.095703 0)"/>
     <use xlink:href="#DejaVuSans-72" transform="translate(784.277344 0)"/>
     <use xlink:href="#DejaVuSans-6e" transform="translate(823.640625 0)"/>
     <use xlink:href="#DejaVuSans-65" transform="translate(887.019531 0)"/>
     <use xlink:href="#DejaVuSans-72" transform="translate(948.542969 0)"/>
     <use xlink:href="#DejaVuSans-73" transform="translate(989.65625 0)"/>
     <use xlink:href="#DejaVuSans-20" transform="translate(1041.755859 0)"/>
     <use xlink:href="#DejaVuSans-2192" transform="translate(1073.542969 0)"/>
     <use xlink:href="#DejaVuSans-20" transform="translate(1157.332031 0)"/>
     <use xlink:href="#DejaVuSans-53" transform="translate(1189.119141 0)"/>
     <use xlink:href="#DejaVuSans-70" transform="translate(1252.595703 0)"/>
     <use xlink:href="#DejaVuSans-61" transform="translate(1316.072266 0)"/>
     <use xlink:href="#DejaVuSans-72" transform="translate(1377.351562 0)"/>
     <use xlink:href="#DejaVuSans-73" transform="translate(1418.464844 0)"/>
     <use xlink:href="#DejaVuSans-69" transform="translate(1470.564453 0)"/>
     <use xlink:href="#DejaVuSans-74" transform="translate(1498.347656 0)"/>
     <use xlink:href="#DejaVuSans-79" transform="translate(1537.556641 0)"/>
    </g>
   </g>
  </g>
  <g id="text_32">
   <!-- L1 vs L2 Regularization: Geometric Interpretation -->
   <g transform="translate(176.465526 25.037813) scale(0.14 -0.14)">
    <defs>
     <path id="DejaVuSans-76" d="M 191 3500 
L 800 3500 
L 1894 563 
L 2988 3500 
L 3597 3500 
L 2284 0 
L 1503 0 
L 191 3500 
z
" transform="scale(0.015625)"/>
     <path id="DejaVuSans-52" d="M 2841 2188 
Q 3044 2119 3236 1894 
Q 3428 1669 3622 1275 
L 4263 0 
L 3584 0 
L 2988 1197 
Q 2756 1666 2539 1819 
Q 2322 1972 1947 1972 
L 1259 1972 
L 1259 0 
L 628 0 
L 628 4666 
L 2053 4666 
Q 2853 4666 3247 4331 
Q 3641 3997 3641 3322 
Q 3641 2881 3436 2590 
Q 3231 2300 2841 2188 
z
M 1259 4147 
L 1259 2491 
L 2053 2491 
Q 2509 2491 2742 2702 
Q 2975 2913 2975 3322 
Q 2975 3731 2742 3939 
Q 2509 4147 2053 4147 
L 1259 4147 
z
" transform="scale(0.015625)"/>
     <path id="DejaVuSans-67" d="M 2906 1791 
Q 2906 2416 2648 2759 
Q 2391 3103 1925 3103 
Q 1463 3103 1205 2759 
Q 947 2416 947 1791 
Q 947 1169 1205 825 
Q 1463 481 1925 481 
Q 2391 481 2648 825 
Q 2906 1169 2906 1791 
z
M 3481 434 
Q 3481 -459 3084 -895 
Q 2688 -1331 1869 -1331 
Q 1566 -1331 1297 -1286 
Q 1028 -1241 775 -1147 
L 775 -588 
Q 1028 -725 1275 -790 
Q 1522 -856 1778 -856 
Q 2344 -856 2625 -561 
Q 2906 -266 2906 331 
L 2906 616 
Q 2728 306 2450 153 
Q 2172 0 1784 0 
Q 1141 0 747 490 
Q 353 981 353 1791 
Q 353 2603 747 3093 
Q 1141 3584 1784 3584 
Q 2172 3584 2450 3431 
Q 2728 3278 2906 2969 
L 2906 3500 
L 3481 3500 
L 3481 434 
z
" transform="scale(0.015625)"/>
     <path id="DejaVuSans-7a" d="M 353 3500 
L 3084 3500 
L 3084 2975 
L 922 459 
L 3084 459 
L 3084 0 
L 275 0 
L 275 525 
L 2438 3041 
L 353 3041 
L 353 3500 
z
" transform="scale(0.015625)"/>
     <path id="DejaVuSans-47" d="M 3809 666 
L 3809 1919 
L 2778 1919 
L 2778 2438 
L 4434 2438 
L 4434 434 
Q 4069 175 3628 42 
Q 3188 -91 2688 -91 
Q 1594 -91 976 548 
Q 359 1188 359 2328 
Q 359 3472 976 4111 
Q 1594 4750 2688 4750 
Q 3144 4750 3555 4637 
Q 3966 4525 4313 4306 
L 4313 3634 
Q 3963 3931 3569 4081 
Q 3175 4231 2741 4231 
Q 1884 4231 1454 3753 
Q 1025 3275 1025 2328 
Q 1025 1384 1454 906 
Q 1884 428 2741 428 
Q 3075 428 3337 486 
Q 3600 544 3809 666 
z
" transform="scale(0.015625)"/>
     <path id="DejaVuSans-49" d="M 628 4666 
L 1259 4666 
L 1259 0 
L 628 0 
L 628 4666 
z
" transform="scale(0.015625)"/>
    </defs>
    <use xlink:href="#DejaVuSans-4c"/>
    <use xlink:href="#DejaVuSans-31" transform="translate(55.712891 0)"/>
    <use xlink:href="#DejaVuSans-20" transform="translate(119.335938 0)"/>
    <use xlink:href="#DejaVuSans-76" transform="translate(151.123047 0)"/>
    <use xlink:href="#DejaVuSans-73" transform="translate(210.302734 0)"/>
    <use xlink:href="#DejaVuSans-20" transform="translate(262.402344 0)"/>
    <use xlink:href="#DejaVuSans-4c" transform="translate(294.189453 0)"/>
    <use xlink:href="#DejaVuSans-32" transform="translate(349.902344 0)"/>
    <use xlink:href="#DejaVuSans-20" transform="translate(413.525391 0)"/>
    <use xlink:href="#DejaVuSans-52" transform="translate(445.3125 0)"/>
    <use xlink:href="#DejaVuSans-65" transform="translate(510.294922 0)"/>
    <use xlink:href="#DejaVuSans-67" transform="translate(571.818359 0)"/>
    <use xlink:href="#DejaVuSans-75" transform="translate(635.294922 0)"/>
    <use xlink:href="#DejaVuSans-6c" transform="translate(698.673828 0)"/>
    <use xlink:href="#DejaVuSans-61" transform="translate(726.457031 0)"/>
    <use xlink:href="#DejaVuSans-72" transform="translate(787.736328 0)"/>
    <use xlink:href="#DejaVuSans-69" transform="translate(828.849609 0)"/>
    <use xlink:href="#DejaVuSans-7a" transform="translate(856.632812 0)"/>
    <use xlink:href="#DejaVuSans-61" transform="translate(909.123047 0)"/>
    <use xlink:href="#DejaVuSans-74" transform="translate(970.402344 0)"/>
    <use xlink:href="#DejaVuSans-69" transform="translate(1009.611328 0)"/>
    <use xlink:href="#DejaVuSans-6f" transform="translate(1037.394531 0)"/>
    <use xlink:href="#DejaVuSans-6e" transform="translate(1098.576172 0)"/>
    <use xlink:href="#DejaVuSans-3a" transform="translate(1161.955078 0)"/>
    <use xlink:href="#DejaVuSans-20" transform="translate(1195.646484 0)"/>
    <use xlink:href="#DejaVuSans-47" transform="translate(1227.433594 0)"/>
    <use xlink:href="#DejaVuSans-65" transform="translate(1304.923828 0)"/>
    <use xlink:href="#DejaVuSans-6f" transform="translate(1366.447266 0)"/>
    <use xlink:href="#DejaVuSans-6d" transform="translate(1427.628906 0)"/>
    <use xlink:href="#DejaVuSans-65" transform="translate(1525.041016 0)"/>
    <use xlink:href="#DejaVuSans-74" transform="translate(1586.564453 0)"/>
    <use xlink:href="#DejaVuSans-72" transform="translate(1625.773438 0)"/>
    <use xlink:href="#DejaVuSans-69" transform="translate(1666.886719 0)"/>
    <use xlink:href="#DejaVuSans-63" transform="translate(1694.669922 0)"/>
    <use xlink:href="#DejaVuSans-20" transform="translate(1749.650391 0)"/>
    <use xlink:href="#DejaVuSans-49" transform="translate(1781.4375 0)"/>
    <use xlink:href="#DejaVuSans-6e" transform="translate(1810.929688 0)"/>
    <use xlink:href="#DejaVuSans-74" transform="translate(1874.308594 0)"/>
    <use xlink:href="#DejaVuSans-65" transform="translate(1913.517578 0)"/>
    <use xlink:href="#DejaVuSans-72" transform="translate(1975.041016 0)"/>
    <use xlink:href="#DejaVuSans-70" transform="translate(2016.154297 0)"/>
    <use xlink:href="#DejaVuSans-72" transform="translate(2079.630859 0)"/>
    <use xlink:href="#DejaVuSans-65" transform="translate(2118.494141 0)"/>
    <use xlink:href="#DejaVuSans-74" transform="translate(2180.017578 0)"/>
    <use xlink:href="#DejaVuSans-61" transform="translate(2219.226562 0)"/>
    <use xlink:href="#DejaVuSans-74" transform="translate(2280.505859 0)"/>
    <use xlink:href="#DejaVuSans-69" transform="translate(2319.714844 0)"/>
    <use xlink:href="#DejaVuSans-6f" transform="translate(2347.498047 0)"/>
    <use xlink:href="#DejaVuSans-6e" transform="translate(2408.679688 0)"/>
   </g>
  </g>
 </g>
 <defs>
  <clipPath id="p68257571ce">
   <rect x="39.090625" y="64.8" width="277.2" height="277.2"/>
  </clipPath>
  <clipPath id="pef1c0a9e18">
   <rect x="404.326989" y="64.8" width="277.2" height="277.2"/>
  </clipPath>
 </defs>
</svg>
