<svg xmlns="http://www.w3.org/2000/svg" viewBox="0 0 600 500" font-family="Arial, sans-serif">
  <defs>
    <marker id="arrow" viewBox="0 0 10 10" refX="5" refY="5" markerWidth="6" markerHeight="6" orient="auto-start-reverse">
      <path d="M 0 0 L 10 5 L 0 10 z" fill="#e03131"/>
    </marker>
  </defs>
  <rect width="600" height="500" fill="#f8f9fa" rx="8"/>
  <text x="300" y="35" text-anchor="middle" font-size="16" font-weight="bold" fill="#212529">梯度下降二维等高线可视化</text>
  <text x="300" y="55" text-anchor="middle" font-size="12" fill="#6c757d">Loss = (x-3)² + (y-2)²，初始点 (0, 0)</text>
  <ellipse cx="300" cy="250" rx="220" ry="160" fill="none" stroke="#dee2e6" stroke-width="1.5"/>
  <ellipse cx="300" cy="250" rx="190" ry="140" fill="none" stroke="#ced4da" stroke-width="1.5"/>
  <ellipse cx="300" cy="250" rx="160" ry="120" fill="none" stroke="#adb5bd" stroke-width="1.5"/>
  <ellipse cx="300" cy="250" rx="130" ry="95" fill="none" stroke="#868e96" stroke-width="1.5"/>
  <ellipse cx="300" cy="250" rx="100" ry="72" fill="none" stroke="#6c757d" stroke-width="1.5"/>
  <ellipse cx="300" cy="250" rx="70" ry="50" fill="none" stroke="#495057" stroke-width="1.5"/>
  <ellipse cx="300" cy="250" rx="40" ry="28" fill="none" stroke="#343a40" stroke-width="1.5"/>
  <ellipse cx="300" cy="250" rx="15" ry="10" fill="none" stroke="#212529" stroke-width="1.5"/>
  <polyline points="100,400 160,360 208,328 246,300 277,276 302,256 315,245 300,250" fill="none" stroke="#e03131" stroke-width="2.5" stroke-dasharray="6,3"/>
  <line x1="115" y1="393" x2="148" y2="367" stroke="#e03131" stroke-width="1.5" marker-end="url(#arrow)"/>
  <line x1="170" y1="353" x2="196" y2="335" stroke="#e03131" stroke-width="1.5" marker-end="url(#arrow)"/>
  <line x1="215" y1="323" x2="235" y2="307" stroke="#e03131" stroke-width="1.5" marker-end="url(#arrow)"/>
  <line x1="253" y1="295" x2="268" y2="282" stroke="#e03131" stroke-width="1.5" marker-end="url(#arrow)"/>
  <line x1="282" y1="272" x2="293" y2="261" stroke="#e03131" stroke-width="1.5" marker-end="url(#arrow)"/>
  <line x1="305" y1="253" x2="310" y2="248" stroke="#e03131" stroke-width="1.5" marker-end="url(#arrow)"/>
  <circle cx="100" cy="400" r="7" fill="#e03131" stroke="white" stroke-width="2"/>
  <text x="100" y="420" text-anchor="middle" font-size="10" fill="#e03131" font-weight="bold">t=0</text>
  <circle cx="160" cy="360" r="6" fill="#e03131" stroke="white" stroke-width="1.5"/>
  <text x="160" y="378" text-anchor="middle" font-size="10" fill="#e03131">t=1</text>
  <circle cx="208" cy="328" r="6" fill="#e03131" stroke="white" stroke-width="1.5"/>
  <text x="208" y="346" text-anchor="middle" font-size="10" fill="#e03131">t=2</text>
  <circle cx="246" cy="300" r="6" fill="#e03131" stroke="white" stroke-width="1.5"/>
  <text x="246" y="318" text-anchor="middle" font-size="10" fill="#e03131">t=3</text>
  <circle cx="277" cy="276" r="6" fill="#e03131" stroke="white" stroke-width="1.5"/>
  <text x="277" y="294" text-anchor="middle" font-size="10" fill="#e03131">t=4</text>
  <circle cx="302" cy="256" r="6" fill="#e03131" stroke="white" stroke-width="1.5"/>
  <text x="302" y="274" text-anchor="middle" font-size="10" fill="#e03131">t=5</text>
  <circle cx="300" cy="250" r="9" fill="#2b8a3e" stroke="white" stroke-width="2.5"/>
  <text x="300" y="238" text-anchor="middle" font-size="12" fill="#2b8a3e" font-weight="bold">最优解 (3,2)</text>
  <text x="100" y="438" text-anchor="middle" font-size="11" fill="#495057">起点 (0,0)</text>
  <rect x="380" y="350" width="200" height="110" rx="6" fill="white" stroke="#dee2e6" stroke-width="1"/>
  <text x="395" y="372" font-size="12" font-weight="bold" fill="#212529">图例</text>
  <line x1="395" y1="390" x2="425" y2="390" stroke="#e03131" stroke-width="2.5" stroke-dasharray="6,3"/>
  <text x="435" y="394" font-size="11" fill="#495057">梯度下降路径</text>
  <circle cx="405" cy="415" r="5" fill="#e03131" stroke="white" stroke-width="1.5"/>
  <text x="435" y="419" font-size="11" fill="#495057">每一步的参数值</text>
  <circle cx="405" cy="440" r="5" fill="#2b8a3e" stroke="white" stroke-width="1.5"/>
  <text x="435" y="444" font-size="11" fill="#495057">最小值点</text>
  <text x="300" y="490" text-anchor="middle" font-size="12" fill="#495057">参数 w₁</text>
  <text x="18" y="250" text-anchor="middle" font-size="12" fill="#495057" transform="rotate(-90, 18, 250)">参数 w₂</text>
</svg>