<?xml version="1.0" encoding="utf-8" standalone="no"?>
<!DOCTYPE svg PUBLIC "-//W3C//DTD SVG 1.1//EN"
  "http://www.w3.org/Graphics/SVG/1.1/DTD/svg11.dtd">
<svg xmlns:xlink="http://www.w3.org/1999/xlink" width="502.4975pt" height="342.76925pt" viewBox="0 0 502.4975 342.76925" xmlns="http://www.w3.org/2000/svg" version="1.1">
 <metadata>
  <rdf:RDF xmlns:dc="http://purl.org/dc/elements/1.1/" xmlns:cc="http://creativecommons.org/ns#" xmlns:rdf="http://www.w3.org/1999/02/22-rdf-syntax-ns#">
   <cc:Work>
    <dc:type rdf:resource="http://purl.org/dc/dcmitype/StillImage"/>
    <dc:date>2026-06-25T00:18:22.184263</dc:date>
    <dc:format>image/svg+xml</dc:format>
    <dc:creator>
     <cc:Agent>
      <dc:title>Matplotlib v3.10.0, https://matplotlib.org/</dc:title>
     </cc:Agent>
    </dc:creator>
   </cc:Work>
  </rdf:RDF>
 </metadata>
 <defs>
  <style type="text/css">*{stroke-linejoin: round; stroke-linecap: butt}</style>
 </defs>
 <g id="figure_1">
  <g id="patch_1">
   <path d="M 0 342.76925 
L 502.4975 342.76925 
L 502.4975 0 
L 0 0 
z
" style="fill: #ffffff"/>
  </g>
  <g id="axes_1">
   <g id="patch_2">
    <path d="M 48.8975 301.34175 
L 495.2975 301.34175 
L 495.2975 24.14175 
L 48.8975 24.14175 
z
" style="fill: #ffffff"/>
   </g>
   <g id="FillBetweenPolyCollection_1">
    <defs>
     <path id="m750eb44ff5" d="M 69.188409 -55.714098 
L 69.188409 -54.0275 
L 70.001672 -54.0275 
L 70.814935 -54.0275 
L 71.628198 -54.0275 
L 72.441461 -54.0275 
L 73.254724 -54.0275 
L 74.067986 -54.0275 
L 74.881249 -54.0275 
L 75.694512 -54.0275 
L 76.507775 -54.0275 
L 77.321038 -54.0275 
L 78.134301 -54.0275 
L 78.947564 -54.0275 
L 79.760827 -54.0275 
L 80.57409 -54.0275 
L 81.387352 -54.0275 
L 82.200615 -54.0275 
L 83.013878 -54.0275 
L 83.827141 -54.0275 
L 84.640404 -54.0275 
L 85.453667 -54.0275 
L 86.26693 -54.0275 
L 87.080193 -54.0275 
L 87.893456 -54.0275 
L 88.706718 -54.0275 
L 89.519981 -54.0275 
L 90.333244 -54.0275 
L 91.146507 -54.0275 
L 91.95977 -54.0275 
L 92.773033 -54.0275 
L 93.586296 -54.0275 
L 94.399559 -54.0275 
L 95.212822 -54.0275 
L 96.026084 -54.0275 
L 96.839347 -54.0275 
L 97.65261 -54.0275 
L 98.465873 -54.0275 
L 99.279136 -54.0275 
L 100.092399 -54.0275 
L 100.905662 -54.0275 
L 101.718925 -54.0275 
L 102.532188 -54.0275 
L 103.34545 -54.0275 
L 104.158713 -54.0275 
L 104.971976 -54.0275 
L 105.785239 -54.0275 
L 106.598502 -54.0275 
L 107.411765 -54.0275 
L 108.225028 -54.0275 
L 109.038291 -54.0275 
L 109.851554 -54.0275 
L 110.664816 -54.0275 
L 111.478079 -54.0275 
L 112.291342 -54.0275 
L 113.104605 -54.0275 
L 113.917868 -54.0275 
L 114.731131 -54.0275 
L 115.544394 -54.0275 
L 116.357657 -54.0275 
L 117.17092 -54.0275 
L 117.984182 -54.0275 
L 118.797445 -54.0275 
L 119.610708 -54.0275 
L 120.423971 -54.0275 
L 121.237234 -54.0275 
L 122.050497 -54.0275 
L 122.86376 -54.0275 
L 123.677023 -54.0275 
L 124.490286 -54.0275 
L 125.303548 -54.0275 
L 126.116811 -54.0275 
L 126.930074 -54.0275 
L 127.743337 -54.0275 
L 128.5566 -54.0275 
L 129.369863 -54.0275 
L 130.183126 -54.0275 
L 130.996389 -54.0275 
L 131.809652 -54.0275 
L 132.622914 -54.0275 
L 133.436177 -54.0275 
L 134.24944 -54.0275 
L 135.062703 -54.0275 
L 135.875966 -54.0275 
L 136.689229 -54.0275 
L 137.502492 -54.0275 
L 138.315755 -54.0275 
L 139.129018 -54.0275 
L 139.94228 -54.0275 
L 140.755543 -54.0275 
L 141.568806 -54.0275 
L 142.382069 -54.0275 
L 143.195332 -54.0275 
L 144.008595 -54.0275 
L 144.821858 -54.0275 
L 145.635121 -54.0275 
L 146.448384 -54.0275 
L 147.261646 -54.0275 
L 148.074909 -54.0275 
L 148.888172 -54.0275 
L 149.701435 -54.0275 
L 150.514698 -54.0275 
L 151.327961 -54.0275 
L 152.141224 -54.0275 
L 152.954487 -54.0275 
L 153.76775 -54.0275 
L 154.581012 -54.0275 
L 155.394275 -54.0275 
L 156.207538 -54.0275 
L 157.020801 -54.0275 
L 157.834064 -54.0275 
L 158.647327 -54.0275 
L 159.46059 -54.0275 
L 160.273853 -54.0275 
L 161.087116 -54.0275 
L 161.900378 -54.0275 
L 162.713641 -54.0275 
L 163.526904 -54.0275 
L 164.340167 -54.0275 
L 165.15343 -54.0275 
L 165.966693 -54.0275 
L 166.779956 -54.0275 
L 167.593219 -54.0275 
L 168.406482 -54.0275 
L 169.219744 -54.0275 
L 170.033007 -54.0275 
L 170.84627 -54.0275 
L 171.659533 -54.0275 
L 172.472796 -54.0275 
L 173.286059 -54.0275 
L 174.099322 -54.0275 
L 174.912585 -54.0275 
L 175.725848 -54.0275 
L 176.53911 -54.0275 
L 177.352373 -54.0275 
L 178.165636 -54.0275 
L 178.978899 -54.0275 
L 179.792162 -54.0275 
L 180.605425 -54.0275 
L 181.418688 -54.0275 
L 182.231951 -54.0275 
L 183.045214 -54.0275 
L 183.858476 -54.0275 
L 184.671739 -54.0275 
L 185.485002 -54.0275 
L 186.298265 -54.0275 
L 187.111528 -54.0275 
L 187.924791 -54.0275 
L 188.738054 -54.0275 
L 189.551317 -54.0275 
L 190.36458 -54.0275 
L 191.177843 -54.0275 
L 191.991105 -54.0275 
L 192.804368 -54.0275 
L 193.617631 -54.0275 
L 194.430894 -54.0275 
L 195.244157 -54.0275 
L 196.05742 -54.0275 
L 196.870683 -54.0275 
L 197.683946 -54.0275 
L 198.497209 -54.0275 
L 199.310471 -54.0275 
L 200.123734 -54.0275 
L 200.936997 -54.0275 
L 201.75026 -54.0275 
L 202.563523 -54.0275 
L 203.376786 -54.0275 
L 204.190049 -54.0275 
L 205.003312 -54.0275 
L 205.816575 -54.0275 
L 206.629837 -54.0275 
L 207.4431 -54.0275 
L 208.256363 -54.0275 
L 209.069626 -54.0275 
L 209.882889 -54.0275 
L 210.696152 -54.0275 
L 211.509415 -54.0275 
L 212.322678 -54.0275 
L 213.135941 -54.0275 
L 213.949203 -54.0275 
L 214.762466 -54.0275 
L 215.575729 -54.0275 
L 216.388992 -54.0275 
L 217.202255 -54.0275 
L 218.015518 -54.0275 
L 218.828781 -54.0275 
L 219.642044 -54.0275 
L 220.455307 -54.0275 
L 221.268569 -54.0275 
L 222.081832 -54.0275 
L 222.895095 -54.0275 
L 223.708358 -54.0275 
L 224.521621 -54.0275 
L 225.334884 -54.0275 
L 226.148147 -54.0275 
L 226.96141 -54.0275 
L 227.774673 -54.0275 
L 228.587935 -54.0275 
L 229.401198 -54.0275 
L 230.214461 -54.0275 
L 231.027724 -54.0275 
L 231.840987 -54.0275 
L 232.65425 -54.0275 
L 233.467513 -54.0275 
L 234.280776 -54.0275 
L 235.094039 -54.0275 
L 235.907301 -54.0275 
L 236.720564 -54.0275 
L 237.533827 -54.0275 
L 238.34709 -54.0275 
L 239.160353 -54.0275 
L 239.973616 -54.0275 
L 240.786879 -54.0275 
L 241.600142 -54.0275 
L 242.413405 -54.0275 
L 243.226667 -54.0275 
L 244.03993 -54.0275 
L 244.853193 -54.0275 
L 245.666456 -54.0275 
L 246.479719 -54.0275 
L 247.292982 -54.0275 
L 248.106245 -54.0275 
L 248.919508 -54.0275 
L 249.732771 -54.0275 
L 250.546033 -54.0275 
L 251.359296 -54.0275 
L 252.172559 -54.0275 
L 252.985822 -54.0275 
L 253.799085 -54.0275 
L 254.612348 -54.0275 
L 255.425611 -54.0275 
L 256.238874 -54.0275 
L 257.052137 -54.0275 
L 257.865399 -54.0275 
L 258.678662 -54.0275 
L 259.491925 -54.0275 
L 260.305188 -54.0275 
L 261.118451 -54.0275 
L 261.931714 -54.0275 
L 262.744977 -54.0275 
L 263.55824 -54.0275 
L 264.371503 -54.0275 
L 265.184765 -54.0275 
L 265.998028 -54.0275 
L 266.811291 -54.0275 
L 267.624554 -54.0275 
L 268.437817 -54.0275 
L 269.25108 -54.0275 
L 270.064343 -54.0275 
L 270.877606 -54.0275 
L 271.690869 -54.0275 
L 272.504131 -54.0275 
L 273.317394 -54.0275 
L 274.130657 -54.0275 
L 274.94392 -54.0275 
L 275.757183 -54.0275 
L 276.570446 -54.0275 
L 277.383709 -54.0275 
L 278.196972 -54.0275 
L 279.010235 -54.0275 
L 279.823497 -54.0275 
L 280.63676 -54.0275 
L 281.450023 -54.0275 
L 282.263286 -54.0275 
L 283.076549 -54.0275 
L 283.889812 -54.0275 
L 284.703075 -54.0275 
L 285.516338 -54.0275 
L 286.329601 -54.0275 
L 287.142863 -54.0275 
L 287.956126 -54.0275 
L 288.769389 -54.0275 
L 289.582652 -54.0275 
L 290.395915 -54.0275 
L 291.209178 -54.0275 
L 292.022441 -54.0275 
L 292.835704 -54.0275 
L 293.648967 -54.0275 
L 294.462229 -54.0275 
L 295.275492 -54.0275 
L 296.088755 -54.0275 
L 296.902018 -54.0275 
L 297.715281 -54.0275 
L 298.528544 -54.0275 
L 299.341807 -54.0275 
L 300.15507 -54.0275 
L 300.968333 -54.0275 
L 301.781595 -54.0275 
L 302.594858 -54.0275 
L 303.408121 -54.0275 
L 304.221384 -54.0275 
L 305.034647 -54.0275 
L 305.84791 -54.0275 
L 306.661173 -54.0275 
L 307.474436 -54.0275 
L 308.287699 -54.0275 
L 309.100961 -54.0275 
L 309.914224 -54.0275 
L 310.727487 -54.0275 
L 311.54075 -54.0275 
L 312.354013 -54.0275 
L 313.167276 -54.0275 
L 313.980539 -54.0275 
L 314.793802 -54.0275 
L 315.607065 -54.0275 
L 316.420327 -54.0275 
L 317.23359 -54.0275 
L 318.046853 -54.0275 
L 318.860116 -54.0275 
L 319.673379 -54.0275 
L 320.486642 -54.0275 
L 321.299905 -54.0275 
L 322.113168 -54.0275 
L 322.926431 -54.0275 
L 323.739693 -54.0275 
L 324.552956 -54.0275 
L 325.366219 -54.0275 
L 326.179482 -54.0275 
L 326.992745 -54.0275 
L 327.806008 -54.0275 
L 328.619271 -54.0275 
L 329.432534 -54.0275 
L 330.245797 -54.0275 
L 331.059059 -54.0275 
L 331.872322 -54.0275 
L 332.685585 -54.0275 
L 333.498848 -54.0275 
L 334.312111 -54.0275 
L 335.125374 -54.0275 
L 335.938637 -54.0275 
L 336.7519 -54.0275 
L 337.565163 -54.0275 
L 338.378425 -54.0275 
L 339.191688 -54.0275 
L 340.004951 -54.0275 
L 340.818214 -54.0275 
L 341.631477 -54.0275 
L 342.44474 -54.0275 
L 343.258003 -54.0275 
L 344.071266 -54.0275 
L 344.884529 -54.0275 
L 345.697791 -54.0275 
L 346.511054 -54.0275 
L 347.324317 -54.0275 
L 348.13758 -54.0275 
L 348.950843 -54.0275 
L 349.764106 -54.0275 
L 350.577369 -54.0275 
L 351.390632 -54.0275 
L 352.203895 -54.0275 
L 353.017157 -54.0275 
L 353.83042 -54.0275 
L 354.643683 -54.0275 
L 355.456946 -54.0275 
L 356.270209 -54.0275 
L 357.083472 -54.0275 
L 357.896735 -54.0275 
L 358.709998 -54.0275 
L 359.523261 -54.0275 
L 360.336524 -54.0275 
L 361.149786 -54.0275 
L 361.963049 -54.0275 
L 362.776312 -54.0275 
L 363.589575 -54.0275 
L 364.402838 -54.0275 
L 365.216101 -54.0275 
L 366.029364 -54.0275 
L 366.842627 -54.0275 
L 367.65589 -54.0275 
L 368.469152 -54.0275 
L 369.282415 -54.0275 
L 370.095678 -54.0275 
L 370.908941 -54.0275 
L 371.722204 -54.0275 
L 372.535467 -54.0275 
L 373.34873 -54.0275 
L 374.161993 -54.0275 
L 374.975256 -54.0275 
L 375.788518 -54.0275 
L 376.601781 -54.0275 
L 377.415044 -54.0275 
L 378.228307 -54.0275 
L 379.04157 -54.0275 
L 379.854833 -54.0275 
L 380.668096 -54.0275 
L 381.481359 -54.0275 
L 382.294622 -54.0275 
L 383.107884 -54.0275 
L 383.921147 -54.0275 
L 384.73441 -54.0275 
L 385.547673 -54.0275 
L 386.360936 -54.0275 
L 387.174199 -54.0275 
L 387.987462 -54.0275 
L 388.800725 -54.0275 
L 389.613988 -54.0275 
L 390.42725 -54.0275 
L 391.240513 -54.0275 
L 392.053776 -54.0275 
L 392.867039 -54.0275 
L 393.680302 -54.0275 
L 394.493565 -54.0275 
L 395.306828 -54.0275 
L 396.120091 -54.0275 
L 396.933354 -54.0275 
L 397.746616 -54.0275 
L 398.559879 -54.0275 
L 399.373142 -54.0275 
L 400.186405 -54.0275 
L 400.999668 -54.0275 
L 401.812931 -54.0275 
L 402.626194 -54.0275 
L 403.439457 -54.0275 
L 404.25272 -54.0275 
L 405.065982 -54.0275 
L 405.879245 -54.0275 
L 406.692508 -54.0275 
L 407.505771 -54.0275 
L 408.319034 -54.0275 
L 409.132297 -54.0275 
L 409.94556 -54.0275 
L 410.758823 -54.0275 
L 411.572086 -54.0275 
L 412.385348 -54.0275 
L 413.198611 -54.0275 
L 414.011874 -54.0275 
L 414.825137 -54.0275 
L 415.6384 -54.0275 
L 416.451663 -54.0275 
L 417.264926 -54.0275 
L 418.078189 -54.0275 
L 418.891452 -54.0275 
L 419.704714 -54.0275 
L 420.517977 -54.0275 
L 421.33124 -54.0275 
L 422.144503 -54.0275 
L 422.957766 -54.0275 
L 423.771029 -54.0275 
L 424.584292 -54.0275 
L 425.397555 -54.0275 
L 426.210818 -54.0275 
L 427.02408 -54.0275 
L 427.837343 -54.0275 
L 428.650606 -54.0275 
L 429.463869 -54.0275 
L 430.277132 -54.0275 
L 431.090395 -54.0275 
L 431.903658 -54.0275 
L 432.716921 -54.0275 
L 433.530184 -54.0275 
L 434.343446 -54.0275 
L 435.156709 -54.0275 
L 435.969972 -54.0275 
L 436.783235 -54.0275 
L 437.596498 -54.0275 
L 438.409761 -54.0275 
L 439.223024 -54.0275 
L 440.036287 -54.0275 
L 440.84955 -54.0275 
L 441.662812 -54.0275 
L 442.476075 -54.0275 
L 443.289338 -54.0275 
L 444.102601 -54.0275 
L 444.915864 -54.0275 
L 445.729127 -54.0275 
L 446.54239 -54.0275 
L 447.355653 -54.0275 
L 448.168916 -54.0275 
L 448.982178 -54.0275 
L 449.795441 -54.0275 
L 450.608704 -54.0275 
L 451.421967 -54.0275 
L 452.23523 -54.0275 
L 453.048493 -54.0275 
L 453.861756 -54.0275 
L 454.675019 -54.0275 
L 455.488282 -54.0275 
L 456.301544 -54.0275 
L 457.114807 -54.0275 
L 457.92807 -54.0275 
L 458.741333 -54.0275 
L 459.554596 -54.0275 
L 460.367859 -54.0275 
L 461.181122 -54.0275 
L 461.994385 -54.0275 
L 462.807648 -54.0275 
L 463.62091 -54.0275 
L 464.434173 -54.0275 
L 465.247436 -54.0275 
L 466.060699 -54.0275 
L 466.873962 -54.0275 
L 467.687225 -54.0275 
L 468.500488 -54.0275 
L 469.313751 -54.0275 
L 470.127014 -54.0275 
L 470.940276 -54.0275 
L 471.753539 -54.0275 
L 472.566802 -54.0275 
L 473.380065 -54.0275 
L 474.193328 -54.0275 
L 475.006591 -54.0275 
L 475.006591 -55.714098 
L 475.006591 -55.714098 
L 474.193328 -55.747773 
L 473.380065 -55.78211 
L 472.566802 -55.817123 
L 471.753539 -55.852823 
L 470.940276 -55.889226 
L 470.127014 -55.926343 
L 469.313751 -55.964188 
L 468.500488 -56.002776 
L 467.687225 -56.04212 
L 466.873962 -56.082234 
L 466.060699 -56.123134 
L 465.247436 -56.164833 
L 464.434173 -56.207348 
L 463.62091 -56.250693 
L 462.807648 -56.294883 
L 461.994385 -56.339936 
L 461.181122 -56.385866 
L 460.367859 -56.432691 
L 459.554596 -56.480427 
L 458.741333 -56.529091 
L 457.92807 -56.5787 
L 457.114807 -56.629271 
L 456.301544 -56.680824 
L 455.488282 -56.733375 
L 454.675019 -56.786943 
L 453.861756 -56.841547 
L 453.048493 -56.897207 
L 452.23523 -56.95394 
L 451.421967 -57.011767 
L 450.608704 -57.070709 
L 449.795441 -57.130784 
L 448.982178 -57.192015 
L 448.168916 -57.254421 
L 447.355653 -57.318024 
L 446.54239 -57.382846 
L 445.729127 -57.448909 
L 444.915864 -57.516234 
L 444.102601 -57.584845 
L 443.289338 -57.654765 
L 442.476075 -57.726016 
L 441.662812 -57.798623 
L 440.84955 -57.872609 
L 440.036287 -57.947999 
L 439.223024 -58.024818 
L 438.409761 -58.10309 
L 437.596498 -58.182841 
L 436.783235 -58.264097 
L 435.969972 -58.346884 
L 435.156709 -58.431229 
L 434.343446 -58.517158 
L 433.530184 -58.604698 
L 432.716921 -58.693878 
L 431.903658 -58.784725 
L 431.090395 -58.877268 
L 430.277132 -58.971535 
L 429.463869 -59.067555 
L 428.650606 -59.165358 
L 427.837343 -59.264974 
L 427.02408 -59.366433 
L 426.210818 -59.469766 
L 425.397555 -59.575002 
L 424.584292 -59.682175 
L 423.771029 -59.791314 
L 422.957766 -59.902453 
L 422.144503 -60.015623 
L 421.33124 -60.130858 
L 420.517977 -60.24819 
L 419.704714 -60.367653 
L 418.891452 -60.489281 
L 418.078189 -60.613106 
L 417.264926 -60.739165 
L 416.451663 -60.867492 
L 415.6384 -60.998121 
L 414.825137 -61.131087 
L 414.011874 -61.266428 
L 413.198611 -61.404178 
L 412.385348 -61.544374 
L 411.572086 -61.687052 
L 410.758823 -61.832248 
L 409.94556 -61.980001 
L 409.132297 -62.130347 
L 408.319034 -62.283323 
L 407.505771 -62.438968 
L 406.692508 -62.597318 
L 405.879245 -62.758413 
L 405.065982 -62.92229 
L 404.25272 -63.088988 
L 403.439457 -63.258545 
L 402.626194 -63.431 
L 401.812931 -63.606392 
L 400.999668 -63.784759 
L 400.186405 -63.966141 
L 399.373142 -64.150575 
L 398.559879 -64.338102 
L 397.746616 -64.52876 
L 396.933354 -64.722588 
L 396.120091 -64.919624 
L 395.306828 -65.119908 
L 394.493565 -65.323479 
L 393.680302 -65.530373 
L 392.867039 -65.740631 
L 392.053776 -65.954289 
L 391.240513 -66.171387 
L 390.42725 -66.39196 
L 389.613988 -66.616047 
L 388.800725 -66.843685 
L 387.987462 -67.074909 
L 387.174199 -67.309757 
L 386.360936 -67.548263 
L 385.547673 -67.790462 
L 384.73441 -68.03639 
L 383.921147 -68.28608 
L 383.107884 -68.539565 
L 382.294622 -68.796877 
L 381.481359 -69.058049 
L 380.668096 -69.323112 
L 379.854833 -69.592096 
L 379.04157 -69.865029 
L 378.228307 -70.14194 
L 377.415044 -70.422856 
L 376.601781 -70.707803 
L 375.788518 -70.996807 
L 374.975256 -71.28989 
L 374.161993 -71.587076 
L 373.34873 -71.888385 
L 372.535467 -72.193837 
L 371.722204 -72.50345 
L 370.908941 -72.81724 
L 370.095678 -73.135223 
L 369.282415 -73.457412 
L 368.469152 -73.783819 
L 367.65589 -74.114452 
L 366.842627 -74.449319 
L 366.029364 -74.788427 
L 365.216101 -75.131779 
L 364.402838 -75.479375 
L 363.589575 -75.831216 
L 362.776312 -76.187298 
L 361.963049 -76.547614 
L 361.149786 -76.912158 
L 360.336524 -77.280918 
L 359.523261 -77.653881 
L 358.709998 -78.03103 
L 357.896735 -78.412346 
L 357.083472 -78.797808 
L 356.270209 -79.187389 
L 355.456946 -79.581062 
L 354.643683 -79.978795 
L 353.83042 -80.380553 
L 353.017157 -80.786299 
L 352.203895 -81.195989 
L 351.390632 -81.60958 
L 350.577369 -82.027021 
L 349.764106 -82.448261 
L 348.950843 -82.873242 
L 348.13758 -83.301905 
L 347.324317 -83.734184 
L 346.511054 -84.170011 
L 345.697791 -84.609314 
L 344.884529 -85.052015 
L 344.071266 -85.498033 
L 343.258003 -85.947283 
L 342.44474 -86.399675 
L 341.631477 -86.855113 
L 340.818214 -87.313499 
L 340.004951 -87.774729 
L 339.191688 -88.238695 
L 338.378425 -88.705283 
L 337.565163 -89.174376 
L 336.7519 -89.64585 
L 335.938637 -90.119579 
L 335.125374 -90.595429 
L 334.312111 -91.073265 
L 333.498848 -91.552942 
L 332.685585 -92.034315 
L 331.872322 -92.517231 
L 331.059059 -93.001533 
L 330.245797 -93.48706 
L 329.432534 -93.973645 
L 328.619271 -94.461116 
L 327.806008 -94.949297 
L 326.992745 -95.438006 
L 326.179482 -95.927058 
L 325.366219 -96.416262 
L 324.552956 -96.905424 
L 323.739693 -97.394343 
L 322.926431 -97.882815 
L 322.113168 -98.370631 
L 321.299905 -98.85758 
L 320.486642 -99.343444 
L 319.673379 -99.828002 
L 318.860116 -100.311029 
L 318.046853 -100.792298 
L 317.23359 -101.271575 
L 316.420327 -101.748627 
L 315.607065 -102.223213 
L 314.793802 -102.695092 
L 313.980539 -103.16402 
L 313.167276 -103.629749 
L 312.354013 -104.092029 
L 311.54075 -104.550609 
L 310.727487 -105.005235 
L 309.914224 -105.455651 
L 309.100961 -105.9016 
L 308.287699 -106.342823 
L 307.474436 -106.77906 
L 306.661173 -107.210053 
L 305.84791 -107.63554 
L 305.034647 -108.055261 
L 304.221384 -108.468955 
L 303.408121 -108.876362 
L 302.594858 -109.277223 
L 301.781595 -109.671279 
L 300.968333 -110.058274 
L 300.15507 -110.437953 
L 299.341807 -110.810063 
L 298.528544 -111.174354 
L 297.715281 -111.530577 
L 296.902018 -111.878487 
L 296.088755 -112.217843 
L 295.275492 -112.548408 
L 294.462229 -112.869948 
L 293.648967 -113.182233 
L 292.835704 -113.48504 
L 292.022441 -113.778147 
L 291.209178 -114.061343 
L 290.395915 -114.334417 
L 289.582652 -114.597167 
L 288.769389 -114.849398 
L 287.956126 -115.09092 
L 287.142863 -115.32155 
L 286.329601 -115.541113 
L 285.516338 -115.749441 
L 284.703075 -115.946374 
L 283.889812 -116.131759 
L 283.076549 -116.305454 
L 282.263286 -116.467321 
L 281.450023 -116.617236 
L 280.63676 -116.755079 
L 279.823497 -116.880742 
L 279.010235 -116.994126 
L 278.196972 -117.095141 
L 277.383709 -117.183706 
L 276.570446 -117.259751 
L 275.757183 -117.323215 
L 274.94392 -117.374048 
L 274.130657 -117.412208 
L 273.317394 -117.437665 
L 272.504131 -117.450399 
L 271.690869 -117.450399 
L 270.877606 -117.437665 
L 270.064343 -117.412208 
L 269.25108 -117.374048 
L 268.437817 -117.323215 
L 267.624554 -117.259751 
L 266.811291 -117.183706 
L 265.998028 -117.095141 
L 265.184765 -116.994126 
L 264.371503 -116.880742 
L 263.55824 -116.755079 
L 262.744977 -116.617236 
L 261.931714 -116.467321 
L 261.118451 -116.305454 
L 260.305188 -116.131759 
L 259.491925 -115.946374 
L 258.678662 -115.749441 
L 257.865399 -115.541113 
L 257.052137 -115.32155 
L 256.238874 -115.09092 
L 255.425611 -114.849398 
L 254.612348 -114.597167 
L 253.799085 -114.334417 
L 252.985822 -114.061343 
L 252.172559 -113.778147 
L 251.359296 -113.48504 
L 250.546033 -113.182233 
L 249.732771 -112.869948 
L 248.919508 -112.548408 
L 248.106245 -112.217843 
L 247.292982 -111.878487 
L 246.479719 -111.530577 
L 245.666456 -111.174354 
L 244.853193 -110.810063 
L 244.03993 -110.437953 
L 243.226667 -110.058274 
L 242.413405 -109.671279 
L 241.600142 -109.277223 
L 240.786879 -108.876362 
L 239.973616 -108.468955 
L 239.160353 -108.055261 
L 238.34709 -107.63554 
L 237.533827 -107.210053 
L 236.720564 -106.77906 
L 235.907301 -106.342823 
L 235.094039 -105.9016 
L 234.280776 -105.455651 
L 233.467513 -105.005235 
L 232.65425 -104.550609 
L 231.840987 -104.092029 
L 231.027724 -103.629749 
L 230.214461 -103.16402 
L 229.401198 -102.695092 
L 228.587935 -102.223213 
L 227.774673 -101.748627 
L 226.96141 -101.271575 
L 226.148147 -100.792298 
L 225.334884 -100.311029 
L 224.521621 -99.828002 
L 223.708358 -99.343444 
L 222.895095 -98.85758 
L 222.081832 -98.370631 
L 221.268569 -97.882815 
L 220.455307 -97.394343 
L 219.642044 -96.905424 
L 218.828781 -96.416262 
L 218.015518 -95.927058 
L 217.202255 -95.438006 
L 216.388992 -94.949297 
L 215.575729 -94.461116 
L 214.762466 -93.973645 
L 213.949203 -93.48706 
L 213.135941 -93.001533 
L 212.322678 -92.517231 
L 211.509415 -92.034315 
L 210.696152 -91.552942 
L 209.882889 -91.073265 
L 209.069626 -90.595429 
L 208.256363 -90.119579 
L 207.4431 -89.64585 
L 206.629837 -89.174376 
L 205.816575 -88.705283 
L 205.003312 -88.238695 
L 204.190049 -87.774729 
L 203.376786 -87.313499 
L 202.563523 -86.855113 
L 201.75026 -86.399675 
L 200.936997 -85.947283 
L 200.123734 -85.498033 
L 199.310471 -85.052015 
L 198.497209 -84.609314 
L 197.683946 -84.170011 
L 196.870683 -83.734184 
L 196.05742 -83.301905 
L 195.244157 -82.873242 
L 194.430894 -82.448261 
L 193.617631 -82.027021 
L 192.804368 -81.60958 
L 191.991105 -81.195989 
L 191.177843 -80.786299 
L 190.36458 -80.380553 
L 189.551317 -79.978795 
L 188.738054 -79.581062 
L 187.924791 -79.187389 
L 187.111528 -78.797808 
L 186.298265 -78.412346 
L 185.485002 -78.03103 
L 184.671739 -77.653881 
L 183.858476 -77.280918 
L 183.045214 -76.912158 
L 182.231951 -76.547614 
L 181.418688 -76.187298 
L 180.605425 -75.831216 
L 179.792162 -75.479375 
L 178.978899 -75.131779 
L 178.165636 -74.788427 
L 177.352373 -74.449319 
L 176.53911 -74.114452 
L 175.725848 -73.783819 
L 174.912585 -73.457412 
L 174.099322 -73.135223 
L 173.286059 -72.81724 
L 172.472796 -72.50345 
L 171.659533 -72.193837 
L 170.84627 -71.888385 
L 170.033007 -71.587076 
L 169.219744 -71.28989 
L 168.406482 -70.996807 
L 167.593219 -70.707803 
L 166.779956 -70.422856 
L 165.966693 -70.14194 
L 165.15343 -69.865029 
L 164.340167 -69.592096 
L 163.526904 -69.323112 
L 162.713641 -69.058049 
L 161.900378 -68.796877 
L 161.087116 -68.539565 
L 160.273853 -68.28608 
L 159.46059 -68.03639 
L 158.647327 -67.790462 
L 157.834064 -67.548263 
L 157.020801 -67.309757 
L 156.207538 -67.074909 
L 155.394275 -66.843685 
L 154.581012 -66.616047 
L 153.76775 -66.39196 
L 152.954487 -66.171387 
L 152.141224 -65.954289 
L 151.327961 -65.740631 
L 150.514698 -65.530373 
L 149.701435 -65.323479 
L 148.888172 -65.119908 
L 148.074909 -64.919624 
L 147.261646 -64.722588 
L 146.448384 -64.52876 
L 145.635121 -64.338102 
L 144.821858 -64.150575 
L 144.008595 -63.966141 
L 143.195332 -63.784759 
L 142.382069 -63.606392 
L 141.568806 -63.431 
L 140.755543 -63.258545 
L 139.94228 -63.088988 
L 139.129018 -62.92229 
L 138.315755 -62.758413 
L 137.502492 -62.597318 
L 136.689229 -62.438968 
L 135.875966 -62.283323 
L 135.062703 -62.130347 
L 134.24944 -61.980001 
L 133.436177 -61.832248 
L 132.622914 -61.687052 
L 131.809652 -61.544374 
L 130.996389 -61.404178 
L 130.183126 -61.266428 
L 129.369863 -61.131087 
L 128.5566 -60.998121 
L 127.743337 -60.867492 
L 126.930074 -60.739165 
L 126.116811 -60.613106 
L 125.303548 -60.489281 
L 124.490286 -60.367653 
L 123.677023 -60.24819 
L 122.86376 -60.130858 
L 122.050497 -60.015623 
L 121.237234 -59.902453 
L 120.423971 -59.791314 
L 119.610708 -59.682175 
L 118.797445 -59.575002 
L 117.984182 -59.469766 
L 117.17092 -59.366433 
L 116.357657 -59.264974 
L 115.544394 -59.165358 
L 114.731131 -59.067555 
L 113.917868 -58.971535 
L 113.104605 -58.877268 
L 112.291342 -58.784725 
L 111.478079 -58.693878 
L 110.664816 -58.604698 
L 109.851554 -58.517158 
L 109.038291 -58.431229 
L 108.225028 -58.346884 
L 107.411765 -58.264097 
L 106.598502 -58.182841 
L 105.785239 -58.10309 
L 104.971976 -58.024818 
L 104.158713 -57.947999 
L 103.34545 -57.872609 
L 102.532188 -57.798623 
L 101.718925 -57.726016 
L 100.905662 -57.654765 
L 100.092399 -57.584845 
L 99.279136 -57.516234 
L 98.465873 -57.448909 
L 97.65261 -57.382846 
L 96.839347 -57.318024 
L 96.026084 -57.254421 
L 95.212822 -57.192015 
L 94.399559 -57.130784 
L 93.586296 -57.070709 
L 92.773033 -57.011767 
L 91.95977 -56.95394 
L 91.146507 -56.897207 
L 90.333244 -56.841547 
L 89.519981 -56.786943 
L 88.706718 -56.733375 
L 87.893456 -56.680824 
L 87.080193 -56.629271 
L 86.26693 -56.5787 
L 85.453667 -56.529091 
L 84.640404 -56.480427 
L 83.827141 -56.432691 
L 83.013878 -56.385866 
L 82.200615 -56.339936 
L 81.387352 -56.294883 
L 80.57409 -56.250693 
L 79.760827 -56.207348 
L 78.947564 -56.164833 
L 78.134301 -56.123134 
L 77.321038 -56.082234 
L 76.507775 -56.04212 
L 75.694512 -56.002776 
L 74.881249 -55.964188 
L 74.067986 -55.926343 
L 73.254724 -55.889226 
L 72.441461 -55.852823 
L 71.628198 -55.817123 
L 70.814935 -55.78211 
L 70.001672 -55.747773 
L 69.188409 -55.714098 
z
" style="stroke: #ff0000; stroke-opacity: 0.15"/>
    </defs>
    <g clip-path="url(#pa3d76dfb90)">
     <use xlink:href="#m750eb44ff5" x="0" y="342.76925" style="fill: #ff0000; fill-opacity: 0.15; stroke: #ff0000; stroke-opacity: 0.15"/>
    </g>
   </g>
   <g id="matplotlib.axis_1">
    <g id="xtick_1">
     <g id="line2d_1">
      <path d="M 109.770227 301.34175 
L 109.770227 24.14175 
" clip-path="url(#pa3d76dfb90)" style="fill: none; stroke: #b0b0b0; stroke-opacity: 0.3; stroke-width: 0.8; stroke-linecap: square"/>
     </g>
     <g id="line2d_2">
      <defs>
       <path id="mfc93d48e96" d="M 0 0 
L 0 3.5 
" style="stroke: #000000; stroke-width: 0.8"/>
      </defs>
      <g>
       <use xlink:href="#mfc93d48e96" x="109.770227" y="301.34175" style="stroke: #000000; stroke-width: 0.8"/>
      </g>
     </g>
     <g id="text_1">
      <!-- −4 -->
      <g transform="translate(100.924915 317.459875) scale(0.12 -0.12)">
       <defs>
        <path id="DejaVuSans-2212" d="M 678 2272 
L 4684 2272 
L 4684 1741 
L 678 1741 
L 678 2272 
z
" transform="scale(0.015625)"/>
        <path id="DejaVuSans-34" d="M 2419 4116 
L 825 1625 
L 2419 1625 
L 2419 4116 
z
M 2253 4666 
L 3047 4666 
L 3047 1625 
L 3713 1625 
L 3713 1100 
L 3047 1100 
L 3047 0 
L 2419 0 
L 2419 1100 
L 313 1100 
L 313 1709 
L 2253 4666 
z
" transform="scale(0.015625)"/>
       </defs>
       <use xlink:href="#DejaVuSans-2212"/>
       <use xlink:href="#DejaVuSans-34" transform="translate(83.789062 0)"/>
      </g>
     </g>
    </g>
    <g id="xtick_2">
     <g id="line2d_3">
      <path d="M 190.933864 301.34175 
L 190.933864 24.14175 
" clip-path="url(#pa3d76dfb90)" style="fill: none; stroke: #b0b0b0; stroke-opacity: 0.3; stroke-width: 0.8; stroke-linecap: square"/>
     </g>
     <g id="line2d_4">
      <g>
       <use xlink:href="#mfc93d48e96" x="190.933864" y="301.34175" style="stroke: #000000; stroke-width: 0.8"/>
      </g>
     </g>
     <g id="text_2">
      <!-- −2 -->
      <g transform="translate(182.088551 317.459875) scale(0.12 -0.12)">
       <defs>
        <path id="DejaVuSans-32" d="M 1228 531 
L 3431 531 
L 3431 0 
L 469 0 
L 469 531 
Q 828 903 1448 1529 
Q 2069 2156 2228 2338 
Q 2531 2678 2651 2914 
Q 2772 3150 2772 3378 
Q 2772 3750 2511 3984 
Q 2250 4219 1831 4219 
Q 1534 4219 1204 4116 
Q 875 4013 500 3803 
L 500 4441 
Q 881 4594 1212 4672 
Q 1544 4750 1819 4750 
Q 2544 4750 2975 4387 
Q 3406 4025 3406 3419 
Q 3406 3131 3298 2873 
Q 3191 2616 2906 2266 
Q 2828 2175 2409 1742 
Q 1991 1309 1228 531 
z
" transform="scale(0.015625)"/>
       </defs>
       <use xlink:href="#DejaVuSans-2212"/>
       <use xlink:href="#DejaVuSans-32" transform="translate(83.789062 0)"/>
      </g>
     </g>
    </g>
    <g id="xtick_3">
     <g id="line2d_5">
      <path d="M 272.0975 301.34175 
L 272.0975 24.14175 
" clip-path="url(#pa3d76dfb90)" style="fill: none; stroke: #b0b0b0; stroke-opacity: 0.3; stroke-width: 0.8; stroke-linecap: square"/>
     </g>
     <g id="line2d_6">
      <g>
       <use xlink:href="#mfc93d48e96" x="272.0975" y="301.34175" style="stroke: #000000; stroke-width: 0.8"/>
      </g>
     </g>
     <g id="text_3">
      <!-- 0 -->
      <g transform="translate(268.28 317.459875) scale(0.12 -0.12)">
       <defs>
        <path id="DejaVuSans-30" d="M 2034 4250 
Q 1547 4250 1301 3770 
Q 1056 3291 1056 2328 
Q 1056 1369 1301 889 
Q 1547 409 2034 409 
Q 2525 409 2770 889 
Q 3016 1369 3016 2328 
Q 3016 3291 2770 3770 
Q 2525 4250 2034 4250 
z
M 2034 4750 
Q 2819 4750 3233 4129 
Q 3647 3509 3647 2328 
Q 3647 1150 3233 529 
Q 2819 -91 2034 -91 
Q 1250 -91 836 529 
Q 422 1150 422 2328 
Q 422 3509 836 4129 
Q 1250 4750 2034 4750 
z
" transform="scale(0.015625)"/>
       </defs>
       <use xlink:href="#DejaVuSans-30"/>
      </g>
     </g>
    </g>
    <g id="xtick_4">
     <g id="line2d_7">
      <path d="M 353.261136 301.34175 
L 353.261136 24.14175 
" clip-path="url(#pa3d76dfb90)" style="fill: none; stroke: #b0b0b0; stroke-opacity: 0.3; stroke-width: 0.8; stroke-linecap: square"/>
     </g>
     <g id="line2d_8">
      <g>
       <use xlink:href="#mfc93d48e96" x="353.261136" y="301.34175" style="stroke: #000000; stroke-width: 0.8"/>
      </g>
     </g>
     <g id="text_4">
      <!-- 2 -->
      <g transform="translate(349.443636 317.459875) scale(0.12 -0.12)">
       <use xlink:href="#DejaVuSans-32"/>
      </g>
     </g>
    </g>
    <g id="xtick_5">
     <g id="line2d_9">
      <path d="M 434.424773 301.34175 
L 434.424773 24.14175 
" clip-path="url(#pa3d76dfb90)" style="fill: none; stroke: #b0b0b0; stroke-opacity: 0.3; stroke-width: 0.8; stroke-linecap: square"/>
     </g>
     <g id="line2d_10">
      <g>
       <use xlink:href="#mfc93d48e96" x="434.424773" y="301.34175" style="stroke: #000000; stroke-width: 0.8"/>
      </g>
     </g>
     <g id="text_5">
      <!-- 4 -->
      <g transform="translate(430.607273 317.459875) scale(0.12 -0.12)">
       <use xlink:href="#DejaVuSans-34"/>
      </g>
     </g>
    </g>
    <g id="text_6">
     <!-- x -->
     <g transform="translate(268.54625 333.073625) scale(0.12 -0.12)">
      <defs>
       <path id="DejaVuSans-78" d="M 3513 3500 
L 2247 1797 
L 3578 0 
L 2900 0 
L 1881 1375 
L 863 0 
L 184 0 
L 1544 1831 
L 300 3500 
L 978 3500 
L 1906 2253 
L 2834 3500 
L 3513 3500 
z
" transform="scale(0.015625)"/>
      </defs>
      <use xlink:href="#DejaVuSans-78"/>
     </g>
    </g>
   </g>
   <g id="matplotlib.axis_2">
    <g id="ytick_1">
     <g id="line2d_11">
      <path d="M 48.8975 288.74175 
L 495.2975 288.74175 
" clip-path="url(#pa3d76dfb90)" style="fill: none; stroke: #b0b0b0; stroke-opacity: 0.3; stroke-width: 0.8; stroke-linecap: square"/>
     </g>
     <g id="line2d_12">
      <defs>
       <path id="m4a3ef036f3" d="M 0 0 
L -3.5 0 
" style="stroke: #000000; stroke-width: 0.8"/>
      </defs>
      <g>
       <use xlink:href="#m4a3ef036f3" x="48.8975" y="288.74175" style="stroke: #000000; stroke-width: 0.8"/>
      </g>
     </g>
     <g id="text_7">
      <!-- 0.0 -->
      <g transform="translate(22.81375 293.300813) scale(0.12 -0.12)">
       <defs>
        <path id="DejaVuSans-2e" d="M 684 794 
L 1344 794 
L 1344 0 
L 684 0 
L 684 794 
z
" transform="scale(0.015625)"/>
       </defs>
       <use xlink:href="#DejaVuSans-30"/>
       <use xlink:href="#DejaVuSans-2e" transform="translate(63.623047 0)"/>
       <use xlink:href="#DejaVuSans-30" transform="translate(95.410156 0)"/>
      </g>
     </g>
    </g>
    <g id="ytick_2">
     <g id="line2d_13">
      <path d="M 48.8975 238.002157 
L 495.2975 238.002157 
" clip-path="url(#pa3d76dfb90)" style="fill: none; stroke: #b0b0b0; stroke-opacity: 0.3; stroke-width: 0.8; stroke-linecap: square"/>
     </g>
     <g id="line2d_14">
      <g>
       <use xlink:href="#m4a3ef036f3" x="48.8975" y="238.002157" style="stroke: #000000; stroke-width: 0.8"/>
      </g>
     </g>
     <g id="text_8">
      <!-- 0.2 -->
      <g transform="translate(22.81375 242.56122) scale(0.12 -0.12)">
       <use xlink:href="#DejaVuSans-30"/>
       <use xlink:href="#DejaVuSans-2e" transform="translate(63.623047 0)"/>
       <use xlink:href="#DejaVuSans-32" transform="translate(95.410156 0)"/>
      </g>
     </g>
    </g>
    <g id="ytick_3">
     <g id="line2d_15">
      <path d="M 48.8975 187.262565 
L 495.2975 187.262565 
" clip-path="url(#pa3d76dfb90)" style="fill: none; stroke: #b0b0b0; stroke-opacity: 0.3; stroke-width: 0.8; stroke-linecap: square"/>
     </g>
     <g id="line2d_16">
      <g>
       <use xlink:href="#m4a3ef036f3" x="48.8975" y="187.262565" style="stroke: #000000; stroke-width: 0.8"/>
      </g>
     </g>
     <g id="text_9">
      <!-- 0.4 -->
      <g transform="translate(22.81375 191.821627) scale(0.12 -0.12)">
       <use xlink:href="#DejaVuSans-30"/>
       <use xlink:href="#DejaVuSans-2e" transform="translate(63.623047 0)"/>
       <use xlink:href="#DejaVuSans-34" transform="translate(95.410156 0)"/>
      </g>
     </g>
    </g>
    <g id="ytick_4">
     <g id="line2d_17">
      <path d="M 48.8975 136.522972 
L 495.2975 136.522972 
" clip-path="url(#pa3d76dfb90)" style="fill: none; stroke: #b0b0b0; stroke-opacity: 0.3; stroke-width: 0.8; stroke-linecap: square"/>
     </g>
     <g id="line2d_18">
      <g>
       <use xlink:href="#m4a3ef036f3" x="48.8975" y="136.522972" style="stroke: #000000; stroke-width: 0.8"/>
      </g>
     </g>
     <g id="text_10">
      <!-- 0.6 -->
      <g transform="translate(22.81375 141.082035) scale(0.12 -0.12)">
       <defs>
        <path id="DejaVuSans-36" d="M 2113 2584 
Q 1688 2584 1439 2293 
Q 1191 2003 1191 1497 
Q 1191 994 1439 701 
Q 1688 409 2113 409 
Q 2538 409 2786 701 
Q 3034 994 3034 1497 
Q 3034 2003 2786 2293 
Q 2538 2584 2113 2584 
z
M 3366 4563 
L 3366 3988 
Q 3128 4100 2886 4159 
Q 2644 4219 2406 4219 
Q 1781 4219 1451 3797 
Q 1122 3375 1075 2522 
Q 1259 2794 1537 2939 
Q 1816 3084 2150 3084 
Q 2853 3084 3261 2657 
Q 3669 2231 3669 1497 
Q 3669 778 3244 343 
Q 2819 -91 2113 -91 
Q 1303 -91 875 529 
Q 447 1150 447 2328 
Q 447 3434 972 4092 
Q 1497 4750 2381 4750 
Q 2619 4750 2861 4703 
Q 3103 4656 3366 4563 
z
" transform="scale(0.015625)"/>
       </defs>
       <use xlink:href="#DejaVuSans-30"/>
       <use xlink:href="#DejaVuSans-2e" transform="translate(63.623047 0)"/>
       <use xlink:href="#DejaVuSans-36" transform="translate(95.410156 0)"/>
      </g>
     </g>
    </g>
    <g id="ytick_5">
     <g id="line2d_19">
      <path d="M 48.8975 85.78338 
L 495.2975 85.78338 
" clip-path="url(#pa3d76dfb90)" style="fill: none; stroke: #b0b0b0; stroke-opacity: 0.3; stroke-width: 0.8; stroke-linecap: square"/>
     </g>
     <g id="line2d_20">
      <g>
       <use xlink:href="#m4a3ef036f3" x="48.8975" y="85.78338" style="stroke: #000000; stroke-width: 0.8"/>
      </g>
     </g>
     <g id="text_11">
      <!-- 0.8 -->
      <g transform="translate(22.81375 90.342442) scale(0.12 -0.12)">
       <defs>
        <path id="DejaVuSans-38" d="M 2034 2216 
Q 1584 2216 1326 1975 
Q 1069 1734 1069 1313 
Q 1069 891 1326 650 
Q 1584 409 2034 409 
Q 2484 409 2743 651 
Q 3003 894 3003 1313 
Q 3003 1734 2745 1975 
Q 2488 2216 2034 2216 
z
M 1403 2484 
Q 997 2584 770 2862 
Q 544 3141 544 3541 
Q 544 4100 942 4425 
Q 1341 4750 2034 4750 
Q 2731 4750 3128 4425 
Q 3525 4100 3525 3541 
Q 3525 3141 3298 2862 
Q 3072 2584 2669 2484 
Q 3125 2378 3379 2068 
Q 3634 1759 3634 1313 
Q 3634 634 3220 271 
Q 2806 -91 2034 -91 
Q 1263 -91 848 271 
Q 434 634 434 1313 
Q 434 1759 690 2068 
Q 947 2378 1403 2484 
z
M 1172 3481 
Q 1172 3119 1398 2916 
Q 1625 2713 2034 2713 
Q 2441 2713 2670 2916 
Q 2900 3119 2900 3481 
Q 2900 3844 2670 4047 
Q 2441 4250 2034 4250 
Q 1625 4250 1398 4047 
Q 1172 3844 1172 3481 
z
" transform="scale(0.015625)"/>
       </defs>
       <use xlink:href="#DejaVuSans-30"/>
       <use xlink:href="#DejaVuSans-2e" transform="translate(63.623047 0)"/>
       <use xlink:href="#DejaVuSans-38" transform="translate(95.410156 0)"/>
      </g>
     </g>
    </g>
    <g id="ytick_6">
     <g id="line2d_21">
      <path d="M 48.8975 35.043787 
L 495.2975 35.043787 
" clip-path="url(#pa3d76dfb90)" style="fill: none; stroke: #b0b0b0; stroke-opacity: 0.3; stroke-width: 0.8; stroke-linecap: square"/>
     </g>
     <g id="line2d_22">
      <g>
       <use xlink:href="#m4a3ef036f3" x="48.8975" y="35.043787" style="stroke: #000000; stroke-width: 0.8"/>
      </g>
     </g>
     <g id="text_12">
      <!-- 1.0 -->
      <g transform="translate(22.81375 39.60285) scale(0.12 -0.12)">
       <defs>
        <path id="DejaVuSans-31" d="M 794 531 
L 1825 531 
L 1825 4091 
L 703 3866 
L 703 4441 
L 1819 4666 
L 2450 4666 
L 2450 531 
L 3481 531 
L 3481 0 
L 794 0 
L 794 531 
z
" transform="scale(0.015625)"/>
       </defs>
       <use xlink:href="#DejaVuSans-31"/>
       <use xlink:href="#DejaVuSans-2e" transform="translate(63.623047 0)"/>
       <use xlink:href="#DejaVuSans-30" transform="translate(95.410156 0)"/>
      </g>
     </g>
    </g>
    <g id="text_13">
     <!-- y -->
     <g transform="translate(16.318125 166.293) rotate(-90) scale(0.12 -0.12)">
      <defs>
       <path id="DejaVuSans-79" d="M 2059 -325 
Q 1816 -950 1584 -1140 
Q 1353 -1331 966 -1331 
L 506 -1331 
L 506 -850 
L 844 -850 
Q 1081 -850 1212 -737 
Q 1344 -625 1503 -206 
L 1606 56 
L 191 3500 
L 800 3500 
L 1894 763 
L 2988 3500 
L 3597 3500 
L 2059 -325 
z
" transform="scale(0.015625)"/>
      </defs>
      <use xlink:href="#DejaVuSans-79"/>
     </g>
    </g>
   </g>
   <g id="line2d_23">
    <path d="M 69.188409 287.043787 
L 83.013878 286.361043 
L 95.212822 285.536746 
L 105.785239 284.598495 
L 114.731131 283.59738 
L 122.86376 282.484039 
L 130.996389 281.137122 
L 138.315755 279.687714 
L 144.821858 278.178883 
L 151.327961 276.431263 
L 157.020801 274.680102 
L 162.713641 272.696398 
L 168.406482 270.454205 
L 173.286059 268.305856 
L 178.165636 265.929585 
L 183.045214 263.307131 
L 187.924791 260.420184 
L 192.804368 257.250761 
L 197.683946 253.781671 
L 202.563523 249.997057 
L 207.4431 245.883014 
L 212.322678 241.428281 
L 217.202255 236.624978 
L 222.081832 231.46936 
L 226.96141 225.962562 
L 231.840987 220.111279 
L 236.720564 213.92834 
L 242.413405 206.321934 
L 248.106245 198.333028 
L 254.612348 188.804902 
L 262.744977 176.445282 
L 277.383709 153.642724 
L 287.142863 138.644361 
L 294.462229 127.797977 
L 300.968333 118.582599 
L 306.661173 110.918671 
L 311.54075 104.682156 
L 316.420327 98.774535 
L 321.299905 93.209698 
L 326.179482 87.995329 
L 331.059059 83.133444 
L 335.938637 78.621062 
L 340.818214 74.450937 
L 345.697791 70.61232 
L 350.577369 67.0917 
L 355.456946 63.873498 
L 360.336524 60.940705 
L 365.216101 58.275436 
L 370.095678 55.859408 
L 374.975256 53.674329 
L 380.668096 51.393002 
L 386.360936 49.373996 
L 392.053776 47.591142 
L 398.559879 45.811395 
L 405.065982 44.274429 
L 412.385348 42.797645 
L 419.704714 41.550839 
L 427.837343 40.394096 
L 436.783235 39.353599 
L 446.54239 38.444725 
L 457.92807 37.621171 
L 470.940276 36.919379 
L 475.006591 36.74175 
L 475.006591 36.74175 
" clip-path="url(#pa3d76dfb90)" style="fill: none; stroke: #0000ff; stroke-width: 2; stroke-linecap: square"/>
   </g>
   <g id="line2d_24">
    <path d="M 69.188409 287.055152 
L 83.013878 286.383384 
L 95.212822 285.577235 
L 105.785239 284.66616 
L 115.544394 283.603892 
L 124.490286 282.401597 
L 132.622914 281.082198 
L 139.94228 279.680262 
L 147.261646 278.046662 
L 153.76775 276.37729 
L 160.273853 274.48317 
L 166.779956 272.346394 
L 173.286059 269.95201 
L 179.792162 267.289875 
L 186.298265 264.356904 
L 192.804368 261.15967 
L 199.310471 257.717235 
L 206.629837 253.594874 
L 216.388992 247.819953 
L 231.027724 239.139501 
L 237.533827 235.559197 
L 242.413405 233.097971 
L 247.292982 230.890763 
L 251.359296 229.28421 
L 255.425611 227.919852 
L 259.491925 226.822876 
L 262.744977 226.152014 
L 265.998028 225.674109 
L 269.25108 225.395202 
L 272.504131 225.318851 
L 275.757183 225.446035 
L 279.010235 225.775124 
L 282.263286 226.301929 
L 285.516338 227.019809 
L 289.582652 228.172083 
L 293.648967 229.587017 
L 297.715281 231.238673 
L 302.594858 233.492027 
L 307.474436 235.99019 
L 313.980539 239.60523 
L 322.926431 244.886435 
L 339.191688 254.530555 
L 346.511054 258.599239 
L 353.017157 261.982951 
L 359.523261 265.115369 
L 366.029364 267.980823 
L 372.535467 270.575413 
L 379.04157 272.904221 
L 385.547673 274.978788 
L 392.053776 276.814961 
L 398.559879 278.431148 
L 405.879245 280.010837 
L 413.198611 281.365072 
L 421.33124 282.638392 
L 430.277132 283.797715 
L 440.036287 284.821251 
L 450.608704 285.698541 
L 462.807648 286.474367 
L 475.006591 287.055152 
L 475.006591 287.055152 
" clip-path="url(#pa3d76dfb90)" style="fill: none; stroke-dasharray: 7.4,3.2; stroke-dashoffset: 0; stroke: #ff0000; stroke-width: 2"/>
   </g>
   <g id="line2d_25">
    <path d="M 48.8975 288.74175 
L 495.2975 288.74175 
" clip-path="url(#pa3d76dfb90)" style="fill: none; stroke: #808080; stroke-width: 0.5; stroke-linecap: square"/>
   </g>
   <g id="line2d_26">
    <path d="M 272.0975 301.34175 
L 272.0975 24.14175 
" clip-path="url(#pa3d76dfb90)" style="fill: none; stroke: #808080; stroke-width: 0.5; stroke-linecap: square"/>
   </g>
   <g id="patch_3">
    <path d="M 48.8975 301.34175 
L 48.8975 24.14175 
" style="fill: none; stroke: #000000; stroke-width: 0.8; stroke-linejoin: miter; stroke-linecap: square"/>
   </g>
   <g id="patch_4">
    <path d="M 495.2975 301.34175 
L 495.2975 24.14175 
" style="fill: none; stroke: #000000; stroke-width: 0.8; stroke-linejoin: miter; stroke-linecap: square"/>
   </g>
   <g id="patch_5">
    <path d="M 48.8975 301.34175 
L 495.2975 301.34175 
" style="fill: none; stroke: #000000; stroke-width: 0.8; stroke-linejoin: miter; stroke-linecap: square"/>
   </g>
   <g id="patch_6">
    <path d="M 48.8975 24.14175 
L 495.2975 24.14175 
" style="fill: none; stroke: #000000; stroke-width: 0.8; stroke-linejoin: miter; stroke-linecap: square"/>
   </g>
   <g id="text_14">
    <!-- gradient ~ 0 -->
    <g style="fill: #ff0000" transform="translate(402.813054 272.469978) scale(0.1 -0.1)">
     <defs>
      <path id="DejaVuSans-67" d="M 2906 1791 
Q 2906 2416 2648 2759 
Q 2391 3103 1925 3103 
Q 1463 3103 1205 2759 
Q 947 2416 947 1791 
Q 947 1169 1205 825 
Q 1463 481 1925 481 
Q 2391 481 2648 825 
Q 2906 1169 2906 1791 
z
M 3481 434 
Q 3481 -459 3084 -895 
Q 2688 -1331 1869 -1331 
Q 1566 -1331 1297 -1286 
Q 1028 -1241 775 -1147 
L 775 -588 
Q 1028 -725 1275 -790 
Q 1522 -856 1778 -856 
Q 2344 -856 2625 -561 
Q 2906 -266 2906 331 
L 2906 616 
Q 2728 306 2450 153 
Q 2172 0 1784 0 
Q 1141 0 747 490 
Q 353 981 353 1791 
Q 353 2603 747 3093 
Q 1141 3584 1784 3584 
Q 2172 3584 2450 3431 
Q 2728 3278 2906 2969 
L 2906 3500 
L 3481 3500 
L 3481 434 
z
" transform="scale(0.015625)"/>
      <path id="DejaVuSans-72" d="M 2631 2963 
Q 2534 3019 2420 3045 
Q 2306 3072 2169 3072 
Q 1681 3072 1420 2755 
Q 1159 2438 1159 1844 
L 1159 0 
L 581 0 
L 581 3500 
L 1159 3500 
L 1159 2956 
Q 1341 3275 1631 3429 
Q 1922 3584 2338 3584 
Q 2397 3584 2469 3576 
Q 2541 3569 2628 3553 
L 2631 2963 
z
" transform="scale(0.015625)"/>
      <path id="DejaVuSans-61" d="M 2194 1759 
Q 1497 1759 1228 1600 
Q 959 1441 959 1056 
Q 959 750 1161 570 
Q 1363 391 1709 391 
Q 2188 391 2477 730 
Q 2766 1069 2766 1631 
L 2766 1759 
L 2194 1759 
z
M 3341 1997 
L 3341 0 
L 2766 0 
L 2766 531 
Q 2569 213 2275 61 
Q 1981 -91 1556 -91 
Q 1019 -91 701 211 
Q 384 513 384 1019 
Q 384 1609 779 1909 
Q 1175 2209 1959 2209 
L 2766 2209 
L 2766 2266 
Q 2766 2663 2505 2880 
Q 2244 3097 1772 3097 
Q 1472 3097 1187 3025 
Q 903 2953 641 2809 
L 641 3341 
Q 956 3463 1253 3523 
Q 1550 3584 1831 3584 
Q 2591 3584 2966 3190 
Q 3341 2797 3341 1997 
z
" transform="scale(0.015625)"/>
      <path id="DejaVuSans-64" d="M 2906 2969 
L 2906 4863 
L 3481 4863 
L 3481 0 
L 2906 0 
L 2906 525 
Q 2725 213 2448 61 
Q 2172 -91 1784 -91 
Q 1150 -91 751 415 
Q 353 922 353 1747 
Q 353 2572 751 3078 
Q 1150 3584 1784 3584 
Q 2172 3584 2448 3432 
Q 2725 3281 2906 2969 
z
M 947 1747 
Q 947 1113 1208 752 
Q 1469 391 1925 391 
Q 2381 391 2643 752 
Q 2906 1113 2906 1747 
Q 2906 2381 2643 2742 
Q 2381 3103 1925 3103 
Q 1469 3103 1208 2742 
Q 947 2381 947 1747 
z
" transform="scale(0.015625)"/>
      <path id="DejaVuSans-69" d="M 603 3500 
L 1178 3500 
L 1178 0 
L 603 0 
L 603 3500 
z
M 603 4863 
L 1178 4863 
L 1178 4134 
L 603 4134 
L 603 4863 
z
" transform="scale(0.015625)"/>
      <path id="DejaVuSans-65" d="M 3597 1894 
L 3597 1613 
L 953 1613 
Q 991 1019 1311 708 
Q 1631 397 2203 397 
Q 2534 397 2845 478 
Q 3156 559 3463 722 
L 3463 178 
Q 3153 47 2828 -22 
Q 2503 -91 2169 -91 
Q 1331 -91 842 396 
Q 353 884 353 1716 
Q 353 2575 817 3079 
Q 1281 3584 2069 3584 
Q 2775 3584 3186 3129 
Q 3597 2675 3597 1894 
z
M 3022 2063 
Q 3016 2534 2758 2815 
Q 2500 3097 2075 3097 
Q 1594 3097 1305 2825 
Q 1016 2553 972 2059 
L 3022 2063 
z
" transform="scale(0.015625)"/>
      <path id="DejaVuSans-6e" d="M 3513 2113 
L 3513 0 
L 2938 0 
L 2938 2094 
Q 2938 2591 2744 2837 
Q 2550 3084 2163 3084 
Q 1697 3084 1428 2787 
Q 1159 2491 1159 1978 
L 1159 0 
L 581 0 
L 581 3500 
L 1159 3500 
L 1159 2956 
Q 1366 3272 1645 3428 
Q 1925 3584 2291 3584 
Q 2894 3584 3203 3211 
Q 3513 2838 3513 2113 
z
" transform="scale(0.015625)"/>
      <path id="DejaVuSans-74" d="M 1172 4494 
L 1172 3500 
L 2356 3500 
L 2356 3053 
L 1172 3053 
L 1172 1153 
Q 1172 725 1289 603 
Q 1406 481 1766 481 
L 2356 481 
L 2356 0 
L 1766 0 
Q 1100 0 847 248 
Q 594 497 594 1153 
L 594 3053 
L 172 3053 
L 172 3500 
L 594 3500 
L 594 4494 
L 1172 4494 
z
" transform="scale(0.015625)"/>
      <path id="DejaVuSans-20" transform="scale(0.015625)"/>
      <path id="DejaVuSans-7e" d="M 4684 2553 
L 4684 1997 
Q 4356 1750 4076 1644 
Q 3797 1538 3494 1538 
Q 3150 1538 2694 1722 
Q 2659 1734 2644 1741 
Q 2622 1750 2575 1766 
Q 2091 1959 1797 1959 
Q 1522 1959 1253 1839 
Q 984 1719 678 1459 
L 678 2016 
Q 1006 2263 1286 2370 
Q 1566 2478 1869 2478 
Q 2213 2478 2672 2291 
Q 2703 2278 2719 2272 
Q 2744 2263 2788 2247 
Q 3272 2053 3566 2053 
Q 3834 2053 4098 2172 
Q 4363 2291 4684 2553 
z
" transform="scale(0.015625)"/>
     </defs>
     <use xlink:href="#DejaVuSans-67"/>
     <use xlink:href="#DejaVuSans-72" transform="translate(63.476562 0)"/>
     <use xlink:href="#DejaVuSans-61" transform="translate(104.589844 0)"/>
     <use xlink:href="#DejaVuSans-64" transform="translate(165.869141 0)"/>
     <use xlink:href="#DejaVuSans-69" transform="translate(229.345703 0)"/>
     <use xlink:href="#DejaVuSans-65" transform="translate(257.128906 0)"/>
     <use xlink:href="#DejaVuSans-6e" transform="translate(318.652344 0)"/>
     <use xlink:href="#DejaVuSans-74" transform="translate(382.03125 0)"/>
     <use xlink:href="#DejaVuSans-20" transform="translate(421.240234 0)"/>
     <use xlink:href="#DejaVuSans-7e" transform="translate(453.027344 0)"/>
     <use xlink:href="#DejaVuSans-20" transform="translate(536.816406 0)"/>
     <use xlink:href="#DejaVuSans-30" transform="translate(568.603516 0)"/>
    </g>
    <!-- (vanishing) -->
    <g style="fill: #ff0000" transform="translate(406.436491 283.667791) scale(0.1 -0.1)">
     <defs>
      <path id="DejaVuSans-28" d="M 1984 4856 
Q 1566 4138 1362 3434 
Q 1159 2731 1159 2009 
Q 1159 1288 1364 580 
Q 1569 -128 1984 -844 
L 1484 -844 
Q 1016 -109 783 600 
Q 550 1309 550 2009 
Q 550 2706 781 3412 
Q 1013 4119 1484 4856 
L 1984 4856 
z
" transform="scale(0.015625)"/>
      <path id="DejaVuSans-76" d="M 191 3500 
L 800 3500 
L 1894 563 
L 2988 3500 
L 3597 3500 
L 2284 0 
L 1503 0 
L 191 3500 
z
" transform="scale(0.015625)"/>
      <path id="DejaVuSans-73" d="M 2834 3397 
L 2834 2853 
Q 2591 2978 2328 3040 
Q 2066 3103 1784 3103 
Q 1356 3103 1142 2972 
Q 928 2841 928 2578 
Q 928 2378 1081 2264 
Q 1234 2150 1697 2047 
L 1894 2003 
Q 2506 1872 2764 1633 
Q 3022 1394 3022 966 
Q 3022 478 2636 193 
Q 2250 -91 1575 -91 
Q 1294 -91 989 -36 
Q 684 19 347 128 
L 347 722 
Q 666 556 975 473 
Q 1284 391 1588 391 
Q 1994 391 2212 530 
Q 2431 669 2431 922 
Q 2431 1156 2273 1281 
Q 2116 1406 1581 1522 
L 1381 1569 
Q 847 1681 609 1914 
Q 372 2147 372 2553 
Q 372 3047 722 3315 
Q 1072 3584 1716 3584 
Q 2034 3584 2315 3537 
Q 2597 3491 2834 3397 
z
" transform="scale(0.015625)"/>
      <path id="DejaVuSans-68" d="M 3513 2113 
L 3513 0 
L 2938 0 
L 2938 2094 
Q 2938 2591 2744 2837 
Q 2550 3084 2163 3084 
Q 1697 3084 1428 2787 
Q 1159 2491 1159 1978 
L 1159 0 
L 581 0 
L 581 4863 
L 1159 4863 
L 1159 2956 
Q 1366 3272 1645 3428 
Q 1925 3584 2291 3584 
Q 2894 3584 3203 3211 
Q 3513 2838 3513 2113 
z
" transform="scale(0.015625)"/>
      <path id="DejaVuSans-29" d="M 513 4856 
L 1013 4856 
Q 1481 4119 1714 3412 
Q 1947 2706 1947 2009 
Q 1947 1309 1714 600 
Q 1481 -109 1013 -844 
L 513 -844 
Q 928 -128 1133 580 
Q 1338 1288 1338 2009 
Q 1338 2731 1133 3434 
Q 928 4138 513 4856 
z
" transform="scale(0.015625)"/>
     </defs>
     <use xlink:href="#DejaVuSans-28"/>
     <use xlink:href="#DejaVuSans-76" transform="translate(39.013672 0)"/>
     <use xlink:href="#DejaVuSans-61" transform="translate(98.193359 0)"/>
     <use xlink:href="#DejaVuSans-6e" transform="translate(159.472656 0)"/>
     <use xlink:href="#DejaVuSans-69" transform="translate(222.851562 0)"/>
     <use xlink:href="#DejaVuSans-73" transform="translate(250.634766 0)"/>
     <use xlink:href="#DejaVuSans-68" transform="translate(302.734375 0)"/>
     <use xlink:href="#DejaVuSans-69" transform="translate(366.113281 0)"/>
     <use xlink:href="#DejaVuSans-6e" transform="translate(393.896484 0)"/>
     <use xlink:href="#DejaVuSans-67" transform="translate(457.275391 0)"/>
     <use xlink:href="#DejaVuSans-29" transform="translate(520.751953 0)"/>
    </g>
   </g>
   <g id="text_15">
    <!-- gradient ~ 0 -->
    <g style="fill: #ff0000" transform="translate(78.158509 272.469978) scale(0.1 -0.1)">
     <use xlink:href="#DejaVuSans-67"/>
     <use xlink:href="#DejaVuSans-72" transform="translate(63.476562 0)"/>
     <use xlink:href="#DejaVuSans-61" transform="translate(104.589844 0)"/>
     <use xlink:href="#DejaVuSans-64" transform="translate(165.869141 0)"/>
     <use xlink:href="#DejaVuSans-69" transform="translate(229.345703 0)"/>
     <use xlink:href="#DejaVuSans-65" transform="translate(257.128906 0)"/>
     <use xlink:href="#DejaVuSans-6e" transform="translate(318.652344 0)"/>
     <use xlink:href="#DejaVuSans-74" transform="translate(382.03125 0)"/>
     <use xlink:href="#DejaVuSans-20" transform="translate(421.240234 0)"/>
     <use xlink:href="#DejaVuSans-7e" transform="translate(453.027344 0)"/>
     <use xlink:href="#DejaVuSans-20" transform="translate(536.816406 0)"/>
     <use xlink:href="#DejaVuSans-30" transform="translate(568.603516 0)"/>
    </g>
    <!-- (vanishing) -->
    <g style="fill: #ff0000" transform="translate(81.781946 283.667791) scale(0.1 -0.1)">
     <use xlink:href="#DejaVuSans-28"/>
     <use xlink:href="#DejaVuSans-76" transform="translate(39.013672 0)"/>
     <use xlink:href="#DejaVuSans-61" transform="translate(98.193359 0)"/>
     <use xlink:href="#DejaVuSans-6e" transform="translate(159.472656 0)"/>
     <use xlink:href="#DejaVuSans-69" transform="translate(222.851562 0)"/>
     <use xlink:href="#DejaVuSans-73" transform="translate(250.634766 0)"/>
     <use xlink:href="#DejaVuSans-68" transform="translate(302.734375 0)"/>
     <use xlink:href="#DejaVuSans-69" transform="translate(366.113281 0)"/>
     <use xlink:href="#DejaVuSans-6e" transform="translate(393.896484 0)"/>
     <use xlink:href="#DejaVuSans-67" transform="translate(457.275391 0)"/>
     <use xlink:href="#DejaVuSans-29" transform="translate(520.751953 0)"/>
    </g>
   </g>
   <g id="text_16">
    <!-- max gradient = 0.25 -->
    <g style="fill: #ff0000" transform="translate(220.051406 217.70632) scale(0.1 -0.1)">
     <defs>
      <path id="DejaVuSans-6d" d="M 3328 2828 
Q 3544 3216 3844 3400 
Q 4144 3584 4550 3584 
Q 5097 3584 5394 3201 
Q 5691 2819 5691 2113 
L 5691 0 
L 5113 0 
L 5113 2094 
Q 5113 2597 4934 2840 
Q 4756 3084 4391 3084 
Q 3944 3084 3684 2787 
Q 3425 2491 3425 1978 
L 3425 0 
L 2847 0 
L 2847 2094 
Q 2847 2600 2669 2842 
Q 2491 3084 2119 3084 
Q 1678 3084 1418 2786 
Q 1159 2488 1159 1978 
L 1159 0 
L 581 0 
L 581 3500 
L 1159 3500 
L 1159 2956 
Q 1356 3278 1631 3431 
Q 1906 3584 2284 3584 
Q 2666 3584 2933 3390 
Q 3200 3197 3328 2828 
z
" transform="scale(0.015625)"/>
      <path id="DejaVuSans-3d" d="M 678 2906 
L 4684 2906 
L 4684 2381 
L 678 2381 
L 678 2906 
z
M 678 1631 
L 4684 1631 
L 4684 1100 
L 678 1100 
L 678 1631 
z
" transform="scale(0.015625)"/>
      <path id="DejaVuSans-35" d="M 691 4666 
L 3169 4666 
L 3169 4134 
L 1269 4134 
L 1269 2991 
Q 1406 3038 1543 3061 
Q 1681 3084 1819 3084 
Q 2600 3084 3056 2656 
Q 3513 2228 3513 1497 
Q 3513 744 3044 326 
Q 2575 -91 1722 -91 
Q 1428 -91 1123 -41 
Q 819 9 494 109 
L 494 744 
Q 775 591 1075 516 
Q 1375 441 1709 441 
Q 2250 441 2565 725 
Q 2881 1009 2881 1497 
Q 2881 1984 2565 2268 
Q 2250 2553 1709 2553 
Q 1456 2553 1204 2497 
Q 953 2441 691 2322 
L 691 4666 
z
" transform="scale(0.015625)"/>
     </defs>
     <use xlink:href="#DejaVuSans-6d"/>
     <use xlink:href="#DejaVuSans-61" transform="translate(97.412109 0)"/>
     <use xlink:href="#DejaVuSans-78" transform="translate(158.691406 0)"/>
     <use xlink:href="#DejaVuSans-20" transform="translate(217.871094 0)"/>
     <use xlink:href="#DejaVuSans-67" transform="translate(249.658203 0)"/>
     <use xlink:href="#DejaVuSans-72" transform="translate(313.134766 0)"/>
     <use xlink:href="#DejaVuSans-61" transform="translate(354.248047 0)"/>
     <use xlink:href="#DejaVuSans-64" transform="translate(415.527344 0)"/>
     <use xlink:href="#DejaVuSans-69" transform="translate(479.003906 0)"/>
     <use xlink:href="#DejaVuSans-65" transform="translate(506.787109 0)"/>
     <use xlink:href="#DejaVuSans-6e" transform="translate(568.310547 0)"/>
     <use xlink:href="#DejaVuSans-74" transform="translate(631.689453 0)"/>
     <use xlink:href="#DejaVuSans-20" transform="translate(670.898438 0)"/>
     <use xlink:href="#DejaVuSans-3d" transform="translate(702.685547 0)"/>
     <use xlink:href="#DejaVuSans-20" transform="translate(786.474609 0)"/>
     <use xlink:href="#DejaVuSans-30" transform="translate(818.261719 0)"/>
     <use xlink:href="#DejaVuSans-2e" transform="translate(881.884766 0)"/>
     <use xlink:href="#DejaVuSans-32" transform="translate(913.671875 0)"/>
     <use xlink:href="#DejaVuSans-35" transform="translate(977.294922 0)"/>
    </g>
   </g>
   <g id="text_17">
    <!-- Sigmoid and Its Derivative -->
    <g transform="translate(176.734625 18.14175) scale(0.144 -0.144)">
     <defs>
      <path id="DejaVuSans-53" d="M 3425 4513 
L 3425 3897 
Q 3066 4069 2747 4153 
Q 2428 4238 2131 4238 
Q 1616 4238 1336 4038 
Q 1056 3838 1056 3469 
Q 1056 3159 1242 3001 
Q 1428 2844 1947 2747 
L 2328 2669 
Q 3034 2534 3370 2195 
Q 3706 1856 3706 1288 
Q 3706 609 3251 259 
Q 2797 -91 1919 -91 
Q 1588 -91 1214 -16 
Q 841 59 441 206 
L 441 856 
Q 825 641 1194 531 
Q 1563 422 1919 422 
Q 2459 422 2753 634 
Q 3047 847 3047 1241 
Q 3047 1584 2836 1778 
Q 2625 1972 2144 2069 
L 1759 2144 
Q 1053 2284 737 2584 
Q 422 2884 422 3419 
Q 422 4038 858 4394 
Q 1294 4750 2059 4750 
Q 2388 4750 2728 4690 
Q 3069 4631 3425 4513 
z
" transform="scale(0.015625)"/>
      <path id="DejaVuSans-6f" d="M 1959 3097 
Q 1497 3097 1228 2736 
Q 959 2375 959 1747 
Q 959 1119 1226 758 
Q 1494 397 1959 397 
Q 2419 397 2687 759 
Q 2956 1122 2956 1747 
Q 2956 2369 2687 2733 
Q 2419 3097 1959 3097 
z
M 1959 3584 
Q 2709 3584 3137 3096 
Q 3566 2609 3566 1747 
Q 3566 888 3137 398 
Q 2709 -91 1959 -91 
Q 1206 -91 779 398 
Q 353 888 353 1747 
Q 353 2609 779 3096 
Q 1206 3584 1959 3584 
z
" transform="scale(0.015625)"/>
      <path id="DejaVuSans-49" d="M 628 4666 
L 1259 4666 
L 1259 0 
L 628 0 
L 628 4666 
z
" transform="scale(0.015625)"/>
      <path id="DejaVuSans-44" d="M 1259 4147 
L 1259 519 
L 2022 519 
Q 2988 519 3436 956 
Q 3884 1394 3884 2338 
Q 3884 3275 3436 3711 
Q 2988 4147 2022 4147 
L 1259 4147 
z
M 628 4666 
L 1925 4666 
Q 3281 4666 3915 4102 
Q 4550 3538 4550 2338 
Q 4550 1131 3912 565 
Q 3275 0 1925 0 
L 628 0 
L 628 4666 
z
" transform="scale(0.015625)"/>
     </defs>
     <use xlink:href="#DejaVuSans-53"/>
     <use xlink:href="#DejaVuSans-69" transform="translate(63.476562 0)"/>
     <use xlink:href="#DejaVuSans-67" transform="translate(91.259766 0)"/>
     <use xlink:href="#DejaVuSans-6d" transform="translate(154.736328 0)"/>
     <use xlink:href="#DejaVuSans-6f" transform="translate(252.148438 0)"/>
     <use xlink:href="#DejaVuSans-69" transform="translate(313.330078 0)"/>
     <use xlink:href="#DejaVuSans-64" transform="translate(341.113281 0)"/>
     <use xlink:href="#DejaVuSans-20" transform="translate(404.589844 0)"/>
     <use xlink:href="#DejaVuSans-61" transform="translate(436.376953 0)"/>
     <use xlink:href="#DejaVuSans-6e" transform="translate(497.65625 0)"/>
     <use xlink:href="#DejaVuSans-64" transform="translate(561.035156 0)"/>
     <use xlink:href="#DejaVuSans-20" transform="translate(624.511719 0)"/>
     <use xlink:href="#DejaVuSans-49" transform="translate(656.298828 0)"/>
     <use xlink:href="#DejaVuSans-74" transform="translate(685.791016 0)"/>
     <use xlink:href="#DejaVuSans-73" transform="translate(725 0)"/>
     <use xlink:href="#DejaVuSans-20" transform="translate(777.099609 0)"/>
     <use xlink:href="#DejaVuSans-44" transform="translate(808.886719 0)"/>
     <use xlink:href="#DejaVuSans-65" transform="translate(885.888672 0)"/>
     <use xlink:href="#DejaVuSans-72" transform="translate(947.412109 0)"/>
     <use xlink:href="#DejaVuSans-69" transform="translate(988.525391 0)"/>
     <use xlink:href="#DejaVuSans-76" transform="translate(1016.308594 0)"/>
     <use xlink:href="#DejaVuSans-61" transform="translate(1075.488281 0)"/>
     <use xlink:href="#DejaVuSans-74" transform="translate(1136.767578 0)"/>
     <use xlink:href="#DejaVuSans-69" transform="translate(1175.976562 0)"/>
     <use xlink:href="#DejaVuSans-76" transform="translate(1203.759766 0)"/>
     <use xlink:href="#DejaVuSans-65" transform="translate(1262.939453 0)"/>
    </g>
   </g>
   <g id="legend_1">
    <g id="patch_7">
     <path d="M 56.5975 65.233625 
L 195.029062 65.233625 
Q 197.229062 65.233625 197.229062 63.033625 
L 197.229062 31.84175 
Q 197.229062 29.64175 195.029062 29.64175 
L 56.5975 29.64175 
Q 54.3975 29.64175 54.3975 31.84175 
L 54.3975 63.033625 
Q 54.3975 65.233625 56.5975 65.233625 
z
" style="fill: #ffffff; opacity: 0.8; stroke: #cccccc; stroke-linejoin: miter"/>
    </g>
    <g id="line2d_27">
     <path d="M 58.7975 38.550031 
L 69.7975 38.550031 
L 80.7975 38.550031 
" style="fill: none; stroke: #0000ff; stroke-width: 2; stroke-linecap: square"/>
    </g>
    <g id="text_18">
     <!-- Sigmoid -->
     <g transform="translate(89.5975 42.400031) scale(0.11 -0.11)">
      <use xlink:href="#DejaVuSans-53"/>
      <use xlink:href="#DejaVuSans-69" transform="translate(63.476562 0)"/>
      <use xlink:href="#DejaVuSans-67" transform="translate(91.259766 0)"/>
      <use xlink:href="#DejaVuSans-6d" transform="translate(154.736328 0)"/>
      <use xlink:href="#DejaVuSans-6f" transform="translate(252.148438 0)"/>
      <use xlink:href="#DejaVuSans-69" transform="translate(313.330078 0)"/>
      <use xlink:href="#DejaVuSans-64" transform="translate(341.113281 0)"/>
     </g>
    </g>
    <g id="line2d_28">
     <path d="M 58.7975 54.695969 
L 69.7975 54.695969 
L 80.7975 54.695969 
" style="fill: none; stroke-dasharray: 7.4,3.2; stroke-dashoffset: 0; stroke: #ff0000; stroke-width: 2"/>
    </g>
    <g id="text_19">
     <!-- Sigmoid derivative -->
     <g transform="translate(89.5975 58.545969) scale(0.11 -0.11)">
      <use xlink:href="#DejaVuSans-53"/>
      <use xlink:href="#DejaVuSans-69" transform="translate(63.476562 0)"/>
      <use xlink:href="#DejaVuSans-67" transform="translate(91.259766 0)"/>
      <use xlink:href="#DejaVuSans-6d" transform="translate(154.736328 0)"/>
      <use xlink:href="#DejaVuSans-6f" transform="translate(252.148438 0)"/>
      <use xlink:href="#DejaVuSans-69" transform="translate(313.330078 0)"/>
      <use xlink:href="#DejaVuSans-64" transform="translate(341.113281 0)"/>
      <use xlink:href="#DejaVuSans-20" transform="translate(404.589844 0)"/>
      <use xlink:href="#DejaVuSans-64" transform="translate(436.376953 0)"/>
      <use xlink:href="#DejaVuSans-65" transform="translate(499.853516 0)"/>
      <use xlink:href="#DejaVuSans-72" transform="translate(561.376953 0)"/>
      <use xlink:href="#DejaVuSans-69" transform="translate(602.490234 0)"/>
      <use xlink:href="#DejaVuSans-76" transform="translate(630.273438 0)"/>
      <use xlink:href="#DejaVuSans-61" transform="translate(689.453125 0)"/>
      <use xlink:href="#DejaVuSans-74" transform="translate(750.732422 0)"/>
      <use xlink:href="#DejaVuSans-69" transform="translate(789.941406 0)"/>
      <use xlink:href="#DejaVuSans-76" transform="translate(817.724609 0)"/>
      <use xlink:href="#DejaVuSans-65" transform="translate(876.904297 0)"/>
     </g>
    </g>
   </g>
  </g>
 </g>
 <defs>
  <clipPath id="pa3d76dfb90">
   <rect x="48.8975" y="24.14175" width="446.4" height="277.2"/>
  </clipPath>
 </defs>
</svg>
